<svg version="1.2" xmlns="http://www.w3.org/2000/svg" viewBox="0 0 15 15" width="15" height="15">
	<style>
		.s0 { fill: #000000 } 
	</style>
	<g id="layer1">
		<path id="path1" class="s0" d="m6.61 14.76c-0.02-0.04-0.11-0.32-0.21-0.61-0.89-2.67-3.15-4.89-5.84-5.72-0.53-0.17-0.56-0.19-0.56-0.36 0-0.11 0.04-0.2 0.11-0.23 0.05-0.02 1.6-0.04 3.44-0.04 2.74 0 3.35 0.02 3.42 0.09 0.05 0.07 0.07 1.04 0.05 3.51l-0.01 3.41-0.19 0.02q-0.17 0.02-0.21-0.07zm1.27 0.04c-0.02-0.03-0.04-1.57-0.04-3.44 0-2.55 0.02-3.42 0.08-3.48 0.09-0.09 6.73-0.11 6.88-0.02 0.05 0.03 0.08 0.13 0.06 0.21-0.01 0.12-0.12 0.18-0.59 0.33-1.36 0.44-2.66 1.27-3.7 2.35-0.99 1.04-1.71 2.23-2.1 3.51-0.17 0.54-0.2 0.58-0.36 0.58-0.1 0-0.21-0.02-0.23-0.04zm-7.84-7.84c-0.02-0.02-0.04-0.11-0.04-0.19 0-0.12 0.1-0.17 0.65-0.36 2.75-0.93 4.8-2.99 5.75-5.8 0.2-0.59 0.22-0.61 0.41-0.61h0.2v3.49 3.48l-3.46 0.02c-1.9 0.01-3.48 0-3.51-0.03zm7.83-0.04c-0.02-0.04-0.03-1.62-0.02-3.5l0.02-3.42h0.19c0.18 0 0.2 0.03 0.37 0.58 0.86 2.68 2.96 4.8 5.71 5.77 0.67 0.23 0.7 0.25 0.7 0.43v0.19l-3.47 0.02c-2.74 0.01-3.48 0-3.5-0.07z"/>
	</g>
</svg>