<?xml version="1.0" encoding="UTF-8"?>
<svg version="1.1" xmlns="http://www.w3.org/2000/svg" width="400" height="400">
<path d="M0 0 C132 0 264 0 400 0 C400 132 400 264 400 400 C268 400 136 400 0 400 C0 268 0 136 0 0 Z " fill="#0D100F" transform="translate(0,0)"/>
<path d="M0 0 C0.82290527 0.00202423 1.64581055 0.00404846 2.49365234 0.00613403 C3.33331543 0.00517731 4.17297852 0.00422058 5.03808594 0.00323486 C6.81689529 0.00255306 8.59570712 0.00440737 10.37451172 0.00857544 C13.10699011 0.01392371 15.83930411 0.00863048 18.57177734 0.00222778 C20.29573604 0.00288856 22.01969464 0.00416973 23.74365234 0.00613403 C24.56655762 0.0041098 25.38946289 0.00208557 26.23730469 0 C32.0037018 0.02399599 32.0037018 0.02399599 33.11865234 1.13894653 C33.2145946 2.72049501 33.24053194 4.30633778 33.23890686 5.89079285 C33.24096886 7.43264503 33.24096886 7.43264503 33.24307251 9.00564575 C33.2376796 10.71143799 33.2376796 10.71143799 33.23217773 12.45169067 C33.23232376 13.64177231 33.23246979 14.83185394 33.23262024 16.05799866 C33.23204129 19.33057927 33.22701216 22.6031176 33.22004628 25.87568974 C33.21381202 29.29233318 33.21320889 32.70897737 33.21202087 36.12562561 C33.20890777 42.5996392 33.20069467 49.07363599 33.19067138 55.54764217 C33.17950959 62.91632574 33.17399963 70.28501009 33.16897595 77.65369999 C33.15851204 92.81545822 33.14091301 107.9772007 33.11865234 123.13894653 C29.00692675 123.16360399 24.89522957 123.18178612 20.78344727 123.19387817 C19.38370006 123.19891733 17.98395814 123.2057487 16.58422852 123.21438599 C14.57619458 123.22646973 12.56812277 123.2316446 10.56005859 123.23660278 C9.350354 123.2418396 8.14064941 123.24707642 6.89428711 123.25247192 C4.11865234 123.13894653 4.11865234 123.13894653 3.11865234 122.13894653 C3.01933615 120.72515134 2.98895939 119.30621804 2.99365234 117.88894653 C2.98978516 116.73652466 2.98978516 116.73652466 2.98583984 115.56082153 C3.11865234 113.13894653 3.11865234 113.13894653 4.11865234 108.13894653 C-5.12134766 108.46894653 -14.36134766 108.79894653 -23.88134766 109.13894653 C-25.53134766 113.42894653 -27.18134766 117.71894653 -28.88134766 122.13894653 C-29.88134766 123.13894653 -29.88134766 123.13894653 -32.65698242 123.25247192 C-33.86668701 123.24723511 -35.0763916 123.24199829 -36.32275391 123.23660278 C-37.62792969 123.23338013 -38.93310547 123.23015747 -40.27783203 123.22683716 C-41.66650455 123.21848054 -43.05517643 123.21001558 -44.44384766 123.20144653 C-45.83642421 123.19643319 -47.22900247 123.19187 -48.62158203 123.18777466 C-52.04154636 123.17594087 -55.4614261 123.15945533 -58.88134766 123.13894653 C-60.43453213 118.42850895 -58.47810591 115.27340904 -56.45556641 111.00222778 C-56.08150665 110.18743958 -55.7074469 109.37265137 -55.322052 108.53317261 C-54.50858649 106.76420496 -53.68988318 104.99763878 -52.86660767 103.23321533 C-50.64815777 98.47793342 -48.46718722 93.70544272 -46.27978516 88.93582153 C-45.8281752 87.95408463 -45.37656525 86.97234772 -44.91127014 85.96086121 C-40.76610421 76.93498994 -36.76663182 67.84888108 -32.80090332 58.74304199 C-26.59146742 44.48732334 -20.28027546 30.28232473 -13.81884766 16.13894653 C-13.47060944 15.37494537 -13.12237122 14.61094421 -12.76358032 13.8237915 C-11.79390119 11.69838763 -10.82083838 9.57457612 -9.84619141 7.45144653 C-9.55857941 6.82133163 -9.27096741 6.19121674 -8.97463989 5.54200745 C-6.50490175 0.18724996 -5.98910036 0.02492273 0 0 Z " fill="#0AE247" transform="translate(242.88134765625,137.86105346679688)"/>
<path d="M0 0 C8.71639474 5.59551561 14.48511337 14.60171846 16.75390625 24.640625 C17.41826834 29.72005165 17.38496642 34.89303176 17.0625 40 C15.23215945 41.83034055 12.33038008 41.13042797 9.875 41.1328125 C8.61945313 41.13410156 7.36390625 41.13539063 6.0703125 41.13671875 C5.41321289 41.13462402 4.75611328 41.1325293 4.07910156 41.13037109 C2.07088665 41.12502234 0.06289541 41.13031691 -1.9453125 41.13671875 C-3.82863281 41.13478516 -3.82863281 41.13478516 -5.75 41.1328125 C-6.91144531 41.13168457 -8.07289062 41.13055664 -9.26953125 41.12939453 C-11.9375 41 -11.9375 41 -12.9375 40 C-13.22137779 37.77854367 -13.38515173 35.55682352 -13.55859375 33.32421875 C-13.96300233 30.84356818 -14.62251836 29.13507772 -15.9375 27 C-19.14004147 25.39872926 -21.39064564 25.59298393 -24.9375 26 C-34.87488402 31.7817507 -39.35110023 45.02436192 -42.4375 55.625 C-44.04025171 62.21344247 -44.31224704 68.80198928 -44.375 75.5625 C-44.3853125 76.49078613 -44.395625 77.41907227 -44.40625 78.37548828 C-44.33303645 83.97937562 -43.68604234 88.07849241 -40.9375 93 C-37.19566125 95.49455917 -35.37506964 95.37606522 -30.9375 95 C-25.33396369 92.91240804 -22.41438978 90.03017041 -19.8046875 84.67578125 C-18.81166442 82.46404803 -17.85637213 80.24341653 -16.9375 78 C-19.9075 78 -22.8775 78 -25.9375 78 C-26.87559201 74.24763196 -26.96702582 73.05213253 -26.1953125 69.48828125 C-26.01613281 68.64845703 -25.83695313 67.80863281 -25.65234375 66.94335938 C-25.45769531 66.07517578 -25.26304688 65.20699219 -25.0625 64.3125 C-24.87558594 63.43271484 -24.68867187 62.55292969 -24.49609375 61.64648438 C-23.08251232 55.14501232 -23.08251232 55.14501232 -21.9375 54 C-20.49460213 53.90704185 -19.04720215 53.88253487 -17.60131836 53.88647461 C-16.21999977 53.88658791 -16.21999977 53.88658791 -14.81077576 53.88670349 C-13.80974319 53.89186478 -12.80871063 53.89702606 -11.77734375 53.90234375 C-10.75774063 53.9037587 -9.73813751 53.90517365 -8.68763733 53.90663147 C-5.41672893 53.91224903 -2.14588787 53.9248045 1.125 53.9375 C3.33658756 53.94251274 5.54817618 53.94707604 7.75976562 53.95117188 C13.19403357 53.96222416 18.62826197 53.97897937 24.0625 54 C24.91807927 57.11404738 25.05985884 59.08787986 24.35546875 62.2578125 C24.18080078 63.04800781 24.00613281 63.83820313 23.82617188 64.65234375 C23.63603516 65.46832031 23.44589844 66.28429687 23.25 67.125 C23.07146484 67.94871094 22.89292969 68.77242188 22.70898438 69.62109375 C21.32180886 75.74069114 21.32180886 75.74069114 19.0625 78 C16.73974823 78.40047444 14.40510643 78.7397104 12.0625 79 C11.69898437 80.02738281 11.33546875 81.05476563 10.9609375 82.11328125 C5.14791422 98.26078525 -0.95544902 111.94605305 -16.9375 120 C-22.13973535 122.43468419 -27.18614302 123.66168488 -32.9375 124 C-33.79472656 124.05285156 -34.65195313 124.10570312 -35.53515625 124.16015625 C-44.88726825 124.46268589 -52.79737517 122.74823653 -60.12890625 116.71484375 C-68.00757909 109.24456864 -73.34055483 98.58515688 -74.09863281 87.68261719 C-74.59934007 59.23545839 -69.39288663 31.38395954 -49.07421875 10.04296875 C-37.02325236 -1.40919186 -15.76125261 -7.31597084 0 0 Z " fill="#0AE147" transform="translate(104.9375,139)"/>
<path d="M0 0 C14.50677865 0.00474512 29.14871793 0.04886038 40.5546875 10.1875 C49.63001228 19.49552542 50.91802718 29.01341599 50.78222656 41.54321289 C50.58089717 48.15569912 49.76855422 54.04757253 47.375 60.25 C46.99214844 61.46429688 46.99214844 61.46429688 46.6015625 62.703125 C42.34050485 75.1344675 33.06240207 85.67829851 21.47265625 91.77734375 C18.79750311 93.01617306 16.11525722 94.16399944 13.375 95.25 C12.58738281 95.60320312 11.79976563 95.95640625 10.98828125 96.3203125 C4.18149186 98.74186089 -2.93892892 98.37275141 -10.0625 98.3125 C-11.08021484 98.30798828 -12.09792969 98.30347656 -13.14648438 98.29882812 C-15.63938509 98.28712437 -18.13216074 98.27072848 -20.625 98.25 C-18.24196501 100.7289559 -15.97774346 102.30722452 -12.9375 103.9375 C-12.12925781 104.37449219 -11.32101562 104.81148438 -10.48828125 105.26171875 C-9.87339844 105.58785156 -9.25851562 105.91398437 -8.625 106.25 C-10.185 120.81 -10.185 120.81 -12.625 123.25 C-14.62464982 123.33758003 -16.6273611 123.35696576 -18.62890625 123.34765625 C-20.45131836 123.34282227 -20.45131836 123.34282227 -22.31054688 123.33789062 C-23.58994141 123.32951172 -24.86933594 123.32113281 -26.1875 123.3125 C-27.47076172 123.30798828 -28.75402344 123.30347656 -30.07617188 123.29882812 C-33.25916022 123.28699545 -36.44205762 123.27051068 -39.625 123.25 C-40.90106057 119.62287485 -40.33997271 117.14658272 -39.40234375 113.46484375 C-39.11423828 112.30871582 -38.82613281 111.15258789 -38.52929688 109.96142578 C-38.21025391 108.71603027 -37.89121094 107.47063477 -37.5625 106.1875 C-36.90021241 103.53893002 -36.24514532 100.88858709 -35.58984375 98.23828125 C-35.42269867 97.56577332 -35.25555359 96.89326538 -35.08334351 96.20037842 C-33.4935015 89.78125717 -32.04113128 83.33458859 -30.625 76.875 C-30.13414971 74.64322144 -29.64326379 72.41145072 -29.15234375 70.1796875 C-28.78085205 68.48924316 -28.78085205 68.48924316 -28.40185547 66.76464844 C-26.73386768 59.2183404 -25.02171443 51.68192126 -23.31396484 44.14453125 C-23.02344238 42.86191406 -22.73291992 41.57929688 -22.43359375 40.2578125 C-22.28732544 39.6120929 -22.14105713 38.96637329 -21.99035645 38.30108643 C-21.03674086 34.08571049 -20.09254678 29.86831385 -19.15409851 25.64953613 C-18.51005001 22.75508813 -17.86336957 19.86123085 -17.21652222 16.96740723 C-16.90687898 15.57862076 -16.59853775 14.18954333 -16.29153442 12.8001709 C-15.86692064 10.87907051 -15.43749115 8.95903641 -15.0078125 7.0390625 C-14.76434082 5.94287598 -14.52086914 4.84668945 -14.27001953 3.71728516 C-12.72805098 -2.18094881 -5.09433892 0.01177532 0 0 Z " fill="#0AE147" transform="translate(319.625,137.75)"/>
<path d="M0 0 C6.20836107 4.15985326 9.89463988 10.75419658 11.75 17.875 C11.96912372 20.67418453 11.94094943 23.44461264 11.875 26.25 C11.86597656 26.98605469 11.85695313 27.72210938 11.84765625 28.48046875 C11.82430144 30.2787888 11.78843836 32.07693911 11.75 33.875 C7.27084672 33.90386338 2.79171709 33.92175187 -1.6875 33.9375 C-2.96689453 33.94587891 -4.24628906 33.95425781 -5.56445312 33.96289062 C-6.77939453 33.96611328 -7.99433594 33.96933594 -9.24609375 33.97265625 C-10.37200928 33.97789307 -11.4979248 33.98312988 -12.65795898 33.98852539 C-15.25 33.875 -15.25 33.875 -16.25 32.875 C-16.64454223 31.02900312 -16.99176866 29.17274178 -17.3125 27.3125 C-17.48910156 26.30058594 -17.66570312 25.28867188 -17.84765625 24.24609375 C-17.98042969 23.46363281 -18.11320312 22.68117187 -18.25 21.875 C-19.68655854 21.79368537 -21.1244483 21.73566441 -22.5625 21.6875 C-23.36300781 21.65269531 -24.16351563 21.61789063 -24.98828125 21.58203125 C-27.29744523 21.70049398 -27.29744523 21.70049398 -29.0078125 23.12890625 C-30.97082722 25.88823826 -30.84945478 28.11734919 -30.7109375 31.42578125 C-29.25207294 39.17754465 -22.48389402 44.94101759 -17.29541016 50.49438477 C-5.84951907 62.75055234 -1.73014584 72.51745276 -1.96484375 89.14453125 C-2.18127224 94.67487743 -3.45988187 99.08917237 -6.25 103.875 C-6.8275 104.926875 -7.405 105.97875 -8 107.0625 C-14.61517171 115.33146464 -22.67398448 120.80589275 -33.41992188 122.14550781 C-44.92411811 123.02628246 -55.39300217 122.0504032 -64.6875 114.625 C-68.32318137 111.14545218 -70.47212762 107.55361152 -72.25 102.875 C-72.6625 101.8025 -73.075 100.73 -73.5 99.625 C-74.54732273 94.38838635 -74.61116583 89.20009615 -74.25 83.875 C-72.44720809 82.07220809 -69.70952299 82.74463395 -67.28125 82.7421875 C-66.07082031 82.74089844 -64.86039063 82.73960937 -63.61328125 82.73828125 C-62.33839844 82.74214844 -61.06351563 82.74601562 -59.75 82.75 C-57.83767578 82.74419922 -57.83767578 82.74419922 -55.88671875 82.73828125 C-54.67628906 82.73957031 -53.46585938 82.74085938 -52.21875 82.7421875 C-51.09919922 82.74331543 -49.97964844 82.74444336 -48.82617188 82.74560547 C-46.25 82.875 -46.25 82.875 -45.25 83.875 C-44.6784325 86.44705373 -44.22130198 89.03283913 -43.75 91.625 C-43.47050243 93.83345606 -43.47050243 93.83345606 -42.25 94.875 C-38.83428147 95.37531206 -38.83428147 95.37531206 -35.25 94.875 C-32.94128583 92.63843315 -32.33860642 91.01175559 -32.08984375 87.8203125 C-32.46027406 79.2559638 -37.64882941 74.57171918 -43.25048828 68.59765625 C-43.72470215 68.09105469 -44.19891602 67.58445312 -44.6875 67.0625 C-45.16429199 66.55332031 -45.64108398 66.04414063 -46.13232422 65.51953125 C-56.20509352 54.56742056 -61.69199108 43.22290999 -61.5234375 28.2890625 C-60.78415036 19.05853447 -56.7042999 11.41876544 -50.25 4.875 C-36.00495503 -7.18885661 -16.31647187 -8.86364731 0 0 Z " fill="#0AE147" transform="translate(191.25,141.125)"/>
<path d="M0 0 C3.56187657 -0.17479953 7.12264773 -0.28101143 10.6875 -0.375 C12.19860352 -0.45041016 12.19860352 -0.45041016 13.74023438 -0.52734375 C20.94351584 -0.66998299 20.94351584 -0.66998299 23.80517578 1.14477539 C27.91179907 5.61495261 27.59267862 9.92974594 27.359375 15.61328125 C26.25509563 26.01991402 23.1833992 35.08829415 14.8828125 41.84375 C11.92168709 43.66220046 9.44308172 43.85946605 6 44 C6.75281383 35.64026498 8.50831993 27.62049362 10.359375 19.44335938 C10.58367187 18.41404297 10.80796875 17.38472656 11.0390625 16.32421875 C11.24740723 15.39697998 11.45575195 14.46974121 11.67041016 13.5144043 C12.00818566 10.93755255 11.96988425 9.40075267 11 7 C8.47413374 5.20337343 8.47413374 5.20337343 5.4375 3.75 C4.42558594 3.22921875 3.41367187 2.7084375 2.37109375 2.171875 C1.58863281 1.78515625 0.80617188 1.3984375 0 1 C0 0.67 0 0.34 0 0 Z " fill="#0D1410" transform="translate(314,165)"/>
<path d="M0 0 C0.33 0 0.66 0 1 0 C1.15765462 10.83656565 0.66507048 21.56425706 0 32.375 C-0.09673214 33.99737334 -0.19308846 35.61976914 -0.2890625 37.2421875 C-0.52103892 41.16178915 -0.76066039 45.08081385 -1 49 C-6.94 49 -12.88 49 -19 49 C-16.95492855 42.68767527 -14.69067243 36.5227128 -12.20703125 30.37109375 C-11.85613937 29.49598648 -11.5052475 28.62087921 -11.14372253 27.71925354 C-10.03576607 24.95767726 -8.92419884 22.19757157 -7.8125 19.4375 C-7.05509812 17.55152883 -6.29793442 15.66546198 -5.54101562 13.77929688 C-3.69675996 9.18508816 -1.8492673 4.59219359 0 0 Z " fill="#0D1811" transform="translate(249,170)"/>
</svg>
