<?xml version="1.0" encoding="UTF-8"?>
<svg version="1.1" xmlns="http://www.w3.org/2000/svg" width="1080" height="1080">
<path d="M0 0 C356.4 0 712.8 0 1080 0 C1080 356.4 1080 712.8 1080 1080 C723.6 1080 367.2 1080 0 1080 C0 723.6 0 367.2 0 0 Z " fill="#0071F0" transform="translate(0,0)"/>
<path d="M0 0 C126.72 0 253.44 0 384 0 C379.90345867 4.77929822 375.819764 9.32374356 371.37675762 13.74908352 C370.4120471 14.7159742 370.4120471 14.7159742 369.42784747 15.70239803 C367.27853105 17.85535529 365.12568298 20.00474503 362.9728241 22.15415955 C361.41309703 23.71503917 359.85358797 25.27613666 358.29427797 26.83743292 C354.01362114 31.12226424 349.72985095 35.40397106 345.44555819 39.68516648 C341.29892926 43.82976633 337.1546479 47.97671137 333.01029005 52.12358198 C324.01358084 61.12555306 315.01401706 70.12466603 306.01323176 79.12256136 C298.14024563 86.993032 290.2681895 94.86443135 282.39705849 102.73675728 C281.87496331 103.25892884 281.35286814 103.7811004 280.8149519 104.31909533 C278.69566761 106.43869096 276.57638686 108.55829011 274.45711192 110.67789508 C254.58322359 130.55484149 234.70642156 150.42887193 214.82831267 170.30159743 C197.15563181 187.96952859 179.48554377 205.64004897 161.81762695 223.31274414 C141.97219126 243.16352916 122.12514788 263.01270451 102.27549058 282.85926825 C100.16161143 284.97282667 98.04773622 287.08638904 95.93386269 289.19995308 C95.41336138 289.72037531 94.89286007 290.24079754 94.356586 290.77699014 C86.48376804 298.64866885 78.61218806 306.5215841 70.7412014 314.39509392 C61.79957662 323.33957076 52.85618166 332.28227332 43.9104109 341.22260367 C39.34200737 345.78836873 34.7744262 350.35494882 30.20898628 354.92367744 C26.03737633 359.09824711 21.86350159 363.27053778 17.68773583 367.44095034 C16.17020839 368.95735225 14.65354088 370.47461525 13.1377795 371.99278247 C11.09214321 374.04141868 9.04351386 376.08701186 6.99403667 378.13180447 C6.09329248 379.03606041 6.09329248 379.03606041 5.17435142 379.95858416 C1.11415045 384 1.11415045 384 0 384 C0 257.28 0 130.56 0 0 Z " fill="#FEFEFE" transform="translate(348,347)"/>
<path d="M0 0 C4.16383444 1.63661007 6.9494751 4.67673077 10.03479004 7.79428101 C10.63566767 8.39344979 11.23654531 8.99261857 11.85563135 9.60994399 C13.87012769 11.62114322 15.87738733 13.63941288 17.88476562 15.65771484 C19.32669344 17.10020675 20.76906169 18.54225851 22.21183777 19.98390198 C26.13152512 23.90301452 30.04500607 27.82827249 33.95742607 31.7546382 C38.05060367 35.86031079 42.14943834 39.96032768 46.24768066 44.0609436 C54.01351616 51.83300094 61.77423992 59.61014194 69.5331502 67.38911211 C78.34943158 76.22769702 87.17134512 85.06065104 95.99376011 93.8931129 C111.07287797 108.98960349 126.14771842 124.09035445 141.21794128 139.19572449 C141.85366231 139.83292471 142.48938334 140.47012492 143.14436865 141.12663424 C144.31456519 142.29957893 145.48473621 143.47254907 146.65487528 144.64555109 C148.88471489 146.88070466 151.11548858 149.11249305 153.37717438 151.31551552 C155 153 155 153 155 154 C53.69 154 -47.62 154 -152 154 C-152 153.34 -152 152.68 -152 152 C-150.74286556 150.76175404 -150.74286556 150.76175404 -148.87620544 149.24311829 C-142.21899937 143.57373557 -136.15448549 137.29389942 -129.98071289 131.11010742 C-128.57251286 129.70326409 -127.16410054 128.29663323 -125.75549316 126.89019775 C-121.94996678 123.0892111 -118.14758708 119.28509139 -114.34591985 115.48024535 C-110.36406626 111.49585325 -106.37976581 107.51390913 -102.39585876 103.53157043 C-95.71384819 96.85137592 -89.03394204 90.16908252 -82.35522461 83.4855957 C-74.62712046 75.75203665 -66.89540239 68.02210467 -59.16182333 60.29402083 C-52.51952239 53.65625112 -45.87916364 47.01654317 -39.2404384 40.37519723 C-35.27606939 36.40926722 -31.31102303 32.44402077 -27.34422493 28.48052025 C-23.62128046 24.76045507 -19.90077285 21.03797011 -16.18216705 17.31356812 C-14.8143931 15.94446746 -13.44575922 14.5762253 -12.07622337 13.2088871 C-10.21358659 11.34896494 -8.35402885 9.4860192 -6.49525452 7.62223816 C-5.94721871 7.07643307 -5.3991829 6.53062799 -4.83453995 5.96828336 C-2.0742279 3.24312731 -2.0742279 3.24312731 0 0 Z " fill="#FEFEFD" transform="translate(577,577)"/>
<path d="M0 0 C356.4 0 712.8 0 1080 0 C1080 0.99 1080 1.98 1080 3 C723.6 3 367.2 3 0 3 C0 2.01 0 1.02 0 0 Z " fill="#3F97DB" transform="translate(0,1077)"/>
<path d="M0 0 C0.33 1.32 0.66 2.64 1 4 C0.01 4 -0.98 4 -2 4 C-2.103125 4.639375 -2.20625 5.27875 -2.3125 5.9375 C-2.6528125 6.9584375 -2.6528125 6.9584375 -3 8 C-4.485 8.495 -4.485 8.495 -6 9 C-8.88535357 11.46103687 -10.45712148 13.19985035 -11 17 C-10.34 16.67 -9.68 16.34 -9 16 C-8.67 15.01 -8.34 14.02 -8 13 C-6.02 13 -4.04 13 -2 13 C-1.67 13.99 -1.34 14.98 -1 16 C-4.0081819 19.0081819 -7.02001578 19.84627698 -11.1875 20.5 C-14.12747383 20.74585812 -14.12747383 20.74585812 -16 23 C-16 22.34 -16 21.68 -16 21 C-16.66 21 -17.32 21 -18 21 C-18 21.66 -18 22.32 -18 23 C-19.92550338 25.20057529 -21.33889478 26.76666875 -24.125 27.75 C-26.89545678 29.59697118 -26.79454999 31.87502208 -27.44140625 35.0234375 C-28.24637388 37.87178449 -29.63765042 39.28192758 -32 41 C-32.99 41 -33.98 41 -35 41 C-34.67 43.31 -34.34 45.62 -34 48 C-35.32 48.33 -36.64 48.66 -38 49 C-38.33 47.68 -38.66 46.36 -39 45 C-40.32 45 -41.64 45 -43 45 C-42.938125 45.886875 -42.87625 46.77375 -42.8125 47.6875 C-43.02462248 51.43499706 -43.61492838 53.12146529 -46 56 C-48.6875 56.8125 -48.6875 56.8125 -51 57 C-50.67 59.31 -50.34 61.62 -50 64 C-51.32 64.33 -52.64 64.66 -54 65 C-54.33 63.68 -54.66 62.36 -55 61 C-56.32 61 -57.64 61 -59 61 C-58.938125 61.886875 -58.87625 62.77375 -58.8125 63.6875 C-59.02462248 67.43499706 -59.61492838 69.12146529 -62 72 C-64.6875 72.8125 -64.6875 72.8125 -67 73 C-66.67 75.31 -66.34 77.62 -66 80 C-67.32 80.33 -68.64 80.66 -70 81 C-70.33 79.68 -70.66 78.36 -71 77 C-72.32 77 -73.64 77 -75 77 C-74.9071875 78.3303125 -74.9071875 78.3303125 -74.8125 79.6875 C-75.02462248 83.43499706 -75.61492838 85.12146529 -78 88 C-80.6875 88.8125 -80.6875 88.8125 -83 89 C-82.67 91.31 -82.34 93.62 -82 96 C-83.32 96.33 -84.64 96.66 -86 97 C-86.33 95.68 -86.66 94.36 -87 93 C-88.32 93 -89.64 93 -91 93 C-90.938125 93.886875 -90.87625 94.77375 -90.8125 95.6875 C-91.02462248 99.43499706 -91.61492838 101.12146529 -94 104 C-96.6875 104.8125 -96.6875 104.8125 -99 105 C-98.67 107.31 -98.34 109.62 -98 112 C-99.32 112.33 -100.64 112.66 -102 113 C-102.33 111.68 -102.66 110.36 -103 109 C-104.32 109 -105.64 109 -107 109 C-106.938125 109.886875 -106.87625 110.77375 -106.8125 111.6875 C-107.02462248 115.43499706 -107.61492838 117.12146529 -110 120 C-112.6875 120.8125 -112.6875 120.8125 -115 121 C-114.67 123.31 -114.34 125.62 -114 128 C-115.32 128.33 -116.64 128.66 -118 129 C-118.33 127.68 -118.66 126.36 -119 125 C-120.32 125 -121.64 125 -123 125 C-122.938125 125.886875 -122.87625 126.77375 -122.8125 127.6875 C-123.02462248 131.43499706 -123.61492838 133.12146529 -126 136 C-128.6875 136.8125 -128.6875 136.8125 -131 137 C-130.67 139.31 -130.34 141.62 -130 144 C-131.32 144.33 -132.64 144.66 -134 145 C-134.33 143.68 -134.66 142.36 -135 141 C-136.32 141 -137.64 141 -139 141 C-138.938125 141.886875 -138.87625 142.77375 -138.8125 143.6875 C-139.02462248 147.43499706 -139.61492838 149.12146529 -142 152 C-144.6875 152.8125 -144.6875 152.8125 -147 153 C-146.67 155.31 -146.34 157.62 -146 160 C-147.32 160.33 -148.64 160.66 -150 161 C-150.33 159.68 -150.66 158.36 -151 157 C-152.32 157 -153.64 157 -155 157 C-154.938125 157.886875 -154.87625 158.77375 -154.8125 159.6875 C-155.02462248 163.43499706 -155.61492838 165.12146529 -158 168 C-160.6875 168.8125 -160.6875 168.8125 -163 169 C-162.67 171.31 -162.34 173.62 -162 176 C-163.32 176.33 -164.64 176.66 -166 177 C-166.33 175.68 -166.66 174.36 -167 173 C-168.32 173 -169.64 173 -171 173 C-170.938125 173.886875 -170.87625 174.77375 -170.8125 175.6875 C-171.02462248 179.43499706 -171.61492838 181.12146529 -174 184 C-176.6875 184.8125 -176.6875 184.8125 -179 185 C-178.67 187.31 -178.34 189.62 -178 192 C-179.32 192.33 -180.64 192.66 -182 193 C-182.33 191.68 -182.66 190.36 -183 189 C-184.32 189 -185.64 189 -187 189 C-186.938125 189.886875 -186.87625 190.77375 -186.8125 191.6875 C-187.02462248 195.43499706 -187.61492838 197.12146529 -190 200 C-192.6875 200.8125 -192.6875 200.8125 -195 201 C-194.67 203.31 -194.34 205.62 -194 208 C-195.32 208.33 -196.64 208.66 -198 209 C-198.33 207.68 -198.66 206.36 -199 205 C-200.32 205 -201.64 205 -203 205 C-202.938125 205.886875 -202.87625 206.77375 -202.8125 207.6875 C-203.02462248 211.43499706 -203.61492838 213.12146529 -206 216 C-208.6875 216.8125 -208.6875 216.8125 -211 217 C-210.505 220.465 -210.505 220.465 -210 224 C-211.32 224.33 -212.64 224.66 -214 225 C-214.33 223.68 -214.66 222.36 -215 221 C-216.32 221 -217.64 221 -219 221 C-218.938125 221.886875 -218.87625 222.77375 -218.8125 223.6875 C-219.02462248 227.43499706 -219.61492838 229.12146529 -222 232 C-224.6875 232.8125 -224.6875 232.8125 -227 233 C-226.505 236.465 -226.505 236.465 -226 240 C-227.32 240.33 -228.64 240.66 -230 241 C-230.33 239.68 -230.66 238.36 -231 237 C-232.32 237 -233.64 237 -235 237 C-234.938125 237.886875 -234.87625 238.77375 -234.8125 239.6875 C-235.02462248 243.43499706 -235.61492838 245.12146529 -238 248 C-240.6875 248.8125 -240.6875 248.8125 -243 249 C-242.505 252.465 -242.505 252.465 -242 256 C-243.32 256.33 -244.64 256.66 -246 257 C-246.33 255.68 -246.66 254.36 -247 253 C-248.32 253 -249.64 253 -251 253 C-250.938125 253.886875 -250.87625 254.77375 -250.8125 255.6875 C-251.02462248 259.43499706 -251.61492838 261.12146529 -254 264 C-256.6875 264.8125 -256.6875 264.8125 -259 265 C-258.505 268.465 -258.505 268.465 -258 272 C-259.32 272.33 -260.64 272.66 -262 273 C-262.33 271.68 -262.66 270.36 -263 269 C-264.32 269 -265.64 269 -267 269 C-266.938125 269.886875 -266.87625 270.77375 -266.8125 271.6875 C-267.02462248 275.43499706 -267.61492838 277.12146529 -270 280 C-272.6875 280.8125 -272.6875 280.8125 -275 281 C-274.505 284.465 -274.505 284.465 -274 288 C-275.32 288.33 -276.64 288.66 -278 289 C-278.33 287.68 -278.66 286.36 -279 285 C-280.32 285 -281.64 285 -283 285 C-282.938125 285.886875 -282.87625 286.77375 -282.8125 287.6875 C-283.02462248 291.43499706 -283.61492838 293.12146529 -286 296 C-288.6875 296.8125 -288.6875 296.8125 -291 297 C-290.505 300.465 -290.505 300.465 -290 304 C-291.32 304.33 -292.64 304.66 -294 305 C-294.33 303.68 -294.66 302.36 -295 301 C-296.32 301 -297.64 301 -299 301 C-298.938125 301.886875 -298.87625 302.77375 -298.8125 303.6875 C-299.02462248 307.43499706 -299.61492838 309.12146529 -302 312 C-304.6875 312.8125 -304.6875 312.8125 -307 313 C-306.67 315.31 -306.34 317.62 -306 320 C-307.32 320.33 -308.64 320.66 -310 321 C-310.495 319.02 -310.495 319.02 -311 317 C-312.32 317 -313.64 317 -315 317 C-314.938125 317.886875 -314.87625 318.77375 -314.8125 319.6875 C-315.02462248 323.43499706 -315.61492838 325.12146529 -318 328 C-320.6875 328.8125 -320.6875 328.8125 -323 329 C-322.67 331.31 -322.34 333.62 -322 336 C-323.32 336.33 -324.64 336.66 -326 337 C-326.33 335.68 -326.66 334.36 -327 333 C-329.31 333.66 -331.62 334.32 -334 335 C-330.216857 330.4837086 -326.31516624 326.17062758 -322.13921547 322.01616764 C-321.57850583 321.45430416 -321.0177962 320.89244068 -320.44009537 320.31355104 C-318.57119658 318.44201723 -316.69876971 316.57405505 -314.82632446 314.70606995 C-313.4679982 313.34730735 -312.10989182 311.98832491 -310.75198591 310.62914222 C-307.0280691 306.90299279 -303.30104713 303.17996294 -299.57350564 299.45744002 C-295.55131227 295.43956863 -291.53201286 291.41880408 -287.51235962 287.39839172 C-280.55032612 280.4358341 -273.58646532 273.47510849 -266.62135696 266.51562691 C-256.55100431 256.45340431 -246.48341696 246.38841867 -236.41650049 236.32275843 C-220.08317083 219.99161691 -203.74761411 203.66270527 -187.41064453 187.33520508 C-171.54163026 171.47537833 -155.67366904 155.61449921 -139.80712891 139.75219727 C-139.31786772 139.26306761 -138.82860654 138.77393795 -138.32451926 138.26998619 C-133.41106235 133.35784782 -128.4976268 128.44568807 -123.58420689 123.53351268 C-82.39270083 82.35244388 -41.19759328 41.17497912 0 0 Z " fill="#086FE8" transform="translate(731,348)"/>
<path d="M0 0 C2.5625 2.25 2.5625 2.25 2.9375 5 C2.751875 6.11375 2.751875 6.11375 2.5625 7.25 C3.490625 7.146875 4.41875 7.04375 5.375 6.9375 C8.5625 7.25 8.5625 7.25 10.5 9.5625 C11.5625 12.25 11.5625 12.25 10.5625 15.25 C11.2225 15.25 11.8825 15.25 12.5625 15.25 C13.96484375 16.7109375 13.96484375 16.7109375 15.5 18.625 C17.48236617 21.08901524 18.86949655 22.45466437 21.5625 24.25 C22.8825 24.25 24.2025 24.25 25.5625 24.25 C26.625 26.625 26.625 26.625 27.5625 29.25 C27.2325 29.91 26.9025 30.57 26.5625 31.25 C27.2225 31.25 27.8825 31.25 28.5625 31.25 C29.96484375 32.7109375 29.96484375 32.7109375 31.5 34.625 C33.48236617 37.08901524 34.86949655 38.45466437 37.5625 40.25 C38.8825 40.25 40.2025 40.25 41.5625 40.25 C42.625 42.625 42.625 42.625 43.5625 45.25 C43.2325 45.91 42.9025 46.57 42.5625 47.25 C43.2225 47.25 43.8825 47.25 44.5625 47.25 C45.96484375 48.7109375 45.96484375 48.7109375 47.5 50.625 C49.48236617 53.08901524 50.86949655 54.45466437 53.5625 56.25 C54.8825 56.25 56.2025 56.25 57.5625 56.25 C58.625 58.625 58.625 58.625 59.5625 61.25 C59.2325 61.91 58.9025 62.57 58.5625 63.25 C59.2225 63.25 59.8825 63.25 60.5625 63.25 C61.96484375 64.7109375 61.96484375 64.7109375 63.5 66.625 C65.48236617 69.08901524 66.86949655 70.45466437 69.5625 72.25 C70.8825 72.25 72.2025 72.25 73.5625 72.25 C74.625 74.625 74.625 74.625 75.5625 77.25 C75.2325 77.91 74.9025 78.57 74.5625 79.25 C75.2225 79.25 75.8825 79.25 76.5625 79.25 C77.96484375 80.7109375 77.96484375 80.7109375 79.5 82.625 C81.48236617 85.08901524 82.86949655 86.45466437 85.5625 88.25 C86.8825 88.25 88.2025 88.25 89.5625 88.25 C90.625 90.625 90.625 90.625 91.5625 93.25 C91.2325 93.91 90.9025 94.57 90.5625 95.25 C91.2225 95.25 91.8825 95.25 92.5625 95.25 C93.96484375 96.7109375 93.96484375 96.7109375 95.5 98.625 C97.48236617 101.08901524 98.86949655 102.45466437 101.5625 104.25 C102.8825 104.25 104.2025 104.25 105.5625 104.25 C106.625 106.625 106.625 106.625 107.5625 109.25 C107.2325 109.91 106.9025 110.57 106.5625 111.25 C107.2225 111.25 107.8825 111.25 108.5625 111.25 C110 112.74609375 110 112.74609375 111.5625 114.6875 C113.70775044 117.40188238 113.70775044 117.40188238 116.5625 119.25 C116.5625 119.91 116.5625 120.57 116.5625 121.25 C117.201875 121.4975 117.84125 121.745 118.5 122 C120.5625 123.25 120.5625 123.25 121.19140625 125.328125 C121.31386719 125.96234375 121.43632813 126.5965625 121.5625 127.25 C114.82109682 121.71830382 108.74420912 115.55835349 102.6003418 109.38549805 C101.40082264 108.18405724 100.20107376 106.98284573 99.00111389 105.78184509 C96.42917426 103.20675735 93.85879322 100.63012765 91.28961754 98.05228233 C87.22926974 93.9783706 83.16507305 89.90831319 79.10029602 85.83882141 C70.48056068 77.20801024 61.86507466 68.57296297 53.25 59.9375 C43.93144342 50.59692236 34.6121574 41.25707938 25.28800517 31.92208701 C21.24452403 27.87361505 17.20349538 23.82271546 13.16430795 19.76995981 C10.65830873 17.25652398 8.15025987 14.74514126 5.6416378 12.2343235 C4.47570905 11.06651629 3.31064822 9.89784183 2.14650345 8.72825623 C0.56244971 7.13703001 -1.02462096 5.5488761 -2.61250305 3.96147156 C-3.50123769 3.07051631 -4.38997232 2.17956106 -5.30563831 1.26160717 C-7.27161328 -0.78729536 -7.27161328 -0.78729536 -9.4375 -1.75 C-9.64693237 -1.2158057 -9.85636475 -0.6816114 -10.07214355 -0.1312294 C-11.9739291 3.18555111 -14.58999757 5.67759411 -17.28320312 8.34967041 C-17.88786659 8.95745386 -18.49253006 9.56523731 -19.11551666 10.19143844 C-21.14518797 12.2290944 -23.18194221 14.25951844 -25.21875 16.29003906 C-26.67432518 17.74832383 -28.12947443 19.20703383 -29.58422852 20.6661377 C-33.53811377 24.62915136 -37.49831228 28.58579972 -41.45993042 32.54108143 C-45.59932445 36.67541976 -49.73384549 40.81462657 -53.86914062 44.95306396 C-60.8128101 51.90037352 -67.76068974 58.84345165 -74.7109375 65.78417969 C-82.75700245 73.81935147 -90.79582532 81.86171466 -98.83094025 89.90783525 C-105.72154753 96.80750399 -112.61602662 103.70328563 -119.51378632 110.59580398 C-123.63732766 114.71622043 -127.75948952 118.8379925 -131.87817383 122.96326447 C-135.74777091 126.83861811 -139.62218787 130.70908619 -143.50045776 134.57575989 C-144.92686802 135.99951484 -146.35155911 137.42499444 -147.77444458 138.85227203 C-149.70899537 140.79224527 -151.64953086 142.72601997 -153.59179688 144.65826416 C-154.1604673 145.23139603 -154.72913773 145.8045279 -155.31504059 146.3950274 C-159.20919958 150.25 -159.20919958 150.25 -161.4375 150.25 C-161.4375 150.91 -161.4375 151.57 -161.4375 152.25 C-60.4575 151.92 40.5225 151.59 144.5625 151.25 C143.92175346 148.172443 143.92175346 148.172443 141.75683594 147.30273438 C141.03270508 146.95533203 140.30857422 146.60792969 139.5625 146.25 C138.14853865 145.01766723 136.78155075 143.73034056 135.453125 142.40625 C134.69902344 141.65472656 133.94492187 140.90320313 133.16796875 140.12890625 C132.39066406 139.34386719 131.61335938 138.55882812 130.8125 137.75 C129.62333984 136.57244141 129.62333984 136.57244141 128.41015625 135.37109375 C127.66121094 134.61957031 126.91226562 133.86804688 126.140625 133.09375 C125.45387695 132.40474609 124.76712891 131.71574219 124.05957031 131.00585938 C122.5625 129.25 122.5625 129.25 122.5625 127.25 C123.2225 127.25 123.8825 127.25 124.5625 127.25 C126.11328125 128.859375 126.11328125 128.859375 127.875 131 C130.55883926 134.16269855 133.24554363 136.73987086 136.5625 139.25 C138.875 141.375 138.875 141.375 140.5625 143.25 C140.5625 143.91 140.5625 144.57 140.5625 145.25 C141.8825 145.91 143.2025 146.57 144.5625 147.25 C144.5625 147.91 144.5625 148.57 144.5625 149.25 C146.2125 149.91 147.8625 150.57 149.5625 151.25 C145.73436197 153.80209202 144.07311013 154.37583229 139.54307556 154.39145851 C137.94007394 154.40059523 137.94007394 154.40059523 136.30468845 154.40991652 C135.1212482 154.41157675 133.93780794 154.41323697 132.71850586 154.41494751 C131.46864112 154.42059105 130.21877638 154.4262346 128.93103695 154.43204916 C125.45054108 154.44761361 121.97005168 154.45693754 118.48953199 154.46526766 C114.74033241 154.47530718 110.99115624 154.49104319 107.24197388 154.50605774 C99.89287177 154.53455213 92.54376206 154.55764918 85.19463563 154.5788355 C79.22406002 154.59614304 73.25349353 154.61537586 67.28292847 154.63599777 C66.0103103 154.64039066 66.0103103 154.64039066 64.71198267 154.6448723 C62.98867518 154.65082913 61.26536771 154.65679034 59.54206026 154.66275589 C43.36674732 154.71851981 27.19141999 154.76817327 11.01608121 154.8157609 C-2.87569089 154.85677346 -16.76743746 154.90303405 -30.65917969 154.953125 C-46.77496822 155.01123304 -62.89076239 155.06608512 -79.0065794 155.11572587 C-80.72369577 155.12102417 -82.44081212 155.12632679 -84.15792847 155.13163376 C-85.42534798 155.13554851 -85.42534798 155.13554851 -86.71837193 155.13954235 C-92.68466129 155.15819762 -98.65093977 155.17919994 -104.61721802 155.2010994 C-111.88396318 155.22770971 -119.15070905 155.25075949 -126.41747975 155.26918437 C-130.1280441 155.27868355 -133.8385848 155.28982067 -137.54912949 155.30528831 C-141.56391985 155.32197025 -145.57868904 155.33091359 -149.59350586 155.33901978 C-151.36866624 155.34820228 -151.36866624 155.34820228 -153.17968845 155.35757029 C-154.78269007 155.35888376 -154.78269007 155.35888376 -156.41807556 155.36022377 C-157.34578734 155.36309918 -158.27349913 155.36597459 -159.22932339 155.36893713 C-161.4375 155.25 -161.4375 155.25 -163.4375 154.25 C-164.69979508 149.77459016 -164.69979508 149.77459016 -163.4375 147.25 C-162.7775 147.25 -162.1175 147.25 -161.4375 147.25 C-160.4475 145.27 -160.4475 145.27 -159.4375 143.25 C-158.1175 143.25 -156.7975 143.25 -155.4375 143.25 C-155.4375 142.59 -155.4375 141.93 -155.4375 141.25 C-154.1175 140.92 -152.7975 140.59 -151.4375 140.25 C-151.375625 139.486875 -151.31375 138.72375 -151.25 137.9375 C-150.17119058 134.36913037 -148.60073169 134.05756096 -145.4375 132.25 C-144.43181758 130.58675599 -143.43085201 128.92063747 -142.4375 127.25 C-141.4475 127.25 -140.4575 127.25 -139.4375 127.25 C-139.4375 126.59 -139.4375 125.93 -139.4375 125.25 C-137.4575 124.755 -137.4575 124.755 -135.4375 124.25 C-135.355 123.486875 -135.2725 122.72375 -135.1875 121.9375 C-134.28480645 118.70284809 -133.30156539 117.89900735 -130.4375 116.25 C-129.7775 116.25 -129.1175 116.25 -128.4375 116.25 C-127.7775 114.6 -127.1175 112.95 -126.4375 111.25 C-125.4475 111.25 -124.4575 111.25 -123.4375 111.25 C-123.4375 110.59 -123.4375 109.93 -123.4375 109.25 C-121.4575 108.755 -121.4575 108.755 -119.4375 108.25 C-119.355 107.486875 -119.2725 106.72375 -119.1875 105.9375 C-118.28480645 102.70284809 -117.30156539 101.89900735 -114.4375 100.25 C-113.7775 100.25 -113.1175 100.25 -112.4375 100.25 C-111.7775 98.6 -111.1175 96.95 -110.4375 95.25 C-109.4475 95.25 -108.4575 95.25 -107.4375 95.25 C-107.4375 94.59 -107.4375 93.93 -107.4375 93.25 C-105.4575 92.755 -105.4575 92.755 -103.4375 92.25 C-103.355 91.486875 -103.2725 90.72375 -103.1875 89.9375 C-102.28480645 86.70284809 -101.30156539 85.89900735 -98.4375 84.25 C-97.7775 84.25 -97.1175 84.25 -96.4375 84.25 C-95.7775 82.6 -95.1175 80.95 -94.4375 79.25 C-93.4475 79.25 -92.4575 79.25 -91.4375 79.25 C-91.4375 78.59 -91.4375 77.93 -91.4375 77.25 C-90.1175 76.92 -88.7975 76.59 -87.4375 76.25 C-87.355 75.486875 -87.2725 74.72375 -87.1875 73.9375 C-86.28480645 70.70284809 -85.30156539 69.89900735 -82.4375 68.25 C-81.7775 68.25 -81.1175 68.25 -80.4375 68.25 C-79.7775 66.6 -79.1175 64.95 -78.4375 63.25 C-77.4475 63.25 -76.4575 63.25 -75.4375 63.25 C-75.4375 62.59 -75.4375 61.93 -75.4375 61.25 C-74.1175 60.92 -72.7975 60.59 -71.4375 60.25 C-71.355 59.486875 -71.2725 58.72375 -71.1875 57.9375 C-70.28480645 54.70284809 -69.30156539 53.89900735 -66.4375 52.25 C-65.7775 52.25 -65.1175 52.25 -64.4375 52.25 C-63.7775 50.6 -63.1175 48.95 -62.4375 47.25 C-61.4475 47.25 -60.4575 47.25 -59.4375 47.25 C-59.4375 46.59 -59.4375 45.93 -59.4375 45.25 C-58.1175 44.92 -56.7975 44.59 -55.4375 44.25 C-55.355 43.486875 -55.2725 42.72375 -55.1875 41.9375 C-54.28480645 38.70284809 -53.30156539 37.89900735 -50.4375 36.25 C-49.7775 36.25 -49.1175 36.25 -48.4375 36.25 C-47.7775 34.6 -47.1175 32.95 -46.4375 31.25 C-45.4475 31.25 -44.4575 31.25 -43.4375 31.25 C-43.4375 30.59 -43.4375 29.93 -43.4375 29.25 C-42.1175 28.92 -40.7975 28.59 -39.4375 28.25 C-39.355 27.486875 -39.2725 26.72375 -39.1875 25.9375 C-38.28480645 22.70284809 -37.30156539 21.89900735 -34.4375 20.25 C-33.7775 20.25 -33.1175 20.25 -32.4375 20.25 C-31.4475 17.775 -31.4475 17.775 -30.4375 15.25 C-29.4475 15.25 -28.4575 15.25 -27.4375 15.25 C-27.4375 14.59 -27.4375 13.93 -27.4375 13.25 C-26.1175 12.92 -24.7975 12.59 -23.4375 12.25 C-23.355 11.486875 -23.2725 10.72375 -23.1875 9.9375 C-22.28480645 6.70284809 -21.30156539 5.89900735 -18.4375 4.25 C-17.7775 4.25 -17.1175 4.25 -16.4375 4.25 C-16.4375 2.6 -16.4375 0.95 -16.4375 -0.75 C-10.25580783 -3.31314065 -5.96274989 -3.03558176 0 0 Z " fill="#2470CA" transform="translate(586.4375,578.75)"/>
<path d="M0 0 C126.72 0 253.44 0 384 0 C382.02 2.31 380.04 4.62 378 7 C377.34 6.34 376.68 5.68 376 5 C376 4.34 376 3.68 376 3 C252.58 2.67 129.16 2.34 2 2 C2 126.08 2 250.16 2 378 C4.64 375.69 7.28 373.38 10 371 C10.99 371.33 11.98 371.66 13 372 C11.0238076 374.00301854 9.04425526 376.00249867 7.0625 378 C6.49853516 378.57234375 5.93457031 379.1446875 5.35351562 379.734375 C3.92121224 381.17525505 2.46258871 382.58987143 1 384 C0.67 384 0.34 384 0 384 C0 257.28 0 130.56 0 0 Z " fill="#E4FEFE" transform="translate(348,347)"/>
<path d="M0 0 C127.05 0 254.1 0 385 0 C385 0.33 385 0.66 385 1 C258.61 1 132.22 1 2 1 C2.33 127.39 2.66 253.78 3 384 C10.425 376.575 10.425 376.575 18 369 C18.33 369.66 18.66 370.32 19 371 C18.525625 371.433125 18.05125 371.86625 17.5625 372.3125 C15.76313043 374.02309613 15.76313043 374.02309613 15 377 C9.91891892 381.54054054 9.91891892 381.54054054 7 383 C6.34786708 385.02463255 6.34786708 385.02463255 6 387 C6.66 387.33 7.32 387.66 8 388 C5.69 387.67 3.38 387.34 1 387 C-0.88945489 382.99584865 -1.24493174 379.82867283 -1.23047829 375.41892529 C-1.23109678 374.76796113 -1.23171528 374.11699698 -1.23235252 373.44630663 C-1.23196888 371.26291834 -1.21721824 369.07986573 -1.20254517 366.89653015 C-1.19929971 365.32035981 -1.19693905 363.74418744 -1.19538879 362.16801453 C-1.18854262 357.82565145 -1.16908203 353.48342108 -1.1476467 349.14110886 C-1.12643339 344.39077032 -1.11692611 339.64040589 -1.10594749 334.89003468 C-1.08286889 325.66480971 -1.04941521 316.43965128 -1.01235827 307.21447303 C-0.96994934 296.5458733 -0.9404083 285.87726363 -0.91088867 275.20861816 C-0.82656123 247.03487714 -0.72470323 218.8611908 -0.625 190.6875 C-0.41875 127.760625 -0.2125 64.83375 0 0 Z " fill="#1D6DC2" transform="translate(346,346)"/>
<path d="M0 0 C0.33 0.66 0.66 1.32 1 2 C0.05988318 3.70116376 -0.94895617 5.36504293 -2 7 C-3.87531423 10.15842397 -4.20397147 12.32851355 -4 16 C-6.89234315 16.82638376 -8.88742431 17 -12 17 C-11.01 18.32 -10.02 19.64 -9 21 C-9.99 21 -10.98 21 -12 21 C-12.33 21.66 -12.66 22.32 -13 23 C-13 22.34 -13 21.68 -13 21 C-16.72614153 22.11854586 -16.72614153 22.11854586 -19 25 C76.37 25 171.74 25 270 25 C270 23.68 270 22.36 270 21 C269.34 21 268.68 21 268 21 C268 19.35 268 17.7 268 16 C272.17967178 19.50514261 276.25510763 23.02814445 280 27 C280 27.33 280 27.66 280 28 C178.69 28 77.38 28 -27 28 C-27 27.34 -27 26.68 -27 26 C-25.6015625 24.62280273 -25.6015625 24.62280273 -23.625 22.99609375 C-18.47566603 18.61757057 -13.75318068 13.86313947 -9 9.0625 C-8.12988281 8.18787109 -7.25976562 7.31324219 -6.36328125 6.41210938 C-4.23986451 4.27702551 -2.11883622 2.13962795 0 0 Z " fill="#E2FFFF" transform="translate(452,703)"/>
<path d="M0 0 C126.72 0 253.44 0 384 0 C382.515 1.485 382.515 1.485 381 3 C380.67 2.67 380.34 2.34 380 2 C377.98808763 1.89712602 375.9725041 1.86598731 373.95796871 1.8613348 C373.31668652 1.85849206 372.67540432 1.85564932 372.01468933 1.85272044 C369.8402602 1.84431858 367.66588398 1.84310007 365.49143982 1.84178162 C363.93106966 1.83722871 362.37070073 1.83223785 360.81033325 1.82684326 C356.49319023 1.81320311 352.17605505 1.80584386 347.85889606 1.79942851 C343.14295414 1.79132108 338.42702869 1.77744133 333.71109867 1.76427555 C324.5445028 1.73955765 315.37790304 1.71998989 306.21129141 1.70219031 C295.61484779 1.68139423 285.01842682 1.65424512 274.42199707 1.6270752 C246.4271775 1.55845313 218.43233719 1.4985123 190.4375 1.4375 C127.923125 1.293125 65.40875 1.14875 1 1 C1 126.07 1 251.14 1 380 C2.32 379.67 3.64 379.34 5 379 C3.35 380.65 1.7 382.3 0 384 C0 257.28 0 130.56 0 0 Z " fill="#AADEFE" transform="translate(348,347)"/>
<path d="M0 0 C-1 1 -1 1 -3.57359368 1.1241985 C-4.73363928 1.12381878 -5.89368489 1.12343906 -7.0888834 1.12304783 C-7.73499599 1.12420167 -8.38110858 1.12535552 -9.04680035 1.12654433 C-11.23870925 1.12921728 -13.43054651 1.12468331 -15.62245178 1.12025452 C-17.19898875 1.12069008 -18.77552565 1.12156471 -20.35206217 1.12284368 C-24.70521317 1.12509156 -29.05833981 1.12106338 -33.4114877 1.11606562 C-38.09794881 1.11176548 -42.78440844 1.11320723 -47.47087097 1.1139679 C-55.59744151 1.11449341 -63.72400406 1.11134376 -71.85057259 1.10573006 C-83.60036938 1.09761875 -95.35016228 1.09500022 -107.09996157 1.09374207 C-126.16112567 1.09155096 -145.22228549 1.0848893 -164.28344727 1.07543945 C-182.8046059 1.06626684 -201.32576338 1.05918527 -219.84692383 1.05493164 C-220.98769342 1.05466892 -222.128463 1.05440619 -223.30380137 1.05413551 C-229.02644594 1.05283051 -234.74909053 1.0515668 -240.47173512 1.05032361 C-287.9811597 1.03994918 -335.49057964 1.02232929 -383 1 C-383 0.34 -383 -0.32 -383 -1 C-334.78576309 -1.17320076 -286.57150068 -1.33585892 -238.35718088 -1.48431293 C-232.66927269 -1.50183531 -226.98136478 -1.51944528 -221.29345703 -1.53710938 C-220.16106327 -1.54062461 -219.02866952 -1.54413985 -217.8619608 -1.5477616 C-199.50940623 -1.60494158 -181.15688301 -1.66922182 -162.80436155 -1.736111 C-143.98287609 -1.80455193 -125.16137721 -1.86539756 -106.33984399 -1.91914403 C-94.71936121 -1.95256815 -83.09892986 -1.99196656 -71.47849378 -2.03892837 C-63.5175615 -2.07053433 -55.55662834 -2.09478455 -47.59565464 -2.11317255 C-42.99776612 -2.12401225 -38.39994882 -2.13816955 -33.80210304 -2.16103554 C-29.59648866 -2.18187954 -25.3909548 -2.19353031 -21.1852918 -2.19772999 C-19.66032026 -2.20090059 -18.13535138 -2.20750556 -16.61041138 -2.21781154 C-14.54389395 -2.2312856 -12.47772662 -2.23246406 -10.41117477 -2.23047829 C-9.26138161 -2.23427549 -8.11158845 -2.23807269 -6.92695308 -2.24198496 C-4.0682826 -2.00564524 -2.41746422 -1.48980089 0 0 Z " fill="#126CE9" transform="translate(732,345)"/>
<path d="M0 0 C2.5625 2.25 2.5625 2.25 2.9375 5 C2.81375 5.7425 2.69 6.485 2.5625 7.25 C3.490625 7.146875 4.41875 7.04375 5.375 6.9375 C8.5625 7.25 8.5625 7.25 10.5 9.5625 C11.5625 12.25 11.5625 12.25 10.5625 15.25 C11.2225 15.25 11.8825 15.25 12.5625 15.25 C13.96484375 16.7109375 13.96484375 16.7109375 15.5 18.625 C17.48236617 21.08901524 18.86949655 22.45466437 21.5625 24.25 C22.8825 24.25 24.2025 24.25 25.5625 24.25 C26.625 26.625 26.625 26.625 27.5625 29.25 C27.0675 30.24 27.0675 30.24 26.5625 31.25 C27.2225 31.25 27.8825 31.25 28.5625 31.25 C29.96484375 32.7109375 29.96484375 32.7109375 31.5 34.625 C33.48236617 37.08901524 34.86949655 38.45466437 37.5625 40.25 C38.8825 40.25 40.2025 40.25 41.5625 40.25 C42.625 42.625 42.625 42.625 43.5625 45.25 C43.0675 46.24 43.0675 46.24 42.5625 47.25 C43.2225 47.25 43.8825 47.25 44.5625 47.25 C45.96484375 48.7109375 45.96484375 48.7109375 47.5 50.625 C49.48236617 53.08901524 50.86949655 54.45466437 53.5625 56.25 C54.8825 56.25 56.2025 56.25 57.5625 56.25 C58.625 58.625 58.625 58.625 59.5625 61.25 C59.2325 61.91 58.9025 62.57 58.5625 63.25 C59.2225 63.25 59.8825 63.25 60.5625 63.25 C61.96484375 64.7109375 61.96484375 64.7109375 63.5 66.625 C65.48236617 69.08901524 66.86949655 70.45466437 69.5625 72.25 C70.8825 72.25 72.2025 72.25 73.5625 72.25 C74.625 74.625 74.625 74.625 75.5625 77.25 C75.2325 77.91 74.9025 78.57 74.5625 79.25 C75.2225 79.25 75.8825 79.25 76.5625 79.25 C77.96484375 80.7109375 77.96484375 80.7109375 79.5 82.625 C81.48236617 85.08901524 82.86949655 86.45466437 85.5625 88.25 C86.8825 88.25 88.2025 88.25 89.5625 88.25 C90.625 90.625 90.625 90.625 91.5625 93.25 C91.2325 93.91 90.9025 94.57 90.5625 95.25 C91.2225 95.25 91.8825 95.25 92.5625 95.25 C93.96484375 96.7109375 93.96484375 96.7109375 95.5 98.625 C97.48236617 101.08901524 98.86949655 102.45466437 101.5625 104.25 C102.8825 104.25 104.2025 104.25 105.5625 104.25 C106.625 106.625 106.625 106.625 107.5625 109.25 C107.2325 109.91 106.9025 110.57 106.5625 111.25 C107.2225 111.25 107.8825 111.25 108.5625 111.25 C110 112.74609375 110 112.74609375 111.5625 114.6875 C113.70775044 117.40188238 113.70775044 117.40188238 116.5625 119.25 C116.5625 119.91 116.5625 120.57 116.5625 121.25 C117.5215625 121.62125 117.5215625 121.62125 118.5 122 C120.5625 123.25 120.5625 123.25 121.19140625 125.328125 C121.37509766 126.27945313 121.37509766 126.27945313 121.5625 127.25 C114.82109682 121.71830382 108.74420912 115.55835349 102.6003418 109.38549805 C101.40082264 108.18405724 100.20107376 106.98284573 99.00111389 105.78184509 C96.42917426 103.20675735 93.85879322 100.63012765 91.28961754 98.05228233 C87.22926974 93.9783706 83.16507305 89.90831319 79.10029602 85.83882141 C70.48056068 77.20801024 61.86507466 68.57296297 53.25 59.9375 C43.93144342 50.59692236 34.6121574 41.25707938 25.28800517 31.92208701 C21.24452403 27.87361505 17.20349538 23.82271546 13.16430795 19.76995981 C10.65830873 17.25652398 8.15025987 14.74514126 5.6416378 12.2343235 C4.47570905 11.06651629 3.31064822 9.89784183 2.14650345 8.72825623 C0.56244971 7.13703001 -1.02462096 5.5488761 -2.61250305 3.96147156 C-3.50123769 3.07051631 -4.38997232 2.17956106 -5.30563831 1.26160717 C-7.27161328 -0.78729536 -7.27161328 -0.78729536 -9.4375 -1.75 C-10.0975 -0.43 -10.7575 0.89 -11.4375 2.25 C-13.0875 1.92 -14.7375 1.59 -16.4375 1.25 C-16.1075 0.26 -15.7775 -0.73 -15.4375 -1.75 C-9.7446392 -3.3025984 -5.24522243 -2.67029506 0 0 Z " fill="#136DD6" transform="translate(586.4375,578.75)"/>
<path d="M0 0 C3.78496138 1.51398455 4.0072198 2.0144396 6 6 C-95.31 6 -196.62 6 -301 6 C-301 5.34 -301 4.68 -301 4 C-201.34 4.33 -101.68 4.66 1 5 C0.67 3.35 0.34 1.7 0 0 Z " fill="#A7D9FE" transform="translate(726,725)"/>
<path d="M0 0 C5.875 4.25 5.875 4.25 7 11 C-85.07 10.67 -177.14 10.34 -272 10 C-272 9.67 -272 9.34 -272 9 C-181.58 9 -91.16 9 2 9 C2 7.68 2 6.36 2 5 C1.34 5 0.68 5 0 5 C0 3.35 0 1.7 0 0 Z " fill="#EDFEF5" transform="translate(720,719)"/>
<path d="M0 0 C0.33 0.66 0.66 1.32 1 2 C0.05988318 3.70116376 -0.94895617 5.36504293 -2 7 C-3.87531423 10.15842397 -4.20397147 12.32851355 -4 16 C-6.89234315 16.82638376 -8.88742431 17 -12 17 C-11.01 18.32 -10.02 19.64 -9 21 C-9.99 21 -10.98 21 -12 21 C-12.33 21.66 -12.66 22.32 -13 23 C-13 22.34 -13 21.68 -13 21 C-16.72614153 22.11854586 -16.72614153 22.11854586 -19 25 C-17.35 25.33 -15.7 25.66 -14 26 C-14 26.33 -14 26.66 -14 27 C-17.63 27 -21.26 27 -25 27 C-23.03838569 23.07677137 -20.84267796 20.58307142 -17.7734375 17.578125 C-17.26575836 17.07327576 -16.75807922 16.56842651 -16.23501587 16.04827881 C-14.61966158 14.44407904 -12.99747791 12.84699144 -11.375 11.25 C-10.27558302 10.16061893 -9.17661941 9.0707801 -8.078125 7.98046875 C-5.3906398 5.31498115 -2.69700979 2.65584857 0 0 Z " fill="#F2F9F5" transform="translate(452,703)"/>
<path d="M0 0 C0.33 0.66 0.66 1.32 1 2 C0.525625 2.433125 0.05125 2.86625 -0.4375 3.3125 C-2.23686957 5.02309613 -2.23686957 5.02309613 -3 8 C-4.94135256 10.20912532 -6.32623775 11.76220156 -9.125 12.75 C-11.89545678 14.59697118 -11.79454999 16.87502208 -12.44140625 20.0234375 C-13.24637388 22.87178449 -14.63765042 24.28192758 -17 26 C-17.99 26 -18.98 26 -20 26 C-20.33 26.99 -20.66 27.98 -21 29 C-22.1446875 28.9071875 -22.1446875 28.9071875 -23.3125 28.8125 C-26.04525312 28.74101915 -26.04525312 28.74101915 -27.8125 30.5 C-28.204375 30.995 -28.59625 31.49 -29 32 C-29.66 31.67 -30.32 31.34 -31 31 C-20.77 20.77 -10.54 10.54 0 0 Z " fill="#096FE8" transform="translate(396,683)"/>
<path d="M0 0 C1 2 1 2 0.3125 4.875 C-1 8 -1 8 -3.1875 10.125 C-3.785625 10.74375 -4.38375 11.3625 -5 12 C-4.86358623 14.21858253 -4.86358623 14.21858253 -4 16 C-5.32 16 -6.64 16 -8 16 C-8.33 15.34 -8.66 14.68 -9 14 C-9.99 15.485 -9.99 15.485 -11 17 C-13.625 17.6875 -13.625 17.6875 -16 18 C-16.33 18.99 -16.66 19.98 -17 21 C-19.0625 22.6875 -19.0625 22.6875 -21 24 C-21.66 23.67 -22.32 23.34 -23 23 C-15.41 15.41 -7.82 7.82 0 0 Z " fill="#E5F6F8" transform="translate(572,583)"/>
<path d="M0 0 C7.15801225 5.82628904 13.52591766 12.4382985 20 19 C19.34 19.33 18.68 19.66 18 20 C17.01 19.67 16.02 19.34 15 19 C15 18.34 15 17.68 15 17 C13.68 16.67 12.36 16.34 11 16 C10.67 14.35 10.34 12.7 10 11 C7.69 10.67 5.38 10.34 3 10 C2.01 6.7 1.02 3.4 0 0 Z " fill="#C3E9FB" transform="translate(694,693)"/>
<path d="M0 0 C0.99 0.33 1.98 0.66 3 1 C-2.61 6.61 -8.22 12.22 -14 18 C-15 14 -15 14 -13.3125 11 C-9.33440514 5.8392283 -9.33440514 5.8392283 -7 4 C-4.25 3.75 -4.25 3.75 -2 4 C-1.34 2.68 -0.68 1.36 0 0 Z " fill="#DBF8FD" transform="translate(722,354)"/>
<path d="M0 0 C-0.48717949 6.33333333 -0.48717949 6.33333333 -2.875 9.4375 C-5 11 -5 11 -8 11 C-7.67 13.31 -7.34 15.62 -7 18 C-8.32 18.33 -9.64 18.66 -11 19 C-11.1546875 18.0409375 -11.1546875 18.0409375 -11.3125 17.0625 C-11.539375 16.381875 -11.76625 15.70125 -12 15 C-12.99 14.67 -13.98 14.34 -15 14 C-14.38125 13.731875 -13.7625 13.46375 -13.125 13.1875 C-10.7004767 12.04443152 -10.7004767 12.04443152 -9 9 C-8.34 9 -7.68 9 -7 9 C-6.67 7.68 -6.34 6.36 -6 5 C-5.34 5 -4.68 5 -4 5 C-3.87625 4.360625 -3.7525 3.72125 -3.625 3.0625 C-3.41875 2.381875 -3.2125 1.70125 -3 1 C-1 0 -1 0 0 0 Z " fill="#096FE8" transform="translate(400,682)"/>
<path d="M0 0 C0.99 0.33 1.98 0.66 3 1 C-1.95 5.95 -6.9 10.9 -12 16 C-13 12 -13 12 -11.3125 9 C-7.33440514 3.8392283 -7.33440514 3.8392283 -5 2 C-2.25 1.75 -2.25 1.75 0 2 C0 1.34 0 0.68 0 0 Z " fill="#E1F9FE" transform="translate(384,692)"/>
<path d="M0 0 C0.99 0.33 1.98 0.66 3 1 C-1.95 5.95 -6.9 10.9 -12 16 C-13 12 -13 12 -11.3125 9 C-7.33440514 3.8392283 -7.33440514 3.8392283 -5 2 C-2.25 1.75 -2.25 1.75 0 2 C0 1.34 0 0.68 0 0 Z " fill="#E1F9FE" transform="translate(400,676)"/>
<path d="M0 0 C0.99 0.33 1.98 0.66 3 1 C-1.95 5.95 -6.9 10.9 -12 16 C-13 12 -13 12 -11.3125 9 C-7.33440514 3.8392283 -7.33440514 3.8392283 -5 2 C-2.25 1.75 -2.25 1.75 0 2 C0 1.34 0 0.68 0 0 Z " fill="#E1F9FE" transform="translate(416,660)"/>
<path d="M0 0 C0.99 0.33 1.98 0.66 3 1 C-1.95 5.95 -6.9 10.9 -12 16 C-13 12 -13 12 -11.3125 9 C-7.33440514 3.8392283 -7.33440514 3.8392283 -5 2 C-2.25 1.75 -2.25 1.75 0 2 C0 1.34 0 0.68 0 0 Z " fill="#E1F9FE" transform="translate(432,644)"/>
<path d="M0 0 C0.99 0.33 1.98 0.66 3 1 C-1.95 5.95 -6.9 10.9 -12 16 C-13 12 -13 12 -11.3125 9 C-7.33440514 3.8392283 -7.33440514 3.8392283 -5 2 C-2.25 1.75 -2.25 1.75 0 2 C0 1.34 0 0.68 0 0 Z " fill="#E1F9FE" transform="translate(448,628)"/>
<path d="M0 0 C0.99 0.33 1.98 0.66 3 1 C-1.95 5.95 -6.9 10.9 -12 16 C-13 12 -13 12 -11.3125 9 C-7.33440514 3.8392283 -7.33440514 3.8392283 -5 2 C-2.25 1.75 -2.25 1.75 0 2 C0 1.34 0 0.68 0 0 Z " fill="#E1F9FE" transform="translate(464,612)"/>
<path d="M0 0 C0.99 0.33 1.98 0.66 3 1 C-1.95 5.95 -6.9 10.9 -12 16 C-13 12 -13 12 -11.3125 9 C-7.33440514 3.8392283 -7.33440514 3.8392283 -5 2 C-2.25 1.75 -2.25 1.75 0 2 C0 1.34 0 0.68 0 0 Z " fill="#E1F9FE" transform="translate(480,596)"/>
<path d="M0 0 C0.99 0.33 1.98 0.66 3 1 C-1.95 5.95 -6.9 10.9 -12 16 C-13 12 -13 12 -11.3125 9 C-7.33440514 3.8392283 -7.33440514 3.8392283 -5 2 C-2.25 1.75 -2.25 1.75 0 2 C0 1.34 0 0.68 0 0 Z " fill="#E1F9FE" transform="translate(496,580)"/>
<path d="M0 0 C0.99 0.33 1.98 0.66 3 1 C-1.95 5.95 -6.9 10.9 -12 16 C-13 12 -13 12 -11.3125 9 C-7.33440514 3.8392283 -7.33440514 3.8392283 -5 2 C-2.25 1.75 -2.25 1.75 0 2 C0 1.34 0 0.68 0 0 Z " fill="#E1F9FE" transform="translate(512,564)"/>
<path d="M0 0 C0.99 0.33 1.98 0.66 3 1 C-1.95 5.95 -6.9 10.9 -12 16 C-13 12 -13 12 -11.3125 9 C-7.33440514 3.8392283 -7.33440514 3.8392283 -5 2 C-2.25 1.75 -2.25 1.75 0 2 C0 1.34 0 0.68 0 0 Z " fill="#E1F9FE" transform="translate(528,548)"/>
<path d="M0 0 C0.99 0.33 1.98 0.66 3 1 C-1.95 5.95 -6.9 10.9 -12 16 C-13 12 -13 12 -11.3125 9 C-7.33440514 3.8392283 -7.33440514 3.8392283 -5 2 C-2.25 1.75 -2.25 1.75 0 2 C0 1.34 0 0.68 0 0 Z " fill="#E1F9FE" transform="translate(544,532)"/>
<path d="M0 0 C0.99 0.33 1.98 0.66 3 1 C-1.95 5.95 -6.9 10.9 -12 16 C-13 12 -13 12 -11.3125 9 C-7.33440514 3.8392283 -7.33440514 3.8392283 -5 2 C-2.25 1.75 -2.25 1.75 0 2 C0 1.34 0 0.68 0 0 Z " fill="#E1F9FE" transform="translate(560,516)"/>
<path d="M0 0 C0.99 0.33 1.98 0.66 3 1 C-1.95 5.95 -6.9 10.9 -12 16 C-13 12 -13 12 -11.3125 9 C-7.33440514 3.8392283 -7.33440514 3.8392283 -5 2 C-2.25 1.75 -2.25 1.75 0 2 C0 1.34 0 0.68 0 0 Z " fill="#E1F9FE" transform="translate(576,500)"/>
<path d="M0 0 C0.99 0.33 1.98 0.66 3 1 C-1.95 5.95 -6.9 10.9 -12 16 C-13 12 -13 12 -11.3125 9 C-7.33440514 3.8392283 -7.33440514 3.8392283 -5 2 C-2.25 1.75 -2.25 1.75 0 2 C0 1.34 0 0.68 0 0 Z " fill="#E1F9FE" transform="translate(592,484)"/>
<path d="M0 0 C0.99 0.33 1.98 0.66 3 1 C-1.95 5.95 -6.9 10.9 -12 16 C-13 12 -13 12 -11.3125 9 C-7.33440514 3.8392283 -7.33440514 3.8392283 -5 2 C-2.25 1.75 -2.25 1.75 0 2 C0 1.34 0 0.68 0 0 Z " fill="#E1F9FE" transform="translate(608,468)"/>
<path d="M0 0 C0.99 0.33 1.98 0.66 3 1 C-1.95 5.95 -6.9 10.9 -12 16 C-13 12 -13 12 -11.3125 9 C-7.33440514 3.8392283 -7.33440514 3.8392283 -5 2 C-2.25 1.75 -2.25 1.75 0 2 C0 1.34 0 0.68 0 0 Z " fill="#E1F9FE" transform="translate(624,452)"/>
<path d="M0 0 C0.99 0.33 1.98 0.66 3 1 C-1.95 5.95 -6.9 10.9 -12 16 C-13 12 -13 12 -11.3125 9 C-7.33440514 3.8392283 -7.33440514 3.8392283 -5 2 C-2.25 1.75 -2.25 1.75 0 2 C0 1.34 0 0.68 0 0 Z " fill="#E1F9FE" transform="translate(640,436)"/>
<path d="M0 0 C0.99 0.33 1.98 0.66 3 1 C-1.95 5.95 -6.9 10.9 -12 16 C-13 12 -13 12 -11.3125 9 C-7.33440514 3.8392283 -7.33440514 3.8392283 -5 2 C-2.25 1.75 -2.25 1.75 0 2 C0 1.34 0 0.68 0 0 Z " fill="#E1F9FE" transform="translate(656,420)"/>
<path d="M0 0 C0.99 0.33 1.98 0.66 3 1 C-1.95 5.95 -6.9 10.9 -12 16 C-13 12 -13 12 -11.3125 9 C-7.33440514 3.8392283 -7.33440514 3.8392283 -5 2 C-2.25 1.75 -2.25 1.75 0 2 C0 1.34 0 0.68 0 0 Z " fill="#E1F9FE" transform="translate(672,404)"/>
<path d="M0 0 C0.99 0.33 1.98 0.66 3 1 C-1.95 5.95 -6.9 10.9 -12 16 C-13 12 -13 12 -11.3125 9 C-7.33440514 3.8392283 -7.33440514 3.8392283 -5 2 C-2.25 1.75 -2.25 1.75 0 2 C0 1.34 0 0.68 0 0 Z " fill="#E1F9FE" transform="translate(688,388)"/>
<path d="M0 0 C0.99 0.33 1.98 0.66 3 1 C-1.95 5.95 -6.9 10.9 -12 16 C-13 12 -13 12 -11.3125 9 C-7.33440514 3.8392283 -7.33440514 3.8392283 -5 2 C-2.25 1.75 -2.25 1.75 0 2 C0 1.34 0 0.68 0 0 Z " fill="#E1F9FE" transform="translate(704,372)"/>
<path d="M0 0 C5.64426769 4.68354127 11.0058046 9.6207646 16 15 C16 15.33 16 15.66 16 16 C14.35 16 12.7 16 11 16 C10.67 14.35 10.34 12.7 10 11 C7.69 10.67 5.38 10.34 3 10 C2.01 6.7 1.02 3.4 0 0 Z " fill="#D3F0F7" transform="translate(678,677)"/>
<path d="M0 0 C5.64426769 4.68354127 11.0058046 9.6207646 16 15 C16 15.33 16 15.66 16 16 C14.35 16 12.7 16 11 16 C10.67 14.35 10.34 12.7 10 11 C7.69 10.67 5.38 10.34 3 10 C2.01 6.7 1.02 3.4 0 0 Z " fill="#D3F0F7" transform="translate(662,661)"/>
<path d="M0 0 C5.64426769 4.68354127 11.0058046 9.6207646 16 15 C16 15.33 16 15.66 16 16 C14.35 16 12.7 16 11 16 C10.67 14.35 10.34 12.7 10 11 C7.69 10.67 5.38 10.34 3 10 C2.01 6.7 1.02 3.4 0 0 Z " fill="#D3F0F7" transform="translate(646,645)"/>
<path d="M0 0 C5.64426769 4.68354127 11.0058046 9.6207646 16 15 C16 15.33 16 15.66 16 16 C14.35 16 12.7 16 11 16 C10.67 14.35 10.34 12.7 10 11 C7.69 10.67 5.38 10.34 3 10 C2.01 6.7 1.02 3.4 0 0 Z " fill="#D3F0F7" transform="translate(630,629)"/>
<path d="M0 0 C5.64426769 4.68354127 11.0058046 9.6207646 16 15 C16 15.33 16 15.66 16 16 C14.35 16 12.7 16 11 16 C10.67 14.35 10.34 12.7 10 11 C7.69 10.67 5.38 10.34 3 10 C2.01 6.7 1.02 3.4 0 0 Z " fill="#D3F0F7" transform="translate(614,613)"/>
<path d="M0 0 C5.64426769 4.68354127 11.0058046 9.6207646 16 15 C16 15.33 16 15.66 16 16 C14.35 16 12.7 16 11 16 C10.67 14.35 10.34 12.7 10 11 C7.69 10.67 5.38 10.34 3 10 C2.01 6.7 1.02 3.4 0 0 Z " fill="#D3F0F7" transform="translate(598,597)"/>
<path d="M0 0 C0.66 0 1.32 0 2 0 C3.55078125 1.609375 3.55078125 1.609375 5.3125 3.75 C7.99633926 6.91269855 10.68304363 9.48987086 14 12 C16.3125 14.125 16.3125 14.125 18 16 C18 16.66 18 17.32 18 18 C18.66 18 19.32 18 20 18 C19.67 18.99 19.34 19.98 19 21 C15.82530062 17.88307091 12.66164608 14.75516454 9.5 11.625 C8.59378906 10.73554687 7.68757812 9.84609375 6.75390625 8.9296875 C5.46806641 7.65351562 5.46806641 7.65351562 4.15625 6.3515625 C3.36025391 5.56604004 2.56425781 4.78051758 1.74414062 3.97119141 C0 2 0 2 0 0 Z " fill="#1F6AC5" transform="translate(709,706)"/>
<path d="M0 0 C1.32 0 2.64 0 4 0 C4 0.99 4 1.98 4 3 C4.99 3 5.98 3 7 3 C6.67 4.65 6.34 6.3 6 8 C5.01 8.33 4.02 8.66 3 9 C1.29115995 7.37660195 -0.37446717 5.70680947 -2 4 C-2 3.34 -2 2.68 -2 2 C-1.34 2 -0.68 2 0 2 C0 1.34 0 0.68 0 0 Z " fill="#0675E8" transform="translate(601,592)"/>
<path d="M0 0 C0.33 0.66 0.66 1.32 1 2 C-0.21958756 4.67371119 -1.18298261 6.75412136 -3 9 C-5.75 9.9375 -5.75 9.9375 -8 10 C-8.33 10.99 -8.66 11.98 -9 13 C-11.0625 14.6875 -11.0625 14.6875 -13 16 C-13.66 15.67 -14.32 15.34 -15 15 C-10.05 10.05 -5.1 5.1 0 0 Z " fill="#D0F1FD" transform="translate(468,687)"/>
<path d="M0 0 C0.33 0.66 0.66 1.32 1 2 C-0.21958756 4.67371119 -1.18298261 6.75412136 -3 9 C-5.75 9.9375 -5.75 9.9375 -8 10 C-8.33 10.99 -8.66 11.98 -9 13 C-11.0625 14.6875 -11.0625 14.6875 -13 16 C-13.66 15.67 -14.32 15.34 -15 15 C-10.05 10.05 -5.1 5.1 0 0 Z " fill="#D0F1FD" transform="translate(484,671)"/>
<path d="M0 0 C0.33 0.66 0.66 1.32 1 2 C-0.21958756 4.67371119 -1.18298261 6.75412136 -3 9 C-5.75 9.9375 -5.75 9.9375 -8 10 C-8.33 10.99 -8.66 11.98 -9 13 C-11.0625 14.6875 -11.0625 14.6875 -13 16 C-13.66 15.67 -14.32 15.34 -15 15 C-10.05 10.05 -5.1 5.1 0 0 Z " fill="#D0F1FD" transform="translate(500,655)"/>
<path d="M0 0 C0.33 0.66 0.66 1.32 1 2 C-0.21958756 4.67371119 -1.18298261 6.75412136 -3 9 C-5.75 9.9375 -5.75 9.9375 -8 10 C-8.33 10.99 -8.66 11.98 -9 13 C-11.0625 14.6875 -11.0625 14.6875 -13 16 C-13.66 15.67 -14.32 15.34 -15 15 C-10.05 10.05 -5.1 5.1 0 0 Z " fill="#D0F1FD" transform="translate(516,639)"/>
<path d="M0 0 C0.33 0.66 0.66 1.32 1 2 C-0.21958756 4.67371119 -1.18298261 6.75412136 -3 9 C-5.75 9.9375 -5.75 9.9375 -8 10 C-8.33 10.99 -8.66 11.98 -9 13 C-11.0625 14.6875 -11.0625 14.6875 -13 16 C-13.66 15.67 -14.32 15.34 -15 15 C-10.05 10.05 -5.1 5.1 0 0 Z " fill="#D0F1FD" transform="translate(532,623)"/>
<path d="M0 0 C0.33 0.66 0.66 1.32 1 2 C-0.21958756 4.67371119 -1.18298261 6.75412136 -3 9 C-5.75 9.9375 -5.75 9.9375 -8 10 C-8.33 10.99 -8.66 11.98 -9 13 C-11.0625 14.6875 -11.0625 14.6875 -13 16 C-13.66 15.67 -14.32 15.34 -15 15 C-10.05 10.05 -5.1 5.1 0 0 Z " fill="#D0F1FD" transform="translate(548,607)"/>
<path d="M0 0 C0.33 0.66 0.66 1.32 1 2 C-0.21958756 4.67371119 -1.18298261 6.75412136 -3 9 C-5.75 9.9375 -5.75 9.9375 -8 10 C-8.33 10.99 -8.66 11.98 -9 13 C-11.0625 14.6875 -11.0625 14.6875 -13 16 C-13.66 15.67 -14.32 15.34 -15 15 C-10.05 10.05 -5.1 5.1 0 0 Z " fill="#D0F1FD" transform="translate(564,591)"/>
<path d="M0 0 C0 3.69418201 -1.28179295 5.77836178 -3 9 C-1.35 9.33 0.3 9.66 2 10 C2 10.33 2 10.66 2 11 C-1.63 11 -5.26 11 -9 11 C-7.25323081 7.50646162 -6.08594785 5.86054237 -3.375 3.25 C-2.74335938 2.63640625 -2.11171875 2.0228125 -1.4609375 1.390625 C-0.73777344 0.70226562 -0.73777344 0.70226562 0 0 Z " fill="#D9F7FE" transform="translate(436,719)"/>
<path d="M0 0 C0.33 0.66 0.66 1.32 1 2 C0.2884375 2.6496875 0.2884375 2.6496875 -0.4375 3.3125 C-2.23686957 5.02309613 -2.23686957 5.02309613 -3 8 C-4.48035688 9.28726685 -5.96488598 10.57151986 -7.5 11.79296875 C-9.11655494 13.0937903 -10.57342089 14.4941665 -12 16 C-12.99 15.67 -13.98 15.34 -15 15 C-10.05 10.05 -5.1 5.1 0 0 Z " fill="#246FBF" transform="translate(364,715)"/>
<path d="M0 0 C0.33 0.66 0.66 1.32 1 2 C0.2884375 2.6496875 0.2884375 2.6496875 -0.4375 3.3125 C-2.23686957 5.02309613 -2.23686957 5.02309613 -3 8 C-5.656676 11.03620115 -8.40995465 13.1589511 -12 15 C-12.99 15 -13.98 15 -15 15 C-10.05 10.05 -5.1 5.1 0 0 Z " fill="#256EBC" transform="translate(380,699)"/>
<path d="M0 0 C0.33 0.66 0.66 1.32 1 2 C0.2884375 2.6496875 0.2884375 2.6496875 -0.4375 3.3125 C-2.23686957 5.02309613 -2.23686957 5.02309613 -3 8 C-5.656676 11.03620115 -8.40995465 13.1589511 -12 15 C-12.99 15 -13.98 15 -15 15 C-10.05 10.05 -5.1 5.1 0 0 Z " fill="#256EBC" transform="translate(396,683)"/>
<path d="M0 0 C0.33 0.66 0.66 1.32 1 2 C0.2884375 2.6496875 0.2884375 2.6496875 -0.4375 3.3125 C-2.23686957 5.02309613 -2.23686957 5.02309613 -3 8 C-5.656676 11.03620115 -8.40995465 13.1589511 -12 15 C-12.99 15 -13.98 15 -15 15 C-10.05 10.05 -5.1 5.1 0 0 Z " fill="#256EBC" transform="translate(412,667)"/>
<path d="M0 0 C0.33 0.66 0.66 1.32 1 2 C0.2884375 2.6496875 0.2884375 2.6496875 -0.4375 3.3125 C-2.23686957 5.02309613 -2.23686957 5.02309613 -3 8 C-5.656676 11.03620115 -8.40995465 13.1589511 -12 15 C-12.99 15 -13.98 15 -15 15 C-10.05 10.05 -5.1 5.1 0 0 Z " fill="#256EBC" transform="translate(428,651)"/>
<path d="M0 0 C0.33 0.66 0.66 1.32 1 2 C0.2884375 2.6496875 0.2884375 2.6496875 -0.4375 3.3125 C-2.23686957 5.02309613 -2.23686957 5.02309613 -3 8 C-5.656676 11.03620115 -8.40995465 13.1589511 -12 15 C-12.99 15 -13.98 15 -15 15 C-10.05 10.05 -5.1 5.1 0 0 Z " fill="#256EBC" transform="translate(444,635)"/>
<path d="M0 0 C0.33 0.66 0.66 1.32 1 2 C0.2884375 2.6496875 0.2884375 2.6496875 -0.4375 3.3125 C-2.23686957 5.02309613 -2.23686957 5.02309613 -3 8 C-5.656676 11.03620115 -8.40995465 13.1589511 -12 15 C-12.99 15 -13.98 15 -15 15 C-10.05 10.05 -5.1 5.1 0 0 Z " fill="#256EBC" transform="translate(460,619)"/>
<path d="M0 0 C0.33 0.66 0.66 1.32 1 2 C0.2884375 2.6496875 0.2884375 2.6496875 -0.4375 3.3125 C-2.23686957 5.02309613 -2.23686957 5.02309613 -3 8 C-5.656676 11.03620115 -8.40995465 13.1589511 -12 15 C-12.99 15 -13.98 15 -15 15 C-10.05 10.05 -5.1 5.1 0 0 Z " fill="#256EBC" transform="translate(476,603)"/>
<path d="M0 0 C0.33 0.66 0.66 1.32 1 2 C0.2884375 2.6496875 0.2884375 2.6496875 -0.4375 3.3125 C-2.23686957 5.02309613 -2.23686957 5.02309613 -3 8 C-5.656676 11.03620115 -8.40995465 13.1589511 -12 15 C-12.99 15 -13.98 15 -15 15 C-10.05 10.05 -5.1 5.1 0 0 Z " fill="#256EBC" transform="translate(492,587)"/>
<path d="M0 0 C0.33 0.66 0.66 1.32 1 2 C0.2884375 2.6496875 0.2884375 2.6496875 -0.4375 3.3125 C-2.23686957 5.02309613 -2.23686957 5.02309613 -3 8 C-5.656676 11.03620115 -8.40995465 13.1589511 -12 15 C-12.99 15 -13.98 15 -15 15 C-10.05 10.05 -5.1 5.1 0 0 Z " fill="#256EBC" transform="translate(508,571)"/>
<path d="M0 0 C0.33 0.66 0.66 1.32 1 2 C0.2884375 2.6496875 0.2884375 2.6496875 -0.4375 3.3125 C-2.23686957 5.02309613 -2.23686957 5.02309613 -3 8 C-5.656676 11.03620115 -8.40995465 13.1589511 -12 15 C-12.99 15 -13.98 15 -15 15 C-10.05 10.05 -5.1 5.1 0 0 Z " fill="#256EBC" transform="translate(524,555)"/>
<path d="M0 0 C0.33 0.66 0.66 1.32 1 2 C0.2884375 2.6496875 0.2884375 2.6496875 -0.4375 3.3125 C-2.23686957 5.02309613 -2.23686957 5.02309613 -3 8 C-5.656676 11.03620115 -8.40995465 13.1589511 -12 15 C-12.99 15 -13.98 15 -15 15 C-10.05 10.05 -5.1 5.1 0 0 Z " fill="#256EBC" transform="translate(540,539)"/>
<path d="M0 0 C0.33 0.66 0.66 1.32 1 2 C0.2884375 2.6496875 0.2884375 2.6496875 -0.4375 3.3125 C-2.23686957 5.02309613 -2.23686957 5.02309613 -3 8 C-5.656676 11.03620115 -8.40995465 13.1589511 -12 15 C-12.99 15 -13.98 15 -15 15 C-10.05 10.05 -5.1 5.1 0 0 Z " fill="#256EBC" transform="translate(556,523)"/>
<path d="M0 0 C0.33 0.66 0.66 1.32 1 2 C0.2884375 2.6496875 0.2884375 2.6496875 -0.4375 3.3125 C-2.23686957 5.02309613 -2.23686957 5.02309613 -3 8 C-5.656676 11.03620115 -8.40995465 13.1589511 -12 15 C-12.99 15 -13.98 15 -15 15 C-10.05 10.05 -5.1 5.1 0 0 Z " fill="#256EBC" transform="translate(572,507)"/>
<path d="M0 0 C0.33 0.66 0.66 1.32 1 2 C0.2884375 2.6496875 0.2884375 2.6496875 -0.4375 3.3125 C-2.23686957 5.02309613 -2.23686957 5.02309613 -3 8 C-5.656676 11.03620115 -8.40995465 13.1589511 -12 15 C-12.99 15 -13.98 15 -15 15 C-10.05 10.05 -5.1 5.1 0 0 Z " fill="#256EBC" transform="translate(588,491)"/>
<path d="M0 0 C0.33 0.66 0.66 1.32 1 2 C0.2884375 2.6496875 0.2884375 2.6496875 -0.4375 3.3125 C-2.23686957 5.02309613 -2.23686957 5.02309613 -3 8 C-5.656676 11.03620115 -8.40995465 13.1589511 -12 15 C-12.99 15 -13.98 15 -15 15 C-10.05 10.05 -5.1 5.1 0 0 Z " fill="#256EBC" transform="translate(604,475)"/>
<path d="M0 0 C0.33 0.66 0.66 1.32 1 2 C0.2884375 2.6496875 0.2884375 2.6496875 -0.4375 3.3125 C-2.23686957 5.02309613 -2.23686957 5.02309613 -3 8 C-5.656676 11.03620115 -8.40995465 13.1589511 -12 15 C-12.99 15 -13.98 15 -15 15 C-10.05 10.05 -5.1 5.1 0 0 Z " fill="#256EBC" transform="translate(620,459)"/>
<path d="M0 0 C0.33 0.66 0.66 1.32 1 2 C0.2884375 2.6496875 0.2884375 2.6496875 -0.4375 3.3125 C-2.23686957 5.02309613 -2.23686957 5.02309613 -3 8 C-5.656676 11.03620115 -8.40995465 13.1589511 -12 15 C-12.99 15 -13.98 15 -15 15 C-10.05 10.05 -5.1 5.1 0 0 Z " fill="#256EBC" transform="translate(636,443)"/>
<path d="M0 0 C0.33 0.66 0.66 1.32 1 2 C0.2884375 2.6496875 0.2884375 2.6496875 -0.4375 3.3125 C-2.23686957 5.02309613 -2.23686957 5.02309613 -3 8 C-5.656676 11.03620115 -8.40995465 13.1589511 -12 15 C-12.99 15 -13.98 15 -15 15 C-10.05 10.05 -5.1 5.1 0 0 Z " fill="#256EBC" transform="translate(652,427)"/>
<path d="M0 0 C0.33 0.66 0.66 1.32 1 2 C0.2884375 2.6496875 0.2884375 2.6496875 -0.4375 3.3125 C-2.23686957 5.02309613 -2.23686957 5.02309613 -3 8 C-5.656676 11.03620115 -8.40995465 13.1589511 -12 15 C-12.99 15 -13.98 15 -15 15 C-10.05 10.05 -5.1 5.1 0 0 Z " fill="#256EBC" transform="translate(668,411)"/>
<path d="M0 0 C0.33 0.66 0.66 1.32 1 2 C0.2884375 2.6496875 0.2884375 2.6496875 -0.4375 3.3125 C-2.23686957 5.02309613 -2.23686957 5.02309613 -3 8 C-5.656676 11.03620115 -8.40995465 13.1589511 -12 15 C-12.99 15 -13.98 15 -15 15 C-10.05 10.05 -5.1 5.1 0 0 Z " fill="#256EBC" transform="translate(684,395)"/>
<path d="M0 0 C0.33 0.66 0.66 1.32 1 2 C0.2884375 2.6496875 0.2884375 2.6496875 -0.4375 3.3125 C-2.23686957 5.02309613 -2.23686957 5.02309613 -3 8 C-5.656676 11.03620115 -8.40995465 13.1589511 -12 15 C-12.99 15 -13.98 15 -15 15 C-10.05 10.05 -5.1 5.1 0 0 Z " fill="#256EBC" transform="translate(700,379)"/>
<path d="M0 0 C0.33 0.66 0.66 1.32 1 2 C0.2884375 2.6496875 0.2884375 2.6496875 -0.4375 3.3125 C-2.23686957 5.02309613 -2.23686957 5.02309613 -3 8 C-5.656676 11.03620115 -8.40995465 13.1589511 -12 15 C-12.99 15 -13.98 15 -15 15 C-10.05 10.05 -5.1 5.1 0 0 Z " fill="#256EBC" transform="translate(716,363)"/>
<path d="M0 0 C0.33 1.32 0.66 2.64 1 4 C0.01 4 -0.98 4 -2 4 C-2.1546875 4.9590625 -2.1546875 4.9590625 -2.3125 5.9375 C-2.539375 6.618125 -2.76625 7.29875 -3 8 C-3.99 8.33 -4.98 8.66 -6 9 C-7.42857119 10.40105576 -7.42857119 10.40105576 -8.6875 12.0625 C-9.450625 13.031875 -10.21375 14.00125 -11 15 C-11.99 14.67 -12.98 14.34 -14 14 C-9.38 9.38 -4.76 4.76 0 0 Z " fill="#2271C3" transform="translate(731,348)"/>
<path d="M0 0 C0.75 1.75 0.75 1.75 1 4 C-0.33333333 5.33333333 -1.66666667 6.66666667 -3 8 C-2.86358623 10.21858253 -2.86358623 10.21858253 -2 12 C-3.32 12 -4.64 12 -6 12 C-6.3125 9.3125 -6.3125 9.3125 -6 6 C-3.5625 3.1875 -3.5625 3.1875 -1 1 C-0.67 0.67 -0.34 0.34 0 0 Z " fill="#F2FAF5" transform="translate(474,683)"/>
<path d="M0 0 C0.75 1.75 0.75 1.75 1 4 C-0.33333333 5.33333333 -1.66666667 6.66666667 -3 8 C-2.86358623 10.21858253 -2.86358623 10.21858253 -2 12 C-3.32 12 -4.64 12 -6 12 C-6.3125 9.3125 -6.3125 9.3125 -6 6 C-3.5625 3.1875 -3.5625 3.1875 -1 1 C-0.67 0.67 -0.34 0.34 0 0 Z " fill="#F2FAF5" transform="translate(490,667)"/>
<path d="M0 0 C0.75 1.75 0.75 1.75 1 4 C-0.33333333 5.33333333 -1.66666667 6.66666667 -3 8 C-2.86358623 10.21858253 -2.86358623 10.21858253 -2 12 C-3.32 12 -4.64 12 -6 12 C-6.3125 9.3125 -6.3125 9.3125 -6 6 C-3.5625 3.1875 -3.5625 3.1875 -1 1 C-0.67 0.67 -0.34 0.34 0 0 Z " fill="#F2FAF5" transform="translate(506,651)"/>
<path d="M0 0 C0.75 1.75 0.75 1.75 1 4 C-0.33333333 5.33333333 -1.66666667 6.66666667 -3 8 C-2.86358623 10.21858253 -2.86358623 10.21858253 -2 12 C-3.32 12 -4.64 12 -6 12 C-6.3125 9.3125 -6.3125 9.3125 -6 6 C-3.5625 3.1875 -3.5625 3.1875 -1 1 C-0.67 0.67 -0.34 0.34 0 0 Z " fill="#F2FAF5" transform="translate(522,635)"/>
<path d="M0 0 C0.75 1.75 0.75 1.75 1 4 C-0.33333333 5.33333333 -1.66666667 6.66666667 -3 8 C-2.86358623 10.21858253 -2.86358623 10.21858253 -2 12 C-3.32 12 -4.64 12 -6 12 C-6.3125 9.3125 -6.3125 9.3125 -6 6 C-3.5625 3.1875 -3.5625 3.1875 -1 1 C-0.67 0.67 -0.34 0.34 0 0 Z " fill="#F2FAF5" transform="translate(538,619)"/>
<path d="M0 0 C0.75 1.75 0.75 1.75 1 4 C-0.33333333 5.33333333 -1.66666667 6.66666667 -3 8 C-2.86358623 10.21858253 -2.86358623 10.21858253 -2 12 C-3.32 12 -4.64 12 -6 12 C-6.3125 9.3125 -6.3125 9.3125 -6 6 C-3.5625 3.1875 -3.5625 3.1875 -1 1 C-0.67 0.67 -0.34 0.34 0 0 Z " fill="#F2FAF5" transform="translate(554,603)"/>
<path d="M0 0 C0.99 0.33 1.98 0.66 3 1 C2.01 1.66 1.02 2.32 0 3 C-0.73343428 6.06556598 -0.73343428 6.06556598 -1 9 C0.98 9.66 2.96 10.32 5 11 C5 11.33 5 11.66 5 12 C-1.75 12.125 -1.75 12.125 -4 11 C-5.26229508 6.52459016 -5.26229508 6.52459016 -4 4 C-3.34 4 -2.68 4 -2 4 C-1.34 2.68 -0.68 1.36 0 0 Z " fill="#0A72D9" transform="translate(427,722)"/>
<path d="M0 0 C4.42761914 1.39153744 6.9556255 3.52071486 10 7 C10 7.66 10 8.32 10 9 C10.639375 9.2475 11.27875 9.495 11.9375 9.75 C14 11 14 11 14.62890625 13.078125 C14.81259766 14.02945313 14.81259766 14.02945313 15 15 C9.72997792 10.60831493 4.64697949 6.0573621 0 1 C0 0.67 0 0.34 0 0 Z " fill="#1D69C9" transform="translate(693,691)"/>
<path d="M0 0 C0.99 0.33 1.98 0.66 3 1 C-0.3 4.3 -3.6 7.6 -7 11 C-7.33 10.01 -7.66 9.02 -8 8 C-6.5625 5.375 -6.5625 5.375 -5 3 C-5 2.67 -5 2.34 -5 2 C-3.35 2 -1.7 2 0 2 C0 1.34 0 0.68 0 0 Z " fill="#CEF4FE" transform="translate(384,692)"/>
<path d="M0 0 C0.99 0.33 1.98 0.66 3 1 C-0.3 4.3 -3.6 7.6 -7 11 C-7.33 10.01 -7.66 9.02 -8 8 C-6.5625 5.375 -6.5625 5.375 -5 3 C-5 2.67 -5 2.34 -5 2 C-3.35 2 -1.7 2 0 2 C0 1.34 0 0.68 0 0 Z " fill="#CEF4FE" transform="translate(400,676)"/>
<path d="M0 0 C0.99 0.33 1.98 0.66 3 1 C-0.3 4.3 -3.6 7.6 -7 11 C-7.33 10.01 -7.66 9.02 -8 8 C-6.5625 5.375 -6.5625 5.375 -5 3 C-5 2.67 -5 2.34 -5 2 C-3.35 2 -1.7 2 0 2 C0 1.34 0 0.68 0 0 Z " fill="#CEF4FE" transform="translate(416,660)"/>
<path d="M0 0 C0.99 0.33 1.98 0.66 3 1 C-0.3 4.3 -3.6 7.6 -7 11 C-7.33 10.01 -7.66 9.02 -8 8 C-6.5625 5.375 -6.5625 5.375 -5 3 C-5 2.67 -5 2.34 -5 2 C-3.35 2 -1.7 2 0 2 C0 1.34 0 0.68 0 0 Z " fill="#CEF4FE" transform="translate(432,644)"/>
<path d="M0 0 C0.99 0.33 1.98 0.66 3 1 C-0.3 4.3 -3.6 7.6 -7 11 C-7.33 10.01 -7.66 9.02 -8 8 C-6.5625 5.375 -6.5625 5.375 -5 3 C-5 2.67 -5 2.34 -5 2 C-3.35 2 -1.7 2 0 2 C0 1.34 0 0.68 0 0 Z " fill="#CEF4FE" transform="translate(448,628)"/>
<path d="M0 0 C0.99 0.33 1.98 0.66 3 1 C-0.3 4.3 -3.6 7.6 -7 11 C-7.33 10.01 -7.66 9.02 -8 8 C-6.5625 5.375 -6.5625 5.375 -5 3 C-5 2.67 -5 2.34 -5 2 C-3.35 2 -1.7 2 0 2 C0 1.34 0 0.68 0 0 Z " fill="#CEF4FE" transform="translate(464,612)"/>
<path d="M0 0 C0.99 0.33 1.98 0.66 3 1 C-0.3 4.3 -3.6 7.6 -7 11 C-7.33 10.01 -7.66 9.02 -8 8 C-6.5625 5.375 -6.5625 5.375 -5 3 C-5 2.67 -5 2.34 -5 2 C-3.35 2 -1.7 2 0 2 C0 1.34 0 0.68 0 0 Z " fill="#CEF4FE" transform="translate(480,596)"/>
<path d="M0 0 C0.99 0.33 1.98 0.66 3 1 C-0.3 4.3 -3.6 7.6 -7 11 C-7.33 10.01 -7.66 9.02 -8 8 C-6.5625 5.375 -6.5625 5.375 -5 3 C-5 2.67 -5 2.34 -5 2 C-3.35 2 -1.7 2 0 2 C0 1.34 0 0.68 0 0 Z " fill="#CEF4FE" transform="translate(496,580)"/>
<path d="M0 0 C0.99 0.33 1.98 0.66 3 1 C-0.3 4.3 -3.6 7.6 -7 11 C-7.33 10.01 -7.66 9.02 -8 8 C-6.5625 5.375 -6.5625 5.375 -5 3 C-5 2.67 -5 2.34 -5 2 C-3.35 2 -1.7 2 0 2 C0 1.34 0 0.68 0 0 Z " fill="#CEF4FE" transform="translate(512,564)"/>
<path d="M0 0 C0.99 0.33 1.98 0.66 3 1 C-0.3 4.3 -3.6 7.6 -7 11 C-7.33 10.01 -7.66 9.02 -8 8 C-6.5625 5.375 -6.5625 5.375 -5 3 C-5 2.67 -5 2.34 -5 2 C-3.35 2 -1.7 2 0 2 C0 1.34 0 0.68 0 0 Z " fill="#CEF4FE" transform="translate(528,548)"/>
<path d="M0 0 C0.99 0.33 1.98 0.66 3 1 C-0.3 4.3 -3.6 7.6 -7 11 C-7.33 10.01 -7.66 9.02 -8 8 C-6.5625 5.375 -6.5625 5.375 -5 3 C-5 2.67 -5 2.34 -5 2 C-3.35 2 -1.7 2 0 2 C0 1.34 0 0.68 0 0 Z " fill="#CEF4FE" transform="translate(544,532)"/>
<path d="M0 0 C0.99 0.33 1.98 0.66 3 1 C-0.3 4.3 -3.6 7.6 -7 11 C-7.33 10.01 -7.66 9.02 -8 8 C-6.5625 5.375 -6.5625 5.375 -5 3 C-5 2.67 -5 2.34 -5 2 C-3.35 2 -1.7 2 0 2 C0 1.34 0 0.68 0 0 Z " fill="#CEF4FE" transform="translate(560,516)"/>
<path d="M0 0 C0.99 0.33 1.98 0.66 3 1 C-0.3 4.3 -3.6 7.6 -7 11 C-7.33 10.01 -7.66 9.02 -8 8 C-6.5625 5.375 -6.5625 5.375 -5 3 C-5 2.67 -5 2.34 -5 2 C-3.35 2 -1.7 2 0 2 C0 1.34 0 0.68 0 0 Z " fill="#CEF4FE" transform="translate(576,500)"/>
<path d="M0 0 C0.99 0.33 1.98 0.66 3 1 C-0.3 4.3 -3.6 7.6 -7 11 C-7.33 10.01 -7.66 9.02 -8 8 C-6.5625 5.375 -6.5625 5.375 -5 3 C-5 2.67 -5 2.34 -5 2 C-3.35 2 -1.7 2 0 2 C0 1.34 0 0.68 0 0 Z " fill="#CEF4FE" transform="translate(592,484)"/>
<path d="M0 0 C0.99 0.33 1.98 0.66 3 1 C-0.3 4.3 -3.6 7.6 -7 11 C-7.33 10.01 -7.66 9.02 -8 8 C-6.5625 5.375 -6.5625 5.375 -5 3 C-5 2.67 -5 2.34 -5 2 C-3.35 2 -1.7 2 0 2 C0 1.34 0 0.68 0 0 Z " fill="#CEF4FE" transform="translate(608,468)"/>
<path d="M0 0 C0.99 0.33 1.98 0.66 3 1 C-0.3 4.3 -3.6 7.6 -7 11 C-7.33 10.01 -7.66 9.02 -8 8 C-6.5625 5.375 -6.5625 5.375 -5 3 C-5 2.67 -5 2.34 -5 2 C-3.35 2 -1.7 2 0 2 C0 1.34 0 0.68 0 0 Z " fill="#CEF4FE" transform="translate(624,452)"/>
<path d="M0 0 C0.99 0.33 1.98 0.66 3 1 C-0.3 4.3 -3.6 7.6 -7 11 C-7.33 10.01 -7.66 9.02 -8 8 C-6.5625 5.375 -6.5625 5.375 -5 3 C-5 2.67 -5 2.34 -5 2 C-3.35 2 -1.7 2 0 2 C0 1.34 0 0.68 0 0 Z " fill="#CEF4FE" transform="translate(640,436)"/>
<path d="M0 0 C0.99 0.33 1.98 0.66 3 1 C-0.3 4.3 -3.6 7.6 -7 11 C-7.33 10.01 -7.66 9.02 -8 8 C-6.5625 5.375 -6.5625 5.375 -5 3 C-5 2.67 -5 2.34 -5 2 C-3.35 2 -1.7 2 0 2 C0 1.34 0 0.68 0 0 Z " fill="#CEF4FE" transform="translate(656,420)"/>
<path d="M0 0 C0.99 0.33 1.98 0.66 3 1 C-0.3 4.3 -3.6 7.6 -7 11 C-7.33 10.01 -7.66 9.02 -8 8 C-6.5625 5.375 -6.5625 5.375 -5 3 C-5 2.67 -5 2.34 -5 2 C-3.35 2 -1.7 2 0 2 C0 1.34 0 0.68 0 0 Z " fill="#CEF4FE" transform="translate(672,404)"/>
<path d="M0 0 C0.99 0.33 1.98 0.66 3 1 C-0.3 4.3 -3.6 7.6 -7 11 C-7.33 10.01 -7.66 9.02 -8 8 C-6.5625 5.375 -6.5625 5.375 -5 3 C-5 2.67 -5 2.34 -5 2 C-3.35 2 -1.7 2 0 2 C0 1.34 0 0.68 0 0 Z " fill="#CEF4FE" transform="translate(688,388)"/>
<path d="M0 0 C0.99 0.33 1.98 0.66 3 1 C-0.3 4.3 -3.6 7.6 -7 11 C-7.33 10.01 -7.66 9.02 -8 8 C-6.5625 5.375 -6.5625 5.375 -5 3 C-5 2.67 -5 2.34 -5 2 C-3.35 2 -1.7 2 0 2 C0 1.34 0 0.68 0 0 Z " fill="#CEF4FE" transform="translate(704,372)"/>
<path d="M0 0 C1.32 0 2.64 0 4 0 C4 0.99 4 1.98 4 3 C4.99 3 5.98 3 7 3 C6.67 4.65 6.34 6.3 6 8 C5.01 8.33 4.02 8.66 3 9 C3 7.35 3 5.7 3 4 C2.01 3.67 1.02 3.34 0 3 C0 2.01 0 1.02 0 0 Z " fill="#0275E3" transform="translate(697,688)"/>
<path d="M0 0 C1.32 0 2.64 0 4 0 C4 0.99 4 1.98 4 3 C4.99 3 5.98 3 7 3 C6.67 4.65 6.34 6.3 6 8 C5.01 8.33 4.02 8.66 3 9 C3 7.35 3 5.7 3 4 C2.01 3.67 1.02 3.34 0 3 C0 2.01 0 1.02 0 0 Z " fill="#0275E3" transform="translate(681,672)"/>
<path d="M0 0 C1.32 0 2.64 0 4 0 C4 0.99 4 1.98 4 3 C4.99 3 5.98 3 7 3 C6.67 4.65 6.34 6.3 6 8 C5.01 8.33 4.02 8.66 3 9 C3 7.35 3 5.7 3 4 C2.01 3.67 1.02 3.34 0 3 C0 2.01 0 1.02 0 0 Z " fill="#0275E3" transform="translate(665,656)"/>
<path d="M0 0 C1.32 0 2.64 0 4 0 C4 0.99 4 1.98 4 3 C4.99 3 5.98 3 7 3 C6.67 4.65 6.34 6.3 6 8 C5.01 8.33 4.02 8.66 3 9 C3 7.35 3 5.7 3 4 C2.01 3.67 1.02 3.34 0 3 C0 2.01 0 1.02 0 0 Z " fill="#0275E3" transform="translate(649,640)"/>
<path d="M0 0 C1.32 0 2.64 0 4 0 C4 0.99 4 1.98 4 3 C4.99 3 5.98 3 7 3 C6.67 4.65 6.34 6.3 6 8 C5.01 8.33 4.02 8.66 3 9 C3 7.35 3 5.7 3 4 C2.01 3.67 1.02 3.34 0 3 C0 2.01 0 1.02 0 0 Z " fill="#0275E3" transform="translate(633,624)"/>
<path d="M0 0 C1.32 0 2.64 0 4 0 C4 0.99 4 1.98 4 3 C4.99 3 5.98 3 7 3 C6.67 4.65 6.34 6.3 6 8 C5.01 8.33 4.02 8.66 3 9 C3 7.35 3 5.7 3 4 C2.01 3.67 1.02 3.34 0 3 C0 2.01 0 1.02 0 0 Z " fill="#0275E3" transform="translate(617,608)"/>
<path d="M0 0 C3.36720387 1.39332574 4.9859524 2.9789286 7 6 C3.33333333 6 -0.33333333 6 -4 6 C-2.68 4.02 -1.36 2.04 0 0 Z " fill="#C5EAFB" transform="translate(577,577)"/>
<path d="M0 0 C5.78461538 4.18461538 5.78461538 4.18461538 6.875 8.3125 C6.936875 9.6428125 6.936875 9.6428125 7 11 C5.109375 10.81640625 5.109375 10.81640625 3 10 C1.953125 7.71484375 1.953125 7.71484375 1.25 4.9375 C1.00765625 4.01839844 0.7653125 3.09929688 0.515625 2.15234375 C0.34546875 1.44207031 0.1753125 0.73179687 0 0 Z " fill="#D3F0F7" transform="translate(694,693)"/>
<path d="M0 0 C0.99 0.33 1.98 0.66 3 1 C0.03 3.97 -2.94 6.94 -6 10 C-7.2077558 6.37673261 -6.54311128 5.35853631 -5 2 C-3.35 2 -1.7 2 0 2 C0 1.34 0 0.68 0 0 Z " fill="#CEF4FE" transform="translate(368,708)"/>
<path d="M0 0 C7.48291572 6.15034169 7.48291572 6.15034169 10 10 C8.35 10 6.7 10 5 10 C4.67 8.35 4.34 6.7 4 5 C3.01 5 2.02 5 1 5 C0.67 3.35 0.34 1.7 0 0 Z " fill="#C3E8FA" transform="translate(684,683)"/>
<path d="M0 0 C7.48291572 6.15034169 7.48291572 6.15034169 10 10 C8.35 10 6.7 10 5 10 C4.67 8.35 4.34 6.7 4 5 C3.01 5 2.02 5 1 5 C0.67 3.35 0.34 1.7 0 0 Z " fill="#C3E8FA" transform="translate(668,667)"/>
<path d="M0 0 C7.48291572 6.15034169 7.48291572 6.15034169 10 10 C8.35 10 6.7 10 5 10 C4.67 8.35 4.34 6.7 4 5 C3.01 5 2.02 5 1 5 C0.67 3.35 0.34 1.7 0 0 Z " fill="#C3E8FA" transform="translate(652,651)"/>
<path d="M0 0 C7.48291572 6.15034169 7.48291572 6.15034169 10 10 C8.35 10 6.7 10 5 10 C4.67 8.35 4.34 6.7 4 5 C3.01 5 2.02 5 1 5 C0.67 3.35 0.34 1.7 0 0 Z " fill="#C3E8FA" transform="translate(636,635)"/>
<path d="M0 0 C7.48291572 6.15034169 7.48291572 6.15034169 10 10 C8.35 10 6.7 10 5 10 C4.67 8.35 4.34 6.7 4 5 C3.01 5 2.02 5 1 5 C0.67 3.35 0.34 1.7 0 0 Z " fill="#C3E8FA" transform="translate(620,619)"/>
<path d="M0 0 C7.48291572 6.15034169 7.48291572 6.15034169 10 10 C8.35 10 6.7 10 5 10 C4.67 8.35 4.34 6.7 4 5 C3.01 5 2.02 5 1 5 C0.67 3.35 0.34 1.7 0 0 Z " fill="#C3E8FA" transform="translate(604,603)"/>
<path d="M0 0 C5.78461538 4.43076923 5.78461538 4.43076923 6.875 7.3125 C6.936875 8.1478125 6.936875 8.1478125 7 9 C4.525 8.01 4.525 8.01 2 7 C2 6.34 2 5.68 2 5 C1.34 5 0.68 5 0 5 C0 3.35 0 1.7 0 0 Z " fill="#CEEFF8" transform="translate(720,719)"/>
<path d="M0 0 C1.65 0 3.3 0 5 0 C5 0.99 5 1.98 5 3 C5.99 3 6.98 3 8 3 C7.67 4.32 7.34 5.64 7 7 C4.36 5.35 1.72 3.7 -1 2 C-0.67 1.34 -0.34 0.68 0 0 Z " fill="#0374E1" transform="translate(712,704)"/>
<path d="M0 0 C1.98 0.66 3.96 1.32 6 2 C6 3.32 6 4.64 6 6 C4.68 5.67 3.36 5.34 2 5 C2 4.01 2 3.02 2 2 C1.01 1.67 0.02 1.34 -1 1 C-0.67 0.67 -0.34 0.34 0 0 Z " fill="#0373DE" transform="translate(370,711)"/>
<path d="M0 0 C1.98 0.66 3.96 1.32 6 2 C6 3.32 6 4.64 6 6 C4.68 5.67 3.36 5.34 2 5 C2 4.01 2 3.02 2 2 C1.01 1.67 0.02 1.34 -1 1 C-0.67 0.67 -0.34 0.34 0 0 Z " fill="#0373DE" transform="translate(386,695)"/>
<path d="M0 0 C1.98 0.66 3.96 1.32 6 2 C6 3.32 6 4.64 6 6 C4.68 5.67 3.36 5.34 2 5 C2 4.01 2 3.02 2 2 C1.01 1.67 0.02 1.34 -1 1 C-0.67 0.67 -0.34 0.34 0 0 Z " fill="#0373DE" transform="translate(402,679)"/>
<path d="M0 0 C1.98 0.66 3.96 1.32 6 2 C6 3.32 6 4.64 6 6 C4.68 5.67 3.36 5.34 2 5 C2 4.01 2 3.02 2 2 C1.01 1.67 0.02 1.34 -1 1 C-0.67 0.67 -0.34 0.34 0 0 Z " fill="#0373DE" transform="translate(418,663)"/>
<path d="M0 0 C1.98 0.66 3.96 1.32 6 2 C6 3.32 6 4.64 6 6 C4.68 5.67 3.36 5.34 2 5 C2 4.01 2 3.02 2 2 C1.01 1.67 0.02 1.34 -1 1 C-0.67 0.67 -0.34 0.34 0 0 Z " fill="#0373DE" transform="translate(434,647)"/>
<path d="M0 0 C1.98 0.66 3.96 1.32 6 2 C6 3.32 6 4.64 6 6 C4.68 5.67 3.36 5.34 2 5 C2 4.01 2 3.02 2 2 C1.01 1.67 0.02 1.34 -1 1 C-0.67 0.67 -0.34 0.34 0 0 Z " fill="#0373DE" transform="translate(450,631)"/>
<path d="M0 0 C1.98 0.66 3.96 1.32 6 2 C6 3.32 6 4.64 6 6 C4.68 5.67 3.36 5.34 2 5 C2 4.01 2 3.02 2 2 C1.01 1.67 0.02 1.34 -1 1 C-0.67 0.67 -0.34 0.34 0 0 Z " fill="#0373DE" transform="translate(466,615)"/>
<path d="M0 0 C1.98 0.66 3.96 1.32 6 2 C6 3.32 6 4.64 6 6 C4.68 5.67 3.36 5.34 2 5 C2 4.01 2 3.02 2 2 C1.01 1.67 0.02 1.34 -1 1 C-0.67 0.67 -0.34 0.34 0 0 Z " fill="#0373DE" transform="translate(482,599)"/>
<path d="M0 0 C1.98 0.66 3.96 1.32 6 2 C6 3.32 6 4.64 6 6 C4.68 5.67 3.36 5.34 2 5 C2 4.01 2 3.02 2 2 C1.01 1.67 0.02 1.34 -1 1 C-0.67 0.67 -0.34 0.34 0 0 Z " fill="#0373DE" transform="translate(498,583)"/>
<path d="M0 0 C1.98 0.66 3.96 1.32 6 2 C6 3.32 6 4.64 6 6 C4.68 5.67 3.36 5.34 2 5 C2 4.01 2 3.02 2 2 C1.01 1.67 0.02 1.34 -1 1 C-0.67 0.67 -0.34 0.34 0 0 Z " fill="#0373DE" transform="translate(514,567)"/>
<path d="M0 0 C1.98 0.66 3.96 1.32 6 2 C6 3.32 6 4.64 6 6 C4.68 5.67 3.36 5.34 2 5 C2 4.01 2 3.02 2 2 C1.01 1.67 0.02 1.34 -1 1 C-0.67 0.67 -0.34 0.34 0 0 Z " fill="#0373DE" transform="translate(530,551)"/>
<path d="M0 0 C1.98 0.66 3.96 1.32 6 2 C6 3.32 6 4.64 6 6 C4.68 5.67 3.36 5.34 2 5 C2 4.01 2 3.02 2 2 C1.01 1.67 0.02 1.34 -1 1 C-0.67 0.67 -0.34 0.34 0 0 Z " fill="#0373DE" transform="translate(546,535)"/>
<path d="M0 0 C1.98 0.66 3.96 1.32 6 2 C6 3.32 6 4.64 6 6 C4.68 5.67 3.36 5.34 2 5 C2 4.01 2 3.02 2 2 C1.01 1.67 0.02 1.34 -1 1 C-0.67 0.67 -0.34 0.34 0 0 Z " fill="#0373DE" transform="translate(562,519)"/>
<path d="M0 0 C1.98 0.66 3.96 1.32 6 2 C6 3.32 6 4.64 6 6 C4.68 5.67 3.36 5.34 2 5 C2 4.01 2 3.02 2 2 C1.01 1.67 0.02 1.34 -1 1 C-0.67 0.67 -0.34 0.34 0 0 Z " fill="#0373DE" transform="translate(578,503)"/>
<path d="M0 0 C1.98 0.66 3.96 1.32 6 2 C6 3.32 6 4.64 6 6 C4.68 5.67 3.36 5.34 2 5 C2 4.01 2 3.02 2 2 C1.01 1.67 0.02 1.34 -1 1 C-0.67 0.67 -0.34 0.34 0 0 Z " fill="#0373DE" transform="translate(594,487)"/>
<path d="M0 0 C1.98 0.66 3.96 1.32 6 2 C6 3.32 6 4.64 6 6 C4.68 5.67 3.36 5.34 2 5 C2 4.01 2 3.02 2 2 C1.01 1.67 0.02 1.34 -1 1 C-0.67 0.67 -0.34 0.34 0 0 Z " fill="#0373DE" transform="translate(610,471)"/>
<path d="M0 0 C1.98 0.66 3.96 1.32 6 2 C6 3.32 6 4.64 6 6 C4.68 5.67 3.36 5.34 2 5 C2 4.01 2 3.02 2 2 C1.01 1.67 0.02 1.34 -1 1 C-0.67 0.67 -0.34 0.34 0 0 Z " fill="#0373DE" transform="translate(626,455)"/>
<path d="M0 0 C1.98 0.66 3.96 1.32 6 2 C6 3.32 6 4.64 6 6 C4.68 5.67 3.36 5.34 2 5 C2 4.01 2 3.02 2 2 C1.01 1.67 0.02 1.34 -1 1 C-0.67 0.67 -0.34 0.34 0 0 Z " fill="#0373DE" transform="translate(642,439)"/>
<path d="M0 0 C1.98 0.66 3.96 1.32 6 2 C6 3.32 6 4.64 6 6 C4.68 5.67 3.36 5.34 2 5 C2 4.01 2 3.02 2 2 C1.01 1.67 0.02 1.34 -1 1 C-0.67 0.67 -0.34 0.34 0 0 Z " fill="#0373DE" transform="translate(658,423)"/>
<path d="M0 0 C1.98 0.66 3.96 1.32 6 2 C6 3.32 6 4.64 6 6 C4.68 5.67 3.36 5.34 2 5 C2 4.01 2 3.02 2 2 C1.01 1.67 0.02 1.34 -1 1 C-0.67 0.67 -0.34 0.34 0 0 Z " fill="#0373DE" transform="translate(674,407)"/>
<path d="M0 0 C1.98 0.66 3.96 1.32 6 2 C6 3.32 6 4.64 6 6 C4.68 5.67 3.36 5.34 2 5 C2 4.01 2 3.02 2 2 C1.01 1.67 0.02 1.34 -1 1 C-0.67 0.67 -0.34 0.34 0 0 Z " fill="#0373DE" transform="translate(690,391)"/>
<path d="M0 0 C1.98 0.66 3.96 1.32 6 2 C6 3.32 6 4.64 6 6 C4.68 5.67 3.36 5.34 2 5 C2 4.01 2 3.02 2 2 C1.01 1.67 0.02 1.34 -1 1 C-0.67 0.67 -0.34 0.34 0 0 Z " fill="#0373DE" transform="translate(706,375)"/>
<path d="M0 0 C2.625 0.9375 2.625 0.9375 5 2 C5 3.32 5 4.64 5 6 C3.68 6 2.36 6 1 6 C1 4.68 1 3.36 1 2 C0.01 1.67 -0.98 1.34 -2 1 C-1.34 0.67 -0.68 0.34 0 0 Z " fill="#0374DD" transform="translate(355,727)"/>
<path d="M0 0 C0.99 0.33 1.98 0.66 3 1 C0.69 3.31 -1.62 5.62 -4 8 C-4.33 7.01 -4.66 6.02 -5 5 C-3.35 3.35 -1.7 1.7 0 0 Z " fill="#CDF3FD" transform="translate(358,718)"/>
<path d="M0 0 C0.33 0.66 0.66 1.32 1 2 C-0.125 4.5625 -0.125 4.5625 -2 7 C-4.6875 7.8125 -4.6875 7.8125 -7 8 C-6.02133662 6.85373678 -5.04205413 5.70800212 -4.0625 4.5625 C-3.51722656 3.92441406 -2.97195313 3.28632812 -2.41015625 2.62890625 C-1.63204305 1.73008851 -0.84063472 0.84063472 0 0 Z " fill="#D0F1FD" transform="translate(444,711)"/>
<path d="M0 0 C4.43458973 1.3937282 6.87378374 3.60582235 10 7 C9.67 7.99 9.34 8.98 9 10 C7.49702124 8.52386015 5.99768715 7.04400843 4.5 5.5625 C3.6646875 4.73878906 2.829375 3.91507813 1.96875 3.06640625 C0 1 0 1 0 0 Z " fill="#1F69CC" transform="translate(677,675)"/>
<path d="M0 0 C4.43458973 1.3937282 6.87378374 3.60582235 10 7 C9.67 7.99 9.34 8.98 9 10 C7.49702124 8.52386015 5.99768715 7.04400843 4.5 5.5625 C3.6646875 4.73878906 2.829375 3.91507813 1.96875 3.06640625 C0 1 0 1 0 0 Z " fill="#1F69CC" transform="translate(661,659)"/>
<path d="M0 0 C4.43458973 1.3937282 6.87378374 3.60582235 10 7 C9.67 7.99 9.34 8.98 9 10 C7.49702124 8.52386015 5.99768715 7.04400843 4.5 5.5625 C3.6646875 4.73878906 2.829375 3.91507813 1.96875 3.06640625 C0 1 0 1 0 0 Z " fill="#1F69CC" transform="translate(645,643)"/>
<path d="M0 0 C4.43458973 1.3937282 6.87378374 3.60582235 10 7 C9.67 7.99 9.34 8.98 9 10 C7.49702124 8.52386015 5.99768715 7.04400843 4.5 5.5625 C3.6646875 4.73878906 2.829375 3.91507813 1.96875 3.06640625 C0 1 0 1 0 0 Z " fill="#1F69CC" transform="translate(629,627)"/>
<path d="M0 0 C4.43458973 1.3937282 6.87378374 3.60582235 10 7 C9.67 7.99 9.34 8.98 9 10 C7.49702124 8.52386015 5.99768715 7.04400843 4.5 5.5625 C3.6646875 4.73878906 2.829375 3.91507813 1.96875 3.06640625 C0 1 0 1 0 0 Z " fill="#1F69CC" transform="translate(613,611)"/>
<path d="M0 0 C4.43458973 1.3937282 6.87378374 3.60582235 10 7 C9.67 7.99 9.34 8.98 9 10 C7.49702124 8.52386015 5.99768715 7.04400843 4.5 5.5625 C3.6646875 4.73878906 2.829375 3.91507813 1.96875 3.06640625 C0 1 0 1 0 0 Z " fill="#1F69CC" transform="translate(597,595)"/>
<path d="M0 0 C1.9375 0.6875 1.9375 0.6875 4 2 C4.75 4.625 4.75 4.625 5 7 C1.26360784 5.75453595 0.81243487 4.36595047 -1 1 C-0.67 0.67 -0.34 0.34 0 0 Z " fill="#096FE4" transform="translate(721,714)"/>
<path d="M0 0 C0.33 0.66 0.66 1.32 1 2 C-0.125 4.5625 -0.125 4.5625 -2 7 C-4.6875 7.8125 -4.6875 7.8125 -7 8 C-6.02133662 6.85373678 -5.04205413 5.70800212 -4.0625 4.5625 C-3.51722656 3.92441406 -2.97195313 3.28632812 -2.41015625 2.62890625 C-1.63204305 1.73008851 -0.84063472 0.84063472 0 0 Z " fill="#CBF1FE" transform="translate(452,703)"/>
<path d="M0 0 C3.75283733 1.45271122 3.75283733 1.45271122 4.875 3.9375 C5 6 5 6 3 9 C0 3.375 0 3.375 0 0 Z " fill="#0D6FE3" transform="translate(705,698)"/>
<path d="M0 0 C1.32 0.33 2.64 0.66 4 1 C4.33 3.31 4.66 5.62 5 8 C4.01 8.33 3.02 8.66 2 9 C1.855625 8.071875 1.71125 7.14375 1.5625 6.1875 C1.07899889 2.99274889 1.07899889 2.99274889 0 0 Z " fill="#0B74F7" transform="translate(595,585)"/>
<path d="M0 0 C0.33 0.99 0.66 1.98 1 3 C0.34 3 -0.32 3 -1 3 C-1.12375 3.639375 -1.2475 4.27875 -1.375 4.9375 C-1.58125 5.618125 -1.7875 6.29875 -2 7 C-2.99 7.495 -2.99 7.495 -4 8 C-4.66 7.34 -5.32 6.68 -6 6 C-5.01 5.67 -4.02 5.34 -3 5 C-2.6278958 3.67696283 -2.29369827 2.34262065 -2 1 C-1.34 0.67 -0.68 0.34 0 0 Z " fill="#0F6FDD" transform="translate(367,714)"/>
<path d="M0 0 C2.02054804 1.64169528 4.02043058 3.30911778 6 5 C6 5.33 6 5.66 6 6 C4.33388095 6.042721 2.66617115 6.04063832 1 6 C0 5 0 5 -0.0625 2.4375 C-0.041875 1.633125 -0.02125 0.82875 0 0 Z " fill="#C6EAF9" transform="translate(592,591)"/>
<path d="M0 0 C-0.33 1.32 -0.66 2.64 -1 4 C-3.31 3.67 -5.62 3.34 -8 3 C-4.93882432 0.37613513 -4.26826873 0 0 0 Z " fill="#FBFCEE" transform="translate(448,722)"/>
<path d="M0 0 C2.64 0 5.28 0 8 0 C8 0.66 8 1.32 8 2 C6.68 2 5.36 2 4 2 C3.67 2.66 3.34 3.32 3 4 C2.01 3.34 1.02 2.68 0 2 C0 1.34 0 0.68 0 0 Z " fill="#0875E0" transform="translate(727,722)"/>
<path d="M0 0 C1.98 1.65 3.96 3.3 6 5 C4.02 5.99 4.02 5.99 2 7 C0 4 0 4 0 0 Z " fill="#C5E8FA" transform="translate(714,713)"/>
<path d="M0 0 C-0.33 1.32 -0.66 2.64 -1 4 C-2.65 4.33 -4.3 4.66 -6 5 C-3.74193548 0 -3.74193548 0 0 0 Z " fill="#2471C8" transform="translate(441,712)"/>
<path d="M0 0 C0.66 0.33 1.32 0.66 2 1 C0.75 3.9375 0.75 3.9375 -1 7 C-3.1875 7.875 -3.1875 7.875 -5 8 C-3.62845496 5.04590299 -2.01136276 2.55991624 0 0 Z " fill="#EBFDFE" transform="translate(362,711)"/>
<path d="M0 0 C0.66 0 1.32 0 2 0 C2 2.31 2 4.62 2 7 C1.01 7.495 1.01 7.495 0 8 C-0.66 7.67 -1.32 7.34 -2 7 C-1.34 4.69 -0.68 2.38 0 0 Z " fill="#F5F5F5" transform="translate(462,696)"/>
<path d="M0 0 C0.66 0 1.32 0 2 0 C2 2.31 2 4.62 2 7 C1.01 7.495 1.01 7.495 0 8 C-0.66 7.67 -1.32 7.34 -2 7 C-1.34 4.69 -0.68 2.38 0 0 Z " fill="#F5F5F5" transform="translate(478,680)"/>
<path d="M0 0 C0.66 0 1.32 0 2 0 C2 2.31 2 4.62 2 7 C1.01 7.495 1.01 7.495 0 8 C-0.66 7.67 -1.32 7.34 -2 7 C-1.34 4.69 -0.68 2.38 0 0 Z " fill="#F5F5F5" transform="translate(494,664)"/>
<path d="M0 0 C0.66 0 1.32 0 2 0 C2 2.31 2 4.62 2 7 C1.01 7.495 1.01 7.495 0 8 C-0.66 7.67 -1.32 7.34 -2 7 C-1.34 4.69 -0.68 2.38 0 0 Z " fill="#F5F5F5" transform="translate(510,648)"/>
<path d="M0 0 C0.66 0 1.32 0 2 0 C2 2.31 2 4.62 2 7 C1.01 7.495 1.01 7.495 0 8 C-0.66 7.67 -1.32 7.34 -2 7 C-1.34 4.69 -0.68 2.38 0 0 Z " fill="#F5F5F5" transform="translate(526,632)"/>
<path d="M0 0 C0.66 0 1.32 0 2 0 C2 2.31 2 4.62 2 7 C1.01 7.495 1.01 7.495 0 8 C-0.66 7.67 -1.32 7.34 -2 7 C-1.34 4.69 -0.68 2.38 0 0 Z " fill="#F5F5F5" transform="translate(542,616)"/>
<path d="M0 0 C0.66 0 1.32 0 2 0 C2 2.31 2 4.62 2 7 C1.01 7.495 1.01 7.495 0 8 C-0.66 7.67 -1.32 7.34 -2 7 C-1.34 4.69 -0.68 2.38 0 0 Z " fill="#F5F5F5" transform="translate(558,600)"/>
<path d="M0 0 C0.99 0.33 1.98 0.66 3 1 C1.35 2.98 -0.3 4.96 -2 7 C-2.33 6.01 -2.66 5.02 -3 4 C-1.5625 1.8125 -1.5625 1.8125 0 0 Z " fill="#C9F2FF" transform="translate(715,360)"/>
<path d="M0 0 C0.33 0.66 0.66 1.32 1 2 C-0.65 3.98 -2.3 5.96 -4 8 C-4.99 7.67 -5.98 7.34 -7 7 C-4.69 4.69 -2.38 2.38 0 0 Z " fill="#276DB7" transform="translate(724,355)"/>
<path d="M0 0 C2.62187494 1.04874998 3.79371361 1.64931313 5.25 4.125 C5.4975 4.74375 5.745 5.3625 6 6 C4.35 5.67 2.7 5.34 1 5 C0.67 3.35 0.34 1.7 0 0 Z " fill="#9DD9F8" transform="translate(726,725)"/>
<path d="M0 0 C0.625 1.875 0.625 1.875 1 4 C0.34 4.66 -0.32 5.32 -1 6 C-1.99 6 -2.98 6 -4 6 C-2.84826645 3.53199953 -1.95216435 1.95216435 0 0 Z " fill="#CCF2FD" transform="translate(431,724)"/>
<path d="M0 0 C3.36591866 1.44253657 5.51047079 3.33264727 8 6 C7.67 6.66 7.34 7.32 7 8 C5.83035398 6.8572081 4.66435444 5.71068285 3.5 4.5625 C2.8503125 3.92441406 2.200625 3.28632812 1.53125 2.62890625 C0 1 0 1 0 0 Z " fill="#2666BC" transform="translate(580,578)"/>
</svg>
