<?xml version="1.0" encoding="UTF-8"?>
<svg version="1.1" xmlns="http://www.w3.org/2000/svg" width="866" height="650">
<path d="M0 0 C285.78 0 571.56 0 866 0 C866 214.5 866 429 866 650 C580.22 650 294.44 650 0 650 C0 435.5 0 221 0 0 Z " fill="#000000" transform="translate(0,0)"/>
<path d="M0 0 C0.88268555 0.00572021 1.76537109 0.01144043 2.67480469 0.01733398 C12.68718397 0.28974848 20.95485626 3.26271256 28.2734375 10.25 C31.84891543 14.19535495 35.08909916 18.39030958 38.3203125 22.6171875 C41.4206655 26.66927677 44.64095892 30.61684653 47.875 34.5625 C52.63989243 40.39696243 57.28528263 46.30521278 61.85546875 52.29296875 C65.81725651 57.48015038 69.8725095 62.59447841 73.91259766 67.72070312 C75.32385389 69.51443097 76.7308898 71.31139121 78.13671875 73.109375 C82.331791 78.47096021 86.54345802 83.80983925 90.875 89.0625 C94.46975729 93.42847295 97.9353393 97.88239245 101.36694336 102.37646484 C104.6696912 106.69080225 108.03891344 110.94833397 111.4375 115.1875 C112.20562012 116.1460791 112.20562012 116.1460791 112.98925781 117.12402344 C115.13977032 119.80419151 117.29572112 122.47938421 119.46484375 125.14453125 C141.24051117 151.99673464 141.24051117 151.99673464 141.5234375 166.8828125 C141.54962158 167.94991455 141.57580566 169.0170166 141.6027832 170.11645508 C141.63073975 171.2742749 141.65869629 172.43209473 141.6875 173.625 C142.45134847 198.37401764 144.15295184 223.24168163 149.3125 247.5 C149.46831543 248.24717285 149.62413086 248.9943457 149.78466797 249.76416016 C153.04850868 265.05413139 159.13051077 278.75150876 166.29785156 292.54443359 C167.26908624 294.41632719 168.22508539 296.29536662 169.1796875 298.17578125 C176.38068635 312.18955447 185.06602179 325.31173765 193.9375 338.3125 C194.47552246 339.10519287 195.01354492 339.89788574 195.56787109 340.71459961 C198.05536975 344.34689153 200.58173134 347.89255137 203.35546875 351.3125 C208.54159161 357.77517964 211.9886713 363.18139761 211.26953125 371.83984375 C209.48704586 378.65694092 205.82090669 384.16958376 201.95605469 389.99511719 C200.1538458 392.74179919 198.42075105 395.52479215 196.6953125 398.3203125 C188.3407144 411.85353202 179.80794062 425.2730985 170.97789001 438.50138855 C158.58043091 457.08303368 146.98747876 475.39380842 139.3125 496.5 C138.88453125 497.60472656 138.4565625 498.70945312 138.015625 499.84765625 C132.84654842 513.9988011 130.63194674 529.07326535 128.30859375 543.91015625 C126.04471785 557.56398272 119.3349315 568.24327018 108.3125 576.5 C97.7709304 583.42142203 86.9928166 586.53182639 74.34130859 584.125 C68.91694355 582.86443586 63.62091484 581.17244759 58.3125 579.5 C56.29595099 578.87638029 54.27900259 578.25405106 52.26171875 577.6328125 C48.97512082 576.61974646 45.68874728 575.60602582 42.40356445 574.58837891 C22.56097545 568.46020366 2.56576051 563.09256767 -17.6875 558.5 C-18.39003906 558.33516113 -19.09257812 558.17032227 -19.81640625 558.00048828 C-40.20772549 553.26982993 -61.83542521 552.66964283 -82.6875 551.4375 C-118.70894808 549.27919231 -118.70894808 549.27919231 -133.6875 534.5 C-134.38568848 533.81550781 -135.08387695 533.13101563 -135.80322266 532.42578125 C-150.75564576 517.73218007 -150.75564576 517.73218007 -154.41796875 513.26171875 C-156.70429167 510.47956677 -159.12589267 508.03157025 -161.6875 505.5 C-162.81924893 504.37434536 -163.95056693 503.24825735 -165.08154297 502.12182617 C-165.69923553 501.5073613 -166.3169281 500.89289642 -166.95333862 500.2598114 C-169.75476407 497.47186079 -172.55346106 494.68117767 -175.35205078 491.89038086 C-176.82120184 490.42626003 -178.29124897 488.96303779 -179.76220703 487.50073242 C-181.90378556 485.37139011 -184.04202332 483.23873984 -186.1796875 481.10546875 C-186.82783417 480.46248337 -187.47598083 479.81949799 -188.14376831 479.1570282 C-191.99457787 475.30668476 -195.64545705 471.34104666 -199.18521118 467.2023468 C-201.03646235 465.10456675 -203.04227601 463.29302304 -205.1875 461.5 C-208.04257023 459.11367264 -210.5100647 456.60066065 -212.9296875 453.78515625 C-217.50414012 448.47697224 -222.52331847 443.64622437 -227.546875 438.76757812 C-237.34830016 429.11545783 -243.01296037 419.6393883 -243.1875 405.5 C-243.07722942 396.54157545 -240.57286346 389.17115324 -236.54296875 381.2734375 C-232.61260095 373.49390486 -229.19485697 365.47625246 -225.6875 357.5 C-217.90665307 339.80519447 -217.90665307 339.80519447 -214.01074219 332.19238281 C-210.73209581 325.5213658 -207.81568831 318.67316449 -204.8125 311.875 C-204.12390533 310.32152263 -203.43510434 308.76813669 -202.74609375 307.21484375 C-200.06822906 301.17267402 -197.39168478 295.13016529 -194.76074219 289.06738281 C-189.52582305 277.0085586 -189.52582305 277.0085586 -186.64892578 271.41552734 C-184.49165896 267.11742794 -182.57093667 262.70909155 -180.625 258.3125 C-180.19123047 257.36052734 -179.75746094 256.40855469 -179.31054688 255.42773438 C-173.77399813 242.87990928 -171.97416336 229.66552861 -170.05445862 216.19505119 C-169.64703302 213.33770346 -169.23251779 210.48145866 -168.81628418 207.62538147 C-167.78474886 200.53792916 -166.76430596 193.44889074 -165.74493408 186.35968018 C-164.88008444 180.34708103 -164.01025752 174.33524402 -163.13368225 168.32434273 C-162.72838954 165.53127451 -162.33030655 162.73724193 -161.93249512 159.94309998 C-158.53428332 136.40939088 -152.89695992 122.80353365 -134.69921875 107.2265625 C-128.52282241 101.92565535 -122.55326741 96.38371918 -116.5625 90.875 C-112.67071704 87.2967643 -108.74069219 83.77168637 -104.74609375 80.30859375 C-102.1979335 78.0698875 -99.69339407 75.78589788 -97.1875 73.5 C-93.42399479 70.06735239 -89.62620649 66.6844499 -85.78125 63.34375 C-83.22330973 61.09123543 -80.7057102 58.79682908 -78.1875 56.5 C-74.40087002 53.04671847 -70.5827368 49.63900949 -66.71484375 46.27734375 C-63.48348522 43.44445718 -60.30281919 40.55556133 -57.11328125 37.67578125 C-55.05047212 35.82556437 -52.9703763 34.00055191 -50.875 32.1875 C-47.24554988 29.02921582 -43.71576033 25.77010719 -40.1875 22.5 C-15.72154969 -0.11801619 -15.72154969 -0.11801619 0 0 Z " fill="#7A45E6" transform="translate(449.6875,30.5)"/>
<path d="M0 0 C0.6703125 0.70898438 1.340625 1.41796875 2.03125 2.1484375 C5.24505986 5.35999048 8.83384782 7.95702707 12.5 10.625 C49.00662733 37.71645439 78.18585865 73.0277295 89 118 C89 118.99 89 119.98 89 121 C89.75796875 120.84144531 90.5159375 120.68289063 91.296875 120.51953125 C100.27947909 118.6803329 109.28987675 117.00608532 118.3125 115.375 C119.50391602 115.15690674 120.69533203 114.93881348 121.92285156 114.71411133 C165.84550669 106.83754375 213.18245998 110.89060838 251 136 C254.11373652 138.21051524 257.06570483 140.55824723 260 143 C260.928125 143.74507812 261.85625 144.49015625 262.8125 145.2578125 C267.44433625 148.99038267 271.84649903 152.73388418 276 157 C276.72058594 157.73476563 277.44117188 158.46953125 278.18359375 159.2265625 C292.18718445 174.12813042 303.3693708 191.2643607 313.1875 209.125 C313.69941895 210.05610596 314.21133789 210.98721191 314.73876953 211.9465332 C317.45415261 216.95021538 319.95563559 221.95662105 322.1340332 227.21826172 C322.97259768 229.19051375 322.97259768 229.19051375 325 231 C324.25556641 232.38445312 324.25556641 232.38445312 323.49609375 233.796875 C314.22539725 251.43784356 308.16047108 270.16049365 304.82421875 289.796875 C304.61490723 291.02212891 304.4055957 292.24738281 304.18994141 293.50976562 C303.7825497 295.93826402 303.38944868 298.36921901 303.01318359 300.80273438 C300.46579358 316.23065069 294.64311464 328.52924197 282 338 C271.4584304 344.92142203 260.6803166 348.03182639 248.02880859 345.625 C242.60444355 344.36443586 237.30841484 342.67244759 232 341 C229.98345099 340.37638029 227.96650259 339.75405106 225.94921875 339.1328125 C222.66262082 338.11974646 219.37624728 337.10602582 216.09106445 336.08837891 C196.24847545 329.96020366 176.25326051 324.59256767 156 320 C155.29746094 319.83516113 154.59492188 319.67032227 153.87109375 319.50048828 C133.47977451 314.76982993 111.85207479 314.16964283 91 312.9375 C54.97855192 310.77919231 54.97855192 310.77919231 40 296 C39.30181152 295.31550781 38.60362305 294.63101562 37.88427734 293.92578125 C22.93185424 279.23218007 22.93185424 279.23218007 19.26953125 274.76171875 C16.98320833 271.97956677 14.56160733 269.53157025 12 267 C10.86825107 265.87434536 9.73693307 264.74825735 8.60595703 263.62182617 C7.98826447 263.0073613 7.3705719 262.39289642 6.73416138 261.7598114 C3.93273593 258.97186079 1.13403894 256.18117767 -1.66455078 253.39038086 C-3.13370184 251.92626003 -4.60374897 250.46303779 -6.07470703 249.00073242 C-8.21628556 246.87139011 -10.35452332 244.73873984 -12.4921875 242.60546875 C-13.14033417 241.96248337 -13.78848083 241.31949799 -14.45626831 240.6570282 C-18.30707787 236.80668476 -21.95795705 232.84104666 -25.49771118 228.7023468 C-27.34896235 226.60456675 -29.35477601 224.79302304 -31.5 223 C-34.35507023 220.61367264 -36.8225647 218.10066065 -39.2421875 215.28515625 C-43.81664012 209.97697224 -48.83581847 205.14622437 -53.859375 200.26757812 C-63.66080016 190.61545783 -69.32546037 181.1393883 -69.5 167 C-69.38972942 158.04157545 -66.88536346 150.67115324 -62.85546875 142.7734375 C-58.92510095 134.99390486 -55.50735697 126.97625246 -52 119 C-44.21915307 101.30519447 -44.21915307 101.30519447 -40.32324219 93.69238281 C-37.04459581 87.0213658 -34.12818831 80.17316449 -31.125 73.375 C-30.43640533 71.82152263 -29.74760434 70.26813669 -29.05859375 68.71484375 C-26.38072906 62.67267402 -23.70418478 56.63016529 -21.07324219 50.56738281 C-15.86193245 38.5631747 -15.86193245 38.5631747 -12.96582031 32.9375 C-10.77132474 28.53519543 -8.84457475 24.00605975 -6.875 19.5 C-6.43285156 18.50613281 -5.99070312 17.51226562 -5.53515625 16.48828125 C-3.15002033 11.03345377 -1.23480453 5.82716744 0 0 Z " fill="#4C219E" transform="translate(276,269)"/>
<path d="M0 0 C0.88268555 0.00572021 1.76537109 0.01144043 2.67480469 0.01733398 C12.80045121 0.29283023 21.35951032 3.40039498 28.76171875 10.49609375 C31.59942773 14.16295699 32.38539669 18.03714079 33.3125 22.5 C33.4880542 23.30808105 33.6636084 24.11616211 33.84448242 24.94873047 C40.13350489 56.25261777 31.48258893 83.98358579 17.33154297 111.51464844 C-0.33636285 145.43749505 -0.33636285 145.43749505 -12.6875 181.5 C-12.96464844 182.56089844 -13.24179687 183.62179688 -13.52734375 184.71484375 C-22.26835397 221.28792632 -18.7803867 262.82875648 -7.6875 298.5 C-7.22006111 300.0721474 -6.75518324 301.6450587 -6.29296875 303.21875 C-3.7929753 311.6654062 -1.22301038 320.08010408 1.5625 328.4375 C1.80846924 329.17613281 2.05443848 329.91476562 2.30786133 330.67578125 C3.29063095 333.59391886 4.30118729 336.47281179 5.484375 339.31640625 C6.3125 341.5 6.3125 341.5 6.3125 344.5 C7.39144531 344.57476562 8.47039062 344.64953125 9.58203125 344.7265625 C20.67038935 345.64319343 30.57170408 348.06772222 41.05810547 351.72412109 C43.22861527 352.47112999 45.40789706 353.17501317 47.59765625 353.86328125 C53.93223018 355.86568581 59.72053228 357.88166795 65.3125 361.5 C67.01827958 362.52509488 68.72681751 363.54560821 70.4375 364.5625 C72.06273538 365.54127594 73.68773692 366.52044026 75.3125 367.5 C76.11816406 367.96792969 76.92382812 368.43585938 77.75390625 368.91796875 C88.11314868 375.32330185 97.74924205 383.23521223 105.59765625 392.54296875 C107.24755499 394.42588281 108.9834501 396.10565834 110.8125 397.8125 C114.33495418 401.27205321 116.81053045 405.14340277 119.34375 409.36328125 C120.9860653 411.97990662 122.71306092 414.42517381 124.53125 416.91796875 C128.69893155 422.83304912 132.01324111 429.10608232 135.30419922 435.53466797 C136.32815656 437.53051702 137.36846906 439.51726343 138.41015625 441.50390625 C139.06608533 442.77293084 139.72107035 444.04244394 140.375 445.3125 C141.25865234 447.02373047 141.25865234 447.02373047 142.16015625 448.76953125 C142.54042969 449.67058594 142.92070313 450.57164062 143.3125 451.5 C142.9825 452.16 142.6525 452.82 142.3125 453.5 C141.85101562 452.66339844 141.38953125 451.82679688 140.9140625 450.96484375 C123.02363403 418.26587585 123.02363403 418.26587585 97.3125 392.5 C97.3125 391.84 97.3125 391.18 97.3125 390.5 C96.74660156 390.25636719 96.18070313 390.01273437 95.59765625 389.76171875 C92.89180049 388.26771634 90.98246505 386.44934052 88.75 384.3125 C83.64007978 379.63028235 78.24542334 376.04601641 72.3125 372.5 C71.53519531 371.99855469 70.75789062 371.49710937 69.95703125 370.98046875 C57.15721063 362.85461948 43.04391308 357.78495706 28.3125 354.5 C27.58160156 354.33483887 26.85070312 354.16967773 26.09765625 353.99951172 C0.83326518 348.63249367 -28.44396762 349.58054201 -53.6875 354.5 C-54.60128418 354.67112305 -55.51506836 354.84224609 -56.45654297 355.01855469 C-66.13658228 356.7764973 -66.13658228 356.7764973 -75.70263672 359.05029297 C-78.69356945 359.72794341 -81.63479673 359.55870583 -84.6875 359.5 C-85.0278125 358.26507813 -85.368125 357.03015625 -85.71875 355.7578125 C-94.05251073 326.32921991 -108.50498658 299.74809717 -129.6875 277.5 C-130.19410156 276.96616699 -130.70070313 276.43233398 -131.22265625 275.88232422 C-137.36296197 269.45351123 -143.62080691 263.30077141 -150.625 257.8125 C-151.18864258 257.36680664 -151.75228516 256.92111328 -152.33300781 256.46191406 C-155.42939153 254.06837973 -158.57066002 251.93446838 -161.9375 249.9375 C-162.63625244 249.49752686 -163.33500488 249.05755371 -164.05493164 248.60424805 C-166.08760593 247.29836389 -166.08760593 247.29836389 -168.15405273 246.25708008 C-170.39954941 244.82466451 -171.36784049 243.83497772 -172.6875 241.5 C-172.82359314 238.30552673 -172.82359314 238.30552673 -172.51928711 234.44116211 C-172.46455923 233.73818874 -172.40983135 233.03521538 -172.35344505 232.31093979 C-171.63270281 223.77821046 -170.35917755 215.32106937 -169.0703125 206.859375 C-168.80945823 205.11743456 -168.5490405 203.3754287 -168.28903198 201.63336182 C-167.7470366 198.01238583 -167.20028208 194.39217173 -166.64990234 190.77246094 C-165.94978851 186.16582612 -165.26110728 181.5575688 -164.57589912 176.94869614 C-164.04144916 173.36182176 -163.50126546 169.7758286 -162.95937729 166.19007111 C-162.7033914 164.49209742 -162.44904546 162.79387555 -162.19647598 161.09539032 C-158.64385109 137.26863094 -153.23464278 123.09258469 -134.69921875 107.2265625 C-128.52282241 101.92565535 -122.55326741 96.38371918 -116.5625 90.875 C-112.67071704 87.2967643 -108.74069219 83.77168637 -104.74609375 80.30859375 C-102.1979335 78.0698875 -99.69339407 75.78589788 -97.1875 73.5 C-93.42399479 70.06735239 -89.62620649 66.6844499 -85.78125 63.34375 C-83.22330973 61.09123543 -80.7057102 58.79682908 -78.1875 56.5 C-74.40087002 53.04671847 -70.5827368 49.63900949 -66.71484375 46.27734375 C-63.48348522 43.44445718 -60.30281919 40.55556133 -57.11328125 37.67578125 C-55.05047212 35.82556437 -52.9703763 34.00055191 -50.875 32.1875 C-47.24554988 29.02921582 -43.71576033 25.77010719 -40.1875 22.5 C-15.72154969 -0.11801619 -15.72154969 -0.11801619 0 0 Z " fill="#A683ED" transform="translate(449.6875,30.5)"/>
<path d="M0 0 C0.6703125 0.70898438 1.340625 1.41796875 2.03125 2.1484375 C5.24505986 5.35999048 8.83384782 7.95702707 12.5 10.625 C49.00662733 37.71645439 78.18585865 73.0277295 89 118 C89 118.99 89 119.98 89 121 C90.98 121 92.96 121 95 121 C100.13293716 148.74230324 99.6935438 177.4004919 94 205 C93.68651611 206.58699707 93.68651611 206.58699707 93.36669922 208.20605469 C88.34191229 233.29611438 79.84025483 257.18884941 68.6875 280.19140625 C68.35234375 280.89136719 68.0171875 281.59132813 67.671875 282.3125 C67.3737793 282.92738281 67.07568359 283.54226563 66.76855469 284.17578125 C65.96073736 286.09319265 65.45326089 287.97207721 65 290 C64.34 290 63.68 290 63 290 C62.79375 290.78375 62.5875 291.5675 62.375 292.375 C60.50965127 297.29273755 57.79134805 301.55842103 55 306 C45.28219263 304.76195473 37.33970737 293.42454916 30.6875 286.8125 C29.91059814 286.04043213 29.13369629 285.26836426 28.33325195 284.47290039 C25.19509498 281.32524721 22.08791223 278.20201148 19.26953125 274.76171875 C16.98320833 271.97956677 14.56160733 269.53157025 12 267 C10.86825107 265.87434536 9.73693307 264.74825735 8.60595703 263.62182617 C7.98826447 263.0073613 7.3705719 262.39289642 6.73416138 261.7598114 C3.93273593 258.97186079 1.13403894 256.18117767 -1.66455078 253.39038086 C-3.13370184 251.92626003 -4.60374897 250.46303779 -6.07470703 249.00073242 C-8.21628556 246.87139011 -10.35452332 244.73873984 -12.4921875 242.60546875 C-13.14033417 241.96248337 -13.78848083 241.31949799 -14.45626831 240.6570282 C-18.30707787 236.80668476 -21.95795705 232.84104666 -25.49771118 228.7023468 C-27.34896235 226.60456675 -29.35477601 224.79302304 -31.5 223 C-34.35507023 220.61367264 -36.8225647 218.10066065 -39.2421875 215.28515625 C-43.81664012 209.97697224 -48.83581847 205.14622437 -53.859375 200.26757812 C-63.66080016 190.61545783 -69.32546037 181.1393883 -69.5 167 C-69.38972942 158.04157545 -66.88536346 150.67115324 -62.85546875 142.7734375 C-58.92510095 134.99390486 -55.50735697 126.97625246 -52 119 C-44.21915307 101.30519447 -44.21915307 101.30519447 -40.32324219 93.69238281 C-37.04459581 87.0213658 -34.12818831 80.17316449 -31.125 73.375 C-30.43640533 71.82152263 -29.74760434 70.26813669 -29.05859375 68.71484375 C-26.38072906 62.67267402 -23.70418478 56.63016529 -21.07324219 50.56738281 C-15.86193245 38.5631747 -15.86193245 38.5631747 -12.96582031 32.9375 C-10.77132474 28.53519543 -8.84457475 24.00605975 -6.875 19.5 C-6.43285156 18.50613281 -5.99070312 17.51226562 -5.53515625 16.48828125 C-3.15002033 11.03345377 -1.23480453 5.82716744 0 0 Z " fill="#602CCC" transform="translate(276,269)"/>
<path d="M0 0 C3.81086201 1.36345689 6.79784676 3.11836734 10.0625 5.5 C12.97614559 7.61901497 15.77677044 9.40586477 19 11 C20.33333333 12.33333333 21.66666667 13.66666667 23 15 C24.30107609 15.99429604 25.61480192 16.97215374 26.9375 17.9375 C30.27019619 20.40026447 33.13317338 22.99332818 36 26 C36.76054687 26.73992187 37.52109375 27.47984375 38.3046875 28.2421875 C39.13226563 29.04914063 39.95984375 29.85609375 40.8125 30.6875 C41.60269531 31.45449219 42.39289063 32.22148437 43.20703125 33.01171875 C45 35 45 35 45 37 C45.66 37 46.32 37 47 37 C53.60322875 43.87836329 58.69167767 52.294705 63.86132812 60.27148438 C64.97288348 61.95883684 66.13444058 63.61291212 67.296875 65.265625 C69 68 69 68 69 71 C69.66 71 70.32 71 71 71 C71.92942723 72.85885446 72.8583685 74.71795314 73.78515625 76.578125 C74.61804353 78.23854337 75.45965245 79.89460715 76.30859375 81.546875 C78.57102355 85.97774642 80.51863188 90.23845963 82 95 C82.7734375 96.7325 82.7734375 96.7325 83.5625 98.5 C84.90104999 101.75907825 85.48964531 104.53930918 86 108 C86.86310791 107.74895508 87.72621582 107.49791016 88.61547852 107.23925781 C98.96438468 104.34191908 109.31976616 102.37473679 119.9375 100.75 C120.7847464 100.61793152 121.6319928 100.48586304 122.50491333 100.34979248 C136.43607373 98.2039117 149.88944316 97.23265854 164 98 C163.67 94.7 163.34 91.4 163 88 C162.34 88 161.68 88 161 88 C160.80664062 87.08476562 160.61328125 86.16953125 160.4140625 85.2265625 C160.15367187 84.03804688 159.89328125 82.84953125 159.625 81.625 C159.36976563 80.44164062 159.11453125 79.25828125 158.8515625 78.0390625 C158.24476035 74.91803033 158.24476035 74.91803033 156 73 C155.875 69.875 155.875 69.875 156 67 C156.66 66.67 157.32 66.34 158 66 C159.13350534 63.98330173 159.13350534 63.98330173 160 62 C160.29245605 62.85231201 160.58491211 63.70462402 160.88623047 64.58276367 C161.97734828 67.76068217 163.06959539 70.9382079 164.16259766 74.11547852 C164.6344016 75.48771979 165.10576182 76.86011371 165.57666016 78.23266602 C166.25565374 80.21150882 166.93626897 82.18978761 167.6171875 84.16796875 C168.02565918 85.35672607 168.43413086 86.5454834 168.85498047 87.77026367 C169.56725173 89.77935461 170.32451144 91.77376602 171.14892578 93.73950195 C172 96 172 96 172 99 C173.07894531 99.07476562 174.15789062 99.14953125 175.26953125 99.2265625 C186.35788935 100.14319343 196.25920408 102.56772222 206.74560547 106.22412109 C208.91611527 106.97112999 211.09539706 107.67501317 213.28515625 108.36328125 C219.61973018 110.36568581 225.40803228 112.38166795 231 116 C232.70577958 117.02509488 234.41431751 118.04560821 236.125 119.0625 C237.75023538 120.04127594 239.37523692 121.02044026 241 122 C242.20849609 122.70189453 242.20849609 122.70189453 243.44140625 123.41796875 C253.80064868 129.82330185 263.43674205 137.73521223 271.28515625 147.04296875 C272.93505499 148.92588281 274.6709501 150.60565834 276.5 152.3125 C280.02245418 155.77205321 282.49803045 159.64340277 285.03125 163.86328125 C286.6735653 166.47990662 288.40056092 168.92517381 290.21875 171.41796875 C294.38643155 177.33304912 297.70074111 183.60608232 300.99169922 190.03466797 C302.01565656 192.03051702 303.05596906 194.01726343 304.09765625 196.00390625 C304.75358533 197.27293084 305.40857035 198.54244394 306.0625 199.8125 C306.65160156 200.95332031 307.24070312 202.09414063 307.84765625 203.26953125 C308.22792969 204.17058594 308.60820313 205.07164062 309 206 C308.67 206.66 308.34 207.32 308 208 C307.53851562 207.16339844 307.07703125 206.32679688 306.6015625 205.46484375 C288.71113403 172.76587585 288.71113403 172.76587585 263 147 C263 146.34 263 145.68 263 145 C262.43410156 144.75636719 261.86820313 144.51273438 261.28515625 144.26171875 C258.57930049 142.76771634 256.66996505 140.94934052 254.4375 138.8125 C249.32757978 134.13028235 243.93292334 130.54601641 238 127 C237.22269531 126.49855469 236.44539062 125.99710937 235.64453125 125.48046875 C222.84471063 117.35461948 208.73141308 112.28495706 194 109 C193.26910156 108.83483887 192.53820312 108.66967773 191.78515625 108.49951172 C166.52076518 103.13249367 137.24353238 104.08054201 112 109 C111.08621582 109.17112305 110.17243164 109.34224609 109.23095703 109.51855469 C99.55091772 111.2764973 99.55091772 111.2764973 89.98486328 113.55029297 C86.99393055 114.22794341 84.05270327 114.05870583 81 114 C80.6596875 112.76507813 80.319375 111.53015625 79.96875 110.2578125 C71.63498927 80.82921991 57.18251342 54.24809717 36 32 C35.49339844 31.46616699 34.98679687 30.93233398 34.46484375 30.38232422 C24.76807007 20.22993972 14.37843832 11.73582917 3.125 3.375 C2.09375 2.59125 1.0625 1.8075 0 1 C0 0.67 0 0.34 0 0 Z " fill="#BFA1F4" transform="translate(284,276)"/>
<path d="M0 0 C11.87590373 0.88194932 22.48646725 3.33592793 33.72949219 7.22412109 C35.907353 7.96834063 38.09356938 8.67305081 40.2890625 9.36328125 C46.62181571 11.36680366 52.40917648 13.38240831 58 17 C59.70577958 18.02509488 61.41431751 19.04560821 63.125 20.0625 C64.75023538 21.04127594 66.37523692 22.02044026 68 23 C68.80566406 23.46792969 69.61132812 23.93585938 70.44140625 24.41796875 C80.80064868 30.82330185 90.43674205 38.73521223 98.28515625 48.04296875 C99.93505499 49.92588281 101.6709501 51.60565834 103.5 53.3125 C107.02245418 56.77205321 109.49803045 60.64340277 112.03125 64.86328125 C113.6735653 67.47990662 115.40056092 69.92517381 117.21875 72.41796875 C121.38643155 78.33304912 124.70074111 84.60608232 127.99169922 91.03466797 C129.01565656 93.03051702 130.05596906 95.01726343 131.09765625 97.00390625 C131.75358533 98.27293084 132.40857035 99.54244394 133.0625 100.8125 C133.65160156 101.95332031 134.24070312 103.09414063 134.84765625 104.26953125 C135.41806641 105.62111328 135.41806641 105.62111328 136 107 C135.67 107.66 135.34 108.32 135 109 C134.53851562 108.16339844 134.07703125 107.32679688 133.6015625 106.46484375 C115.71113403 73.76587585 115.71113403 73.76587585 90 48 C90 47.34 90 46.68 90 46 C89.43410156 45.75636719 88.86820313 45.51273437 88.28515625 45.26171875 C85.57930049 43.76771634 83.66996505 41.94934052 81.4375 39.8125 C76.32757978 35.13028235 70.93292334 31.54601641 65 28 C64.22269531 27.49855469 63.44539062 26.99710937 62.64453125 26.48046875 C43.42901797 14.28167556 22.28948953 9.70375465 0 7 C0.33 6.34 0.66 5.68 1 5 C0.72057545 3.32345271 0.39171753 1.65391846 0 0 Z " fill="#9F74ED" transform="translate(457,375)"/>
<path d="M0 0 C1.98 0 3.96 0 6 0 C11.13293716 27.74230324 10.6935438 56.4004919 5 84 C4.79101074 85.05799805 4.58202148 86.11599609 4.36669922 87.20605469 C-0.54443635 111.72862374 -8.4456716 135.77635558 -20 158 C-20.5859375 156.140625 -20.5859375 156.140625 -21 154 C-20.54625 153.2575 -20.0925 152.515 -19.625 151.75 C-17.46731427 148.09853184 -17.35643847 145.205974 -17 141 C-16.34 141 -15.68 141 -15 141 C-14.896875 140.34 -14.79375 139.68 -14.6875 139 C-14 136 -14 136 -12.703125 132.6484375 C-4.36897874 110.71410477 0.99997686 87.37208153 2.76635742 64.00439453 C3 62 3 62 3.51196289 60.04858398 C7.90301269 41.61671863 3.14197102 18.37926012 0 0 Z " fill="#805DC2" transform="translate(365,390)"/>
<path d="M0 0 C3.81086201 1.36345689 6.79784676 3.11836734 10.0625 5.5 C12.97614559 7.61901497 15.77677044 9.40586477 19 11 C20.33333333 12.33333333 21.66666667 13.66666667 23 15 C24.30107609 15.99429604 25.61480192 16.97215374 26.9375 17.9375 C30.27019619 20.40026447 33.13317338 22.99332818 36 26 C36.76054687 26.73992187 37.52109375 27.47984375 38.3046875 28.2421875 C39.13226563 29.04914063 39.95984375 29.85609375 40.8125 30.6875 C41.60269531 31.45449219 42.39289063 32.22148437 43.20703125 33.01171875 C45 35 45 35 45 37 C45.66 37 46.32 37 47 37 C53.60322875 43.87836329 58.69167767 52.294705 63.86132812 60.27148438 C64.97288348 61.95883684 66.13444058 63.61291212 67.296875 65.265625 C69 68 69 68 69 71 C69.66 71 70.32 71 71 71 C71.92942723 72.85885446 72.8583685 74.71795314 73.78515625 76.578125 C74.61804353 78.23854337 75.45965245 79.89460715 76.30859375 81.546875 C78.57102355 85.97774642 80.51863188 90.23845963 82 95 C82.53625 96.155 83.0725 97.31 83.625 98.5 C84.9961819 101.99028121 85.2708276 104.2986895 85 108 C83.35 108.66 81.7 109.32 80 110 C79.84031738 109.4738208 79.68063477 108.9476416 79.51611328 108.40551758 C70.61089651 79.46825002 56.99988177 54.05627826 36 32 C35.49339844 31.46616699 34.98679687 30.93233398 34.46484375 30.38232422 C24.76807007 20.22993972 14.37843832 11.73582917 3.125 3.375 C2.09375 2.59125 1.0625 1.8075 0 1 C0 0.67 0 0.34 0 0 Z " fill="#C9A9F9" transform="translate(284,276)"/>
<path d="M0 0 C2.48231035 2.48231035 2.99776244 4.522339 4.09375 7.85546875 C4.67962891 9.62567383 4.67962891 9.62567383 5.27734375 11.43164062 C5.68082031 12.67107422 6.08429688 13.91050781 6.5 15.1875 C7.10521484 17.01764648 7.10521484 17.01764648 7.72265625 18.88476562 C9.59135359 24.5617818 11.42801759 30.23321671 13 36 C12.01 35.34 11.02 34.68 10 34 C9.62834717 34.48895752 9.25669434 34.97791504 8.8737793 35.48168945 C6.22857684 37.62507891 4.39113178 37.34230925 1.01953125 37.29296875 C-0.14384766 37.28330078 -1.30722656 37.27363281 -2.50585938 37.26367188 C-3.72080078 37.23853516 -4.93574219 37.21339844 -6.1875 37.1875 C-7.41404297 37.17396484 -8.64058594 37.16042969 -9.90429688 37.14648438 C-12.93663664 37.11108741 -15.96809996 37.0617076 -19 37 C-19 36.67 -19 36.34 -19 36 C-11.08 36 -3.16 36 5 36 C4.505 31.05 4.505 31.05 4 26 C3.34 26 2.68 26 2 26 C1.80664062 25.08476562 1.61328125 24.16953125 1.4140625 23.2265625 C1.15367187 22.03804688 0.89328125 20.84953125 0.625 19.625 C0.36976563 18.44164062 0.11453125 17.25828125 -0.1484375 16.0390625 C-0.75523965 12.91803033 -0.75523965 12.91803033 -3 11 C-3.125 7.875 -3.125 7.875 -3 5 C-2.34 4.67 -1.68 4.34 -1 4 C-0.34786708 1.97536745 -0.34786708 1.97536745 0 0 Z " fill="#B896F4" transform="translate(443,338)"/>
<path d="M0 0 C0.99 0 1.98 0 3 0 C2.74605469 0.99257812 2.49210937 1.98515625 2.23046875 3.0078125 C-1.85622965 18.98750546 -1.85622965 18.98750546 -4.74609375 35.21484375 C-4.87234131 36.11944336 -4.99858887 37.02404297 -5.12866211 37.95605469 C-5.37228121 39.74804054 -5.60398016 41.54169586 -5.82250977 43.33691406 C-5.93264404 44.15772461 -6.04277832 44.97853516 -6.15625 45.82421875 C-6.24712891 46.55729248 -6.33800781 47.29036621 -6.43164062 48.0456543 C-7.12054233 50.41449371 -8.25410653 51.30626146 -10 53 C-10.58092992 56.19245998 -10.58092992 56.19245998 -10.6875 59.6875 C-10.75324219 60.86699219 -10.81898438 62.04648437 -10.88671875 63.26171875 C-10.92410156 64.16535156 -10.96148437 65.06898438 -11 66 C-11.33 66 -11.66 66 -12 66 C-12.60997874 53.16785468 -10.76284127 40.68057983 -9 28 C-8.34 28 -7.68 28 -7 28 C-7.04125 26.865625 -7.0825 25.73125 -7.125 24.5625 C-7.09695779 16.62655502 -5.08273885 10.71676392 -1 4 C-0.23959428 1.73014106 -0.23959428 1.73014106 0 0 Z " fill="#B896F5" transform="translate(438,196)"/>
<path d="M0 0 C0.99 0 1.98 0 3 0 C2.27020801 4.11811197 0.2696598 7.63528001 -1.625 11.3125 C-7.55858159 23.01085955 -13.08320054 34.8326207 -18 47 C-18.99 46.67 -19.98 46.34 -21 46 C-18.37375633 35.58717423 -13.47678919 26.52845086 -8.2265625 17.23046875 C-6.02100359 13.21972309 -4.0210309 9.10588384 -2 5 C-1.62230469 4.26394531 -1.24460937 3.52789062 -0.85546875 2.76953125 C0.07254154 1.17752647 0.07254154 1.17752647 0 0 Z " fill="#B691F8" transform="translate(460,148)"/>
<path d="M0 0 C0.33 0 0.66 0 1 0 C1.05814085 3.58326501 1.09364357 7.16640838 1.125 10.75 C1.14175781 11.76578125 1.15851563 12.7815625 1.17578125 13.828125 C1.18222656 14.8078125 1.18867188 15.7875 1.1953125 16.796875 C1.20578613 17.69760742 1.21625977 18.59833984 1.22705078 19.52636719 C0.98525767 22.16061209 0.280901 23.71461595 -1 26 C-1.44500285 28.12593058 -1.44500285 28.12593058 -1.625 30.25 C-1.74875 31.4875 -1.8725 32.725 -2 34 C-2.66 34 -3.32 34 -4 34 C-4.29020927 26.67221591 -3.17444506 19.72125004 -2 12.5 C-1.80921875 11.29601562 -1.6184375 10.09203125 -1.421875 8.8515625 C-0.95339237 5.90012192 -0.47929449 2.94970069 0 0 Z " fill="#8A73B8" transform="translate(285,210)"/>
<path d="M0 0 C-11.06646828 5.05895693 -21.769971 5.66187502 -33.3046875 1.65625 C-33.86414063 1.4396875 -34.42359375 1.223125 -35 1 C-35 0.67 -35 0.34 -35 0 C-32.66705225 -0.04241723 -30.33297433 -0.04092937 -28 0 C-27.67 0.33 -27.34 0.66 -27 1 C-24.09291389 1.12768611 -21.22010135 1.1852231 -18.3125 1.1875 C-17.1069043 1.20586914 -17.1069043 1.20586914 -15.87695312 1.22460938 C-10.5480387 1.23768112 -4.76949439 -1.58983146 0 0 Z " fill="#3B2178" transform="translate(551,611)"/>
<path d="M0 0 C4.97114752 3.46473918 8.64720595 7.9949645 12 13 C12 13.66 12 14.32 12 15 C10.68 15 9.36 15 8 15 C8 13.68 8 12.36 8 11 C7.01 11.495 7.01 11.495 6 12 C5.67 12.99 5.34 13.98 5 15 C4.34 15 3.68 15 3 15 C2.86722656 14.25234375 2.73445313 13.5046875 2.59765625 12.734375 C2.42105469 11.74953125 2.24445313 10.7646875 2.0625 9.75 C1.88847656 8.77546875 1.71445312 7.8009375 1.53515625 6.796875 C1.09620271 4.50278205 0.59651408 2.25708029 0 0 Z " fill="#754DD4" transform="translate(480,45)"/>
<path d="M0 0 C-0.66 1.32 -1.32 2.64 -2 4 C-2.66 4 -3.32 4 -4 4 C-4.309375 4.8353125 -4.309375 4.8353125 -4.625 5.6875 C-7.7972444 11.02263831 -13.99418263 14.49592784 -19 18 C-19.66 17.67 -20.32 17.34 -21 17 C-18.5863834 14.72590659 -16.16857862 12.45631451 -13.75 10.1875 C-13.06808594 9.54490234 -12.38617188 8.90230469 -11.68359375 8.24023438 C-11.01972656 7.61826172 -10.35585938 6.99628906 -9.671875 6.35546875 C-9.0644043 5.78465576 -8.45693359 5.21384277 -7.83105469 4.62573242 C-2.62111428 0 -2.62111428 0 0 0 Z " fill="#9C82E1" transform="translate(335,122)"/>
<path d="M0 0 C1.625 1.625 1.625 1.625 3 4 C2.11928903 8.73382148 -0.42653039 12.67146453 -2.87890625 16.75390625 C-4.08504 19.17037631 -4.58421759 21.3417956 -5 24 C-5.99 24 -6.98 24 -8 24 C-6.19557698 18.34067324 -4.17500369 12.83372968 -1.8671875 7.359375 C-0.97076142 4.92044998 -0.44423741 2.55663162 0 0 Z " fill="#4F2EA0" transform="translate(276,269)"/>
<path d="M0 0 C6.67786285 -0.25094265 12.55607045 0.25696988 19 2 C19.99257813 2.26425781 20.98515625 2.52851562 22.0078125 2.80078125 C24.67576653 3.5206512 27.33925436 4.25399655 30 5 C30 5.66 30 6.32 30 7 C24.70840369 6.33070719 19.61504526 5.27022444 14.4375 4 C9.63985674 2.82922233 4.88809092 1.74132184 0 1 C0 0.67 0 0.34 0 0 Z " fill="#3D2279" transform="translate(426,587)"/>
<path d="M0 0 C0.33 0 0.66 0 1 0 C1.33893581 3.83285925 1.67012787 7.66635091 2 11.5 C2.14308594 13.11648437 2.14308594 13.11648437 2.2890625 14.765625 C2.78162326 20.53562244 3.11244203 26.20923553 3 32 C2.67 32 2.34 32 2 32 C-0.43802084 25.38662851 -0.22824645 19.04751938 -0.125 12.0625 C-0.11597656 10.90169922 -0.10695313 9.74089844 -0.09765625 8.54492188 C-0.07421162 5.69639892 -0.04139522 2.84830922 0 0 Z " fill="#6340AE" transform="translate(591,220)"/>
<path d="M0 0 C1 2 1 2 0.0625 5.125 C-0.288125 6.07375 -0.63875 7.0225 -1 8 C-1.66 8 -2.32 8 -3 8 C-3.268125 8.928125 -3.53625 9.85625 -3.8125 10.8125 C-4.98039329 13.94737145 -5.69990003 14.79190403 -8 17 C-8.495 18.010625 -8.99 19.02125 -9.5 20.0625 C-11 23 -11 23 -14 25 C-12.68071914 21.48283007 -11.12651609 18.34691482 -9.1796875 15.13671875 C-8.37724609 13.80737305 -8.37724609 13.80737305 -7.55859375 12.45117188 C-6.72521484 11.0831543 -6.72521484 11.0831543 -5.875 9.6875 C-5.31167969 8.75615234 -4.74835937 7.82480469 -4.16796875 6.86523438 C-2.7819554 4.57478858 -1.39254372 2.28647924 0 0 Z " fill="#100529" transform="translate(658,408)"/>
<path d="M0 0 C1.125 1.625 1.125 1.625 2 4 C0.80029086 8.3989335 -1.05474735 12.32450569 -3.125 16.375 C-3.66382813 17.43460938 -4.20265625 18.49421875 -4.7578125 19.5859375 C-5.16773438 20.38257813 -5.57765625 21.17921875 -6 22 C-6.5859375 20.140625 -6.5859375 20.140625 -7 18 C-6.319375 16.88625 -6.319375 16.88625 -5.625 15.75 C-3.46731427 12.09853184 -3.35643847 9.205974 -3 5 C-2.34 5 -1.68 5 -1 5 C-0.67 3.35 -0.34 1.7 0 0 Z " fill="#7C52CA" transform="translate(351,526)"/>
<path d="M0 0 C-2.35658397 1.17829199 -3.52573236 1.04414372 -6.1328125 0.87890625 C-6.93847656 0.83056641 -7.74414062 0.78222656 -8.57421875 0.73242188 C-9.41597656 0.67634766 -10.25773437 0.62027344 -11.125 0.5625 C-12.39923828 0.48418945 -12.39923828 0.48418945 -13.69921875 0.40429688 C-15.79979124 0.27448622 -17.89994191 0.1378826 -20 0 C-19.67 -0.66 -19.34 -1.32 -19 -2 C-16.015625 -2.51953125 -16.015625 -2.51953125 -12.25 -2.8125 C-11.01765625 -2.92207031 -9.7853125 -3.03164063 -8.515625 -3.14453125 C-4.72275832 -2.98860229 -3.01379247 -2.22583528 0 0 Z " fill="#1D1335" transform="translate(462,31)"/>
<path d="M0 0 C0 2 0 2 -1.3125 3.39453125 C-1.869375 3.92433594 -2.42625 4.45414062 -3 5 C-4.51710959 6.84502651 -6.01348697 8.70446408 -7.5 10.57421875 C-9 12 -9 12 -12 12 C-12.66 11.67 -13.32 11.34 -14 11 C-12.04709472 9.16056628 -10.08818082 7.32840869 -8.125 5.5 C-7.29162109 4.71302734 -7.29162109 4.71302734 -6.44140625 3.91015625 C-2.2265625 0 -2.2265625 0 0 0 Z " fill="#9278CE" transform="translate(360,99)"/>
<path d="M0 0 C3.19249477 2.96647745 5.4592987 6.04963636 7.75 9.75 C8.36359375 10.73484375 8.9771875 11.7196875 9.609375 12.734375 C10.29773438 13.85585938 10.29773438 13.85585938 11 15 C10.34 15.66 9.68 16.32 9 17 C8.7525 16.401875 8.505 15.80375 8.25 15.1875 C7.14532959 12.88667752 7.14532959 12.88667752 5 11.625 C1.48280861 8.767282 0.98538171 4.26998742 0 0 Z " fill="#6744B6" transform="translate(630,350)"/>
<path d="M0 0 C0.33 0 0.66 0 1 0 C1 1.98 1 3.96 1 6 C0.34 6 -0.32 6 -1 6 C-1 6.66 -1 7.32 -1 8 C-1.99 8.495 -1.99 8.495 -3 9 C-3.309375 9.66 -3.61875 10.32 -3.9375 11 C-5 13 -5 13 -8 14 C-6.67726488 10.40241608 -5.0805802 7.36262865 -2.9375 4.1875 C-2.14666016 3.00220703 -2.14666016 3.00220703 -1.33984375 1.79296875 C-0.89769531 1.20128906 -0.45554687 0.60960937 0 0 Z " fill="#130428" transform="translate(615,476)"/>
<path d="M0 0 C3.63094642 2.64960955 5.89851796 5.01824456 8 9 C7.34 9 6.68 9 6 9 C6 9.66 6 10.32 6 11 C5.34 11 4.68 11 4 11 C4 9.68 4 8.36 4 7 C3.34 7 2.68 7 2 7 C1.34 4.69 0.68 2.38 0 0 Z " fill="#6F49C7" transform="translate(480,45)"/>
<path d="M0 0 C1.32 0.33 2.64 0.66 4 1 C2.02 3.97 0.04 6.94 -2 10 C-2.33 8.68 -2.66 7.36 -3 6 C-2.34 6 -1.68 6 -1 6 C-1.33 4.68 -1.66 3.36 -2 2 C-1.34 2 -0.68 2 0 2 C0 1.34 0 0.68 0 0 Z " fill="#7348C7" transform="translate(610,478)"/>
<path d="M0 0 C2 1.625 2 1.625 4 4 C4.25 7.25 4.25 7.25 4 10 C3.01 10.33 2.02 10.66 1 11 C-0.28317892 7.15046324 -0.06643637 4.05261865 0 0 Z " fill="#7F58BB" transform="translate(368,452)"/>
<path d="M0 0 C0.33 0.66 0.66 1.32 1 2 C0.09176973 4.43557572 -0.86828071 6.76195517 -1.9375 9.125 C-2.22818359 9.78371094 -2.51886719 10.44242187 -2.81835938 11.12109375 C-3.53860198 12.75049505 -4.26841143 14.37566132 -5 16 C-6.31538327 11.84228506 -5.34433068 9.1120703 -4 5 C-3.34 5 -2.68 5 -2 5 C-1.855625 4.360625 -1.71125 3.72125 -1.5625 3.0625 C-1 1 -1 1 0 0 Z " fill="#0C011F" transform="translate(229,375)"/>
<path d="M0 0 C0.33 0 0.66 0 1 0 C1 1.98 1 3.96 1 6 C0.01 6 -0.98 6 -2 6 C-2 7.98 -2 9.96 -2 12 C-3.98 12.99 -3.98 12.99 -6 14 C-2.99633316 4.22210581 -2.99633316 4.22210581 0 0 Z " fill="#4E2DA0" transform="translate(239,356)"/>
<path d="M0 0 C1.625 1.625 1.625 1.625 3 4 C2.20571155 7.89201339 1.09350657 10.46894917 -2 13 C-1.48041715 8.62065881 -0.94324258 4.31196609 0 0 Z " fill="#5733AE" transform="translate(276,269)"/>
<path d="M0 0 C0.33 0 0.66 0 1 0 C1.32712342 6.13053511 1.39366878 10.62669111 -2 16 C-2.66 15.67 -3.32 15.34 -4 15 C-2.68 10.05 -1.36 5.1 0 0 Z " fill="#7E4FDF" transform="translate(483,98)"/>
<path d="M0 0 C-3.95604392 1.21724428 -8.20640675 1.89679663 -12 0 C-12 -0.66 -12 -1.32 -12 -2 C-7.06729471 -3.6442351 -4.45975807 -2.18615592 0 0 Z " fill="#A377F6" transform="translate(518,394)"/>
<path d="M0 0 C0.66 0.33 1.32 0.66 2 1 C0.02 5.29 -1.96 9.58 -4 14 C-4.33 14 -4.66 14 -5 14 C-5 12.02 -5 10.04 -5 8 C-4.34 7.67 -3.68 7.34 -3 7 C-2.835 6.01 -2.67 5.02 -2.5 4 C-2.335 3.01 -2.17 2.02 -2 1 C-1.34 0.67 -0.68 0.34 0 0 Z " fill="#0E0226" transform="translate(250,328)"/>
<path d="M0 0 C0.66 0.66 1.32 1.32 2 2 C1.34 2 0.68 2 0 2 C0.350625 2.825 0.70125 3.65 1.0625 4.5 C2.22335775 8.83386892 1.75705178 11.60909969 1 16 C0.67 16 0.34 16 0 16 C0.04125 15.21625 0.0825 14.4325 0.125 13.625 C0.28728734 10.83883881 0.28728734 10.83883881 -2 9 C-2.01691537 6.24279442 -1.47716181 3.73283582 -1 1 C-0.67 0.67 -0.34 0.34 0 0 Z " fill="#AF8FF0" transform="translate(434,206)"/>
<path d="M0 0 C0.66 0.33 1.32 0.66 2 1 C-5.11389522 9.81548975 -5.11389522 9.81548975 -10 11 C-6.79239749 7.19364503 -3.59253891 3.45436433 0 0 Z " fill="#947ECE" transform="translate(309,143)"/>
<path d="M0 0 C0.33 0.66 0.66 1.32 1 2 C-2.11407709 6.67111564 -5.71181939 9.18690951 -11 11 C-7.33333333 7.33333333 -3.66666667 3.66666667 0 0 Z " fill="#947DC9" transform="translate(385,75)"/>
<path d="M0 0 C3.25516428 3.16474305 6.32008793 6.32752791 9 10 C9 10.66 9 11.32 9 12 C8.01 12 7.02 12 6 12 C5.67 11.01 5.34 10.02 5 9 C4.34 8.67 3.68 8.34 3 8 C2.67 7.01 2.34 6.02 2 5 C1.34 4.67 0.68 4.34 0 4 C0 2.68 0 1.36 0 0 Z " fill="#6D42BD" transform="translate(502,72)"/>
<path d="M0 0 C0.99 0.33 1.98 0.66 3 1 C2.02526874 2.66926454 1.04510211 4.33535642 0.0625 6 C-0.75541016 7.3921875 -0.75541016 7.3921875 -1.58984375 8.8125 C-2.05519531 9.534375 -2.52054688 10.25625 -3 11 C-3.33 11 -3.66 11 -4 11 C-4 9.02 -4 7.04 -4 5 C-2.68 4.67 -1.36 4.34 0 4 C0 2.68 0 1.36 0 0 Z " fill="#6B49C6" transform="translate(633,444)"/>
<path d="M0 0 C0.66 0.99 1.32 1.98 2 3 C1.375 6.0625 1.375 6.0625 0 9 C-2.0859375 10.18359375 -2.0859375 10.18359375 -4 11 C-3.52269162 9.5410574 -3.04308958 8.08286504 -2.5625 6.625 C-2.29566406 5.81289063 -2.02882813 5.00078125 -1.75390625 4.1640625 C-1 2 -1 2 0 0 Z " fill="#552C9F" transform="translate(267,293)"/>
<path d="M0 0 C1.13643966 3.40931897 0.86747764 4.00335456 -0.4375 7.1875 C-0.72496094 7.90292969 -1.01242187 8.61835937 -1.30859375 9.35546875 C-1.53675781 9.89816406 -1.76492188 10.44085937 -2 11 C-2.66 11 -3.32 11 -4 11 C-4.33 11.66 -4.66 12.32 -5 13 C-5.33 11.35 -5.66 9.7 -6 8 C-5.01 8 -4.02 8 -3 8 C-2.690625 7.05125 -2.38125 6.1025 -2.0625 5.125 C-1 2 -1 2 0 0 Z " fill="#7649CC" transform="translate(343,548)"/>
<path d="M0 0 C1 2 1 2 0.25 4.3125 C-1.01118343 7.02404437 -2.30790527 9.53236186 -4 12 C-4.66 12 -5.32 12 -6 12 C-4.68139111 7.38486888 -2.78644563 3.90102388 0 0 Z " fill="#110630" transform="translate(606,490)"/>
<path d="M0 0 C1.60517097 0.08733576 3.20921662 0.19552224 4.8125 0.3125 C6.15248047 0.39951172 6.15248047 0.39951172 7.51953125 0.48828125 C10.30604 1.06313581 11.24135754 1.8206856 13 4 C8.28596212 3.52060632 4.33420699 3.03165952 0 1 C0 0.67 0 0.34 0 0 Z " fill="#3A2278" transform="translate(331,576)"/>
<path d="M0 0 C1.65 0 3.3 0 5 0 C5 1.65 5 3.3 5 5 C3.68 5.33 2.36 5.66 1 6 C0.67 4.02 0.34 2.04 0 0 Z " fill="#8966C6" transform="translate(365,390)"/>
<path d="M0 0 C3.33557632 2.9905167 5.15083921 5.93184627 7 10 C6.34 10 5.68 10 5 10 C5 9.34 5 8.68 5 8 C3.68 7.67 2.36 7.34 1 7 C0.67 4.69 0.34 2.38 0 0 Z " fill="#6D45BE" transform="translate(642,368)"/>
<path d="M0 0 C1.65 0 3.3 0 5 0 C6.125 5.75 6.125 5.75 5 8 C2.525 4.04 2.525 4.04 0 0 Z " fill="#0B021C" transform="translate(634,355)"/>
<path d="M0 0 C4.08963819 2.28538605 7.46362104 4.95706926 11 8 C10.01 8.33 9.02 8.66 8 9 C8 8.34 8 7.68 8 7 C7.195625 6.731875 6.39125 6.46375 5.5625 6.1875 C4.716875 5.795625 3.87125 5.40375 3 5 C2.67 4.01 2.34 3.02 2 2 C1.34 2 0.68 2 0 2 C0 1.34 0 0.68 0 0 Z " fill="#683DC2" transform="translate(297,287)"/>
<path d="M0 0 C0.66 0.66 1.32 1.32 2 2 C1.96712417 4.72869407 1.43602229 7.2966618 1 10 C0.34 10 -0.32 10 -1 10 C-1.125 2.25 -1.125 2.25 0 0 Z " fill="#917DC3" transform="translate(282,234)"/>
<path d="M0 0 C1.32 0.99 2.64 1.98 4 3 C3.34 3 2.68 3 2 3 C2.33 4.65 2.66 6.3 3 8 C1.0625 7.1875 1.0625 7.1875 -1 6 C-1.33 5.01 -1.66 4.02 -2 3 C-1.34 3 -0.68 3 0 3 C0 2.01 0 1.02 0 0 Z " fill="#996EEA" transform="translate(536,406)"/>
<path d="M0 0 C2.64 0.33 5.28 0.66 8 1 C8 1.99 8 2.98 8 4 C5.36 3.67 2.72 3.34 0 3 C0 2.01 0 1.02 0 0 Z " fill="#7B4CDC" transform="translate(456,372)"/>
<path d="M0 0 C0.33 0.66 0.66 1.32 1 2 C-2.12621626 5.39417765 -4.56541027 7.6062718 -9 9 C-6.31941902 5.42589203 -3.57410797 2.68058098 0 0 Z " fill="#967DC9" transform="translate(323,131)"/>
<path d="M0 0 C1 3 1 3 -0.3125 6.625 C-2 10 -2 10 -4 11 C-3.34 8.03 -2.68 5.06 -2 2 C-1.34 2 -0.68 2 0 2 C0 1.34 0 0.68 0 0 Z " fill="#6035BF" transform="translate(348,532)"/>
<path d="M0 0 C0.66 0 1.32 0 2 0 C0.87548273 2.9719385 -0.22293791 5.33440687 -2 8 C-2.66 8 -3.32 8 -4 8 C-4 6.68 -4 5.36 -4 4 C-3.34 4 -2.68 4 -2 4 C-1.34 2.68 -0.68 1.36 0 0 Z " fill="#6D49D1" transform="translate(603,491)"/>
<path d="M0 0 C0.33 0 0.66 0 1 0 C0.67 2.97 0.34 5.94 0 9 C-0.66 9 -1.32 9 -2 9 C-2 9.66 -2 10.32 -2 11 C-2.66 10.67 -3.32 10.34 -4 10 C-2.68 6.7 -1.36 3.4 0 0 Z " fill="#512D9F" transform="translate(217,403)"/>
<path d="M0 0 C0.33 0 0.66 0 1 0 C1 2.64 1 5.28 1 8 C-0.98 8.99 -0.98 8.99 -3 10 C-2.01 6.7 -1.02 3.4 0 0 Z " fill="#542DAE" transform="translate(222,392)"/>
<path d="M0 0 C1.2077558 3.62326739 0.54311128 4.64146369 -1 8 C-2.32 7.67 -3.64 7.34 -5 7 C-3.35 4.69 -1.7 2.38 0 0 Z " fill="#0C0221" transform="translate(572,590)"/>
<path d="M0 0 C2.31 0.66 4.62 1.32 7 2 C7 3.65 7 5.3 7 7 C5.83040013 6.02433888 4.66438823 5.044375 3.5 4.0625 C2.8503125 3.51722656 2.200625 2.97195313 1.53125 2.41015625 C1.0259375 1.94480469 0.520625 1.47945313 0 1 C0 0.67 0 0.34 0 0 Z " fill="#502899" transform="translate(216,462)"/>
<path d="M0 0 C1.8125 0.125 1.8125 0.125 4 1 C5.8125 3.9375 5.8125 3.9375 7 7 C6.67 7.66 6.34 8.32 6 9 C4.99712471 7.68969568 3.99777175 6.37669473 3 5.0625 C2.443125 4.33160156 1.88625 3.60070312 1.3125 2.84765625 C0 1 0 1 0 0 Z " fill="#110327" transform="translate(503,72)"/>
<path d="M0 0 C1.8125 0.125 1.8125 0.125 4 1 C5.8125 3.9375 5.8125 3.9375 7 7 C6.67 7.66 6.34 8.32 6 9 C4.99712471 7.68969568 3.99777175 6.37669473 3 5.0625 C2.443125 4.33160156 1.88625 3.60070313 1.3125 2.84765625 C0 1 0 1 0 0 Z " fill="#0E0428" transform="translate(487,52)"/>
<path d="M0 0 C3.36720387 1.39332574 4.9859524 2.9789286 7 6 C6.01 6 5.02 6 4 6 C4 5.34 4 4.68 4 4 C2.35 3.67 0.7 3.34 -1 3 C-0.67 2.01 -0.34 1.02 0 0 Z " fill="#0D0326" transform="translate(241,489)"/>
<path d="M0 0 C2.64465038 3.1254959 3.84414715 6.08788267 5 10 C2 9 2 9 0.25 5.5625 C-0.1625 4.386875 -0.575 3.21125 -1 2 C-0.67 1.34 -0.34 0.68 0 0 Z " fill="#8556DD" transform="translate(593,482)"/>
<path d="M0 0 C0.66 0 1.32 0 2 0 C2 0.66 2 1.32 2 2 C2.9590625 2.3403125 2.9590625 2.3403125 3.9375 2.6875 C6 4 6 4 6.75 6.625 C6.8325 7.40875 6.915 8.1925 7 9 C4.03595495 6.19195732 1.55500981 3.81684226 0 0 Z " fill="#0C0324" transform="translate(647,374)"/>
<path d="M0 0 C1.32 0.33 2.64 0.66 4 1 C4.33 3.31 4.66 5.62 5 8 C2.20127563 5.47211993 0.54226981 3.79588866 0 0 Z " fill="#A889E4" transform="translate(348,336)"/>
<path d="M0 0 C1.9789756 3.63616656 2.5251065 6.88425629 3 11 C2.01 10.34 1.02 9.68 0 9 C-0.29296875 6.8359375 -0.29296875 6.8359375 -0.1875 4.375 C-0.16042969 3.55773437 -0.13335938 2.74046875 -0.10546875 1.8984375 C-0.05326172 0.95871094 -0.05326172 0.95871094 0 0 Z " fill="#623BA5" transform="translate(597,274)"/>
<path d="M0 0 C0.33 0 0.66 0 1 0 C1.25 2.75 1.25 2.75 1 6 C-1 8.375 -1 8.375 -3 10 C-2.49287967 6.28111761 -1.88391785 3.26545761 0 0 Z " fill="#7A4CDB" transform="translate(453,168)"/>
<path d="M0 0 C0.66 0 1.32 0 2 0 C0.70700306 2.88437779 -0.65941363 4.87219421 -3 7 C-3.33 5.35 -3.66 3.7 -4 2 C-2.68 2 -1.36 2 0 2 C0 1.34 0 0.68 0 0 Z " fill="#442688" transform="translate(570,590)"/>
<path d="M0 0 C1.98 0.66 3.96 1.32 6 2 C6.33 3.65 6.66 5.3 7 7 C5.83040013 6.02433888 4.66438823 5.044375 3.5 4.0625 C2.8503125 3.51722656 2.200625 2.97195313 1.53125 2.41015625 C1.0259375 1.94480469 0.520625 1.47945313 0 1 C0 0.67 0 0.34 0 0 Z " fill="#522BAB" transform="translate(233,479)"/>
<path d="M0 0 C2 0.8125 2 0.8125 3.25 2.875 C3.4975 3.514375 3.745 4.15375 4 4.8125 C1.0280615 3.68798273 -1.33440687 2.58956209 -4 0.8125 C-2 -0.1875 -2 -0.1875 0 0 Z " fill="#986CE3" transform="translate(513,394.1875)"/>
<path d="M0 0 C1.39195915 4.17587745 -0.17676781 6.13474776 -2 10 C-2.66 10 -3.32 10 -4 10 C-2.8905928 6.51329166 -1.73662334 3.22515763 0 0 Z " fill="#512F9E" transform="translate(257,316)"/>
<path d="M0 0 C0.99 0 1.98 0 3 0 C4.58706842 4.1077065 5.10191901 5.59232396 4 10 C2.68 6.7 1.36 3.4 0 0 Z " fill="#0C0220" transform="translate(609,310)"/>
<path d="M0 0 C-2.97 2.475 -2.97 2.475 -6 5 C-6 3.35 -6 1.7 -6 0 C-3 -1 -3 -1 0 0 Z " fill="#0F0921" transform="translate(336,120)"/>
<path d="M0 0 C4.875 4.75 4.875 4.75 6 7 C4.02 6.34 2.04 5.68 0 5 C0 3.35 0 1.7 0 0 Z " fill="#6443B2" transform="translate(513,86)"/>
<path d="M0 0 C3.25 -0.25 3.25 -0.25 7 0 C8.32 1.32 9.64 2.64 11 4 C7.37 3.01 3.74 2.02 0 1 C0 0.67 0 0.34 0 0 Z " fill="#402378" transform="translate(502,607)"/>
<path d="M0 0 C3.0831351 1.19899698 6.06279492 2.47700477 9 4 C8.67 4.66 8.34 5.32 8 6 C4.63408134 4.55746343 2.48952921 2.66735273 0 0 Z " fill="#552EA5" transform="translate(321,569)"/>
<path d="M0 0 C0.33 1.32 0.66 2.64 1 4 C-1.97 6.475 -1.97 6.475 -5 9 C-3.7508258 5.54074837 -2.32472205 2.85306797 0 0 Z " fill="#120428" transform="translate(631,452)"/>
<path d="M0 0 C0.99 0 1.98 0 3 0 C5.1875 2.5 5.1875 2.5 7 5 C6.67 5.66 6.34 6.32 6 7 C1.125 3.375 1.125 3.375 0 0 Z " fill="#7C4DDA" transform="translate(549,416)"/>
<path d="M0 0 C0.33 0 0.66 0 1 0 C1.26218749 3.14624993 1.24754367 4.61837017 -0.5 7.3125 C-1.2425 8.1478125 -1.2425 8.1478125 -2 9 C-2.66 8.67 -3.32 8.34 -4 8 C-2.68 5.36 -1.36 2.72 0 0 Z " fill="#4C2C9B" transform="translate(262,305)"/>
<path d="M0 0 C0.33 0 0.66 0 1 0 C1.24954005 1.43410368 1.47392642 2.87260072 1.6875 4.3125 C1.87892578 5.51326172 1.87892578 5.51326172 2.07421875 6.73828125 C2 9 2 9 -1 12 C-0.67 8.04 -0.34 4.08 0 0 Z " fill="#8571B2" transform="translate(287,196)"/>
<path d="M0 0 C0.66 0 1.32 0 2 0 C1.375 1.875 1.375 1.875 0 4 C-3.125 5.25 -3.125 5.25 -6 6 C-4 4 -2 2 0 0 Z " fill="#997DD1" transform="translate(333,122)"/>
<path d="M0 0 C4.875 4.625 4.875 4.625 6 8 C5.01 8 4.02 8 3 8 C0 2.25 0 2.25 0 0 Z " fill="#6A46B9" transform="translate(528,105)"/>
<path d="M0 0 C0.66 0.33 1.32 0.66 2 1 C1 4 1 4 -1.4375 5.75 C-2.7059375 6.36875 -2.7059375 6.36875 -4 7 C-4.66 6.67 -5.32 6.34 -6 6 C-4.02 4.02 -2.04 2.04 0 0 Z " fill="#907BC9" transform="translate(406,56)"/>
</svg>
