<svg xmlns="http://www.w3.org/2000/svg" viewBox="0 0 24 24">
  <rect width="24" height="24" rx="4" fill="#001E36"/>
  <path fill="#31A8FF" d="M4.5 6v12h1.8V12h2c2.4 0 3.7-1.1 3.7-3.1S10.6 6 8.3 6H4.5zm1.8 4.6V7.5h1.8c1.2 0 2 .6 2 1.6s-.8 1.5-2 1.5H6.3zM13 14.3c.1 1.1 1 1.9 2.6 1.9 1.7 0 2.9-.9 2.9-2.4 0-1.1-.6-1.8-2-2.2l-.8-.2c-.8-.2-1.1-.5-1.1-1s.4-.9 1.1-.9c.6 0 1.1.3 1.2 1h1.7c-.1-1.3-1-2-2.8-2-1.7 0-2.8.9-2.8 2.3 0 1.1.7 1.8 1.9 2.1l.9.2c.9.2 1.2.6 1.2 1.1 0 .6-.5 1-1.3 1-.9 0-1.4-.4-1.5-1.1H13z"/>
</svg>