<?xml version="1.0" encoding="UTF-8"?>
<svg version="1.1" xmlns="http://www.w3.org/2000/svg" width="512" height="512">
<path d="M0 0 C0.81883682 -0.00205263 1.63767363 -0.00410527 2.48132369 -0.0062201 C5.24880048 -0.0119133 8.01622788 -0.01043 10.78370953 -0.00901413 C12.7784265 -0.01159643 14.77314295 -0.01460921 16.76785868 -0.01801753 C22.26786126 -0.02610655 27.7678508 -0.02787816 33.26785862 -0.028615 C39.19231495 -0.03046224 45.11676445 -0.03800787 51.04121685 -0.04475021 C64.68003571 -0.05905655 78.31885358 -0.06486168 91.95767839 -0.06944216 C98.69530503 -0.07177709 105.43293082 -0.07537962 112.17055679 -0.07913754 C135.22757732 -0.09197338 158.28459737 -0.10269288 181.3416214 -0.10614014 C182.78930737 -0.10636177 184.23699334 -0.10658355 185.68467931 -0.10680549 C187.13588918 -0.10702613 188.58709905 -0.10724661 190.03830892 -0.10746694 C192.94975491 -0.10790949 195.86120091 -0.10835661 198.7726469 -0.10880661 C199.49451755 -0.108916 200.2163882 -0.10902539 200.96013372 -0.1091381 C224.37303593 -0.11276968 247.78590719 -0.12869339 271.19879755 -0.15199697 C295.94397965 -0.17658167 320.68914407 -0.19031233 345.43433875 -0.19150805 C348.14964911 -0.19167951 350.86495946 -0.19189494 353.58026981 -0.19214249 C354.583171 -0.19222614 354.583171 -0.19222614 355.60633282 -0.19231148 C365.7080006 -0.19339172 375.80963976 -0.20270891 385.9112978 -0.21632767 C397.39838653 -0.2316987 408.88542223 -0.23686685 420.37251929 -0.22858956 C426.23647001 -0.22467251 432.10031383 -0.22566403 437.96425152 -0.23964691 C443.32888457 -0.25232254 448.6933297 -0.25124434 454.05796226 -0.2390562 C456.00211361 -0.23708817 457.94627799 -0.24022824 459.890411 -0.24890056 C462.52720252 -0.25992106 465.16332233 -0.25255626 467.8000946 -0.24050903 C468.55997817 -0.24810423 469.31986174 -0.25569942 470.10277209 -0.26352477 C475.86953691 -0.20640226 479.93376355 1.12598208 484.17084026 5.06892776 C484.74189495 5.74955276 485.31294964 6.43017776 485.90130901 7.13142776 C486.48525433 7.81205276 487.06919964 8.49267776 487.67084026 9.19392776 C490.16359036 12.59999953 490.21680114 15.52763353 490.22861671 19.61354637 C490.23430796 20.76000637 490.2399992 21.90646637 490.2458629 23.08766758 C490.24704278 24.35291197 490.24822266 25.61815636 490.24943829 26.92174149 C490.25416865 28.27497723 490.25931948 29.62821156 490.26485592 30.98144424 C490.27877337 34.70840523 490.28634882 38.43535645 490.29282892 42.16233683 C490.29919716 45.35705052 490.30926765 48.55174813 490.31938957 51.74645181 C490.35272401 62.27272725 490.37423695 72.79901247 490.39258942 83.3253234 C490.3973841 86.06607278 490.40236746 88.80682175 490.40739465 91.54757071 C490.43836551 108.56515 490.46505255 125.58273268 490.48181343 142.60033226 C490.48576297 146.54266364 490.48976596 150.48499495 490.49383831 154.4273262 C490.49484667 155.40718116 490.49585503 156.38703613 490.49689395 157.39658366 C490.51390014 173.26894591 490.55500836 189.14115223 490.6058613 205.01343836 C490.65763546 221.30722513 490.68675543 237.60093172 490.69401032 253.89480007 C490.69867283 263.04401044 490.71342671 272.19296548 490.75375462 281.34209442 C490.78805935 289.13424511 490.80199219 296.9260944 490.78933048 304.71831627 C490.78350455 308.69326961 490.78736184 312.66758553 490.81750011 316.6424427 C490.84489142 320.28478118 490.84434387 323.92603032 490.82198966 327.56839333 C490.81725133 329.50322627 490.84200354 331.43806288 490.86795896 333.37272751 C490.78405195 341.13432578 489.48930577 346.373644 484.08880901 352.13142776 C478.25448438 356.83486532 471.80272792 357.25762967 464.55881023 357.25168228 C463.26319668 357.25305695 461.96758312 357.25443161 460.63270855 357.25584793 C459.20938373 357.25230946 457.78605915 357.24867466 456.36273479 357.24495316 C454.85447981 357.24467089 453.34622469 357.24482979 451.83796978 357.24539566 C447.7537325 357.2456821 443.66952469 357.2398101 439.58529425 357.2328217 C435.31318245 357.22656269 431.04106995 357.22598235 426.76895428 357.2247963 C418.68368226 357.22169049 410.59842378 357.21348722 402.51315773 357.20344681 C391.58429304 357.19017029 380.65542464 357.18477969 369.72655392 357.17894459 C352.51396214 357.16954683 335.30139895 357.14962289 318.08880901 357.13142776 C318.08880901 383.53142776 318.08880901 409.93142776 318.08880901 437.13142776 C324.68880901 437.13142776 331.28880901 437.13142776 338.08880901 437.13142776 C344.46131139 440.95492919 344.46131139 440.95492919 346.08880901 444.13142776 C346.54270517 447.11926175 346.55296891 450.0515124 346.52630901 453.06892776 C346.54628948 453.86750198 346.56626995 454.6660762 346.58685589 455.48884964 C346.58349153 459.54963538 346.4078537 461.62763852 344.18646526 465.13533401 C340.36651673 468.77033159 336.89113001 468.27973881 331.87156963 468.27859879 C331.01175906 468.28227547 330.1519485 468.28595216 329.26608306 468.28974026 C326.3680372 468.30080512 323.47002716 468.30462567 320.57196331 468.30842972 C318.50098843 468.3146922 316.43001468 468.3213388 314.35904217 468.32834244 C308.72057886 468.34577097 303.08212405 468.35630901 297.44364047 468.36454797 C293.92354003 468.36969365 290.40344226 468.37576954 286.8833437 468.3820591 C275.87732016 468.40111538 264.87130337 468.41534622 253.8652665 468.42367107 C241.14641401 468.43344946 228.42773527 468.45978294 215.70894402 468.50017196 C205.88724927 468.53029457 196.06560443 468.54513623 186.24386436 468.54845208 C180.37338742 468.55080676 174.50309602 468.55982162 168.6326685 468.58491325 C163.1111766 468.60813184 157.58999322 468.61245222 152.06846523 468.60215187 C150.04034368 468.6016549 148.01220726 468.6080225 145.98413181 468.62170792 C143.21804796 468.63933111 140.45308283 468.63236804 137.68699932 468.61917496 C136.47940686 468.63562883 136.47940686 468.63562883 135.24741858 468.6524151 C131.48211882 468.60897172 129.31668581 468.27738815 126.11392212 466.22594357 C122.19717694 462.17496752 122.80172365 458.19370897 122.71380901 452.81892776 C122.65773479 451.53598831 122.65773479 451.53598831 122.60052776 450.22713089 C122.53770299 445.72119885 122.60019054 443.76793913 125.42474651 440.08845901 C133.47021659 434.17822367 139.05699543 437.13142776 151.08880901 437.13142776 C151.08880901 410.73142776 151.08880901 384.33142776 151.08880901 357.13142776 C134.55271526 357.16623245 134.55271526 357.16623245 117.68255901 357.20174026 C110.70078724 357.21195868 103.71902089 357.22166934 96.73724651 357.22908401 C85.65421986 357.24094878 74.57122363 357.25489299 63.48822308 357.28230667 C55.41634584 357.30226283 47.34449329 357.3151495 39.27259207 357.31960475 C34.9999708 357.32220836 30.72742018 357.32831282 26.45482159 357.34288788 C22.42968578 357.35650695 18.40464942 357.36064168 14.37949276 357.35764313 C12.90574509 357.35819136 11.43199394 357.36214298 9.95826626 357.36983871 C-8.4326948 357.46112921 -8.4326948 357.46112921 -14.66119099 352.94392776 C-15.19228474 352.57912308 -15.72337849 352.21431839 -16.27056599 351.83845901 C-22.68718232 345.1621225 -22.48017438 338.70035636 -22.41239643 329.8399086 C-22.41629203 328.48107813 -22.42193455 327.12225175 -22.42916733 325.76343495 C-22.44390285 322.03957052 -22.43375237 318.31612977 -22.41943061 314.59227908 C-22.40831389 310.57246055 -22.42026569 306.55270112 -22.42927265 302.53288651 C-22.44320198 294.66235407 -22.4356514 286.79198213 -22.42059707 278.92145734 C-22.40373371 269.75621076 -22.40694761 260.59100411 -22.41069115 251.42574681 C-22.41656908 235.07345763 -22.40240033 218.72124547 -22.37774372 202.36897659 C-22.35381922 186.50045765 -22.34674108 170.63204159 -22.35723591 154.76350784 C-22.36864385 137.48335872 -22.37057701 120.20325718 -22.35613781 102.92310864 C-22.35461197 101.0807397 -22.35309161 99.23837076 -22.35157681 97.39600182 C-22.35081899 96.48951872 -22.35006118 95.58303563 -22.3492804 94.64908336 C-22.34453692 88.25981835 -22.34638943 81.87057458 -22.3506422 75.48130989 C-22.35556758 67.69616085 -22.34959012 59.91110909 -22.32974791 52.12598234 C-22.31987294 48.15359594 -22.314773 44.18135771 -22.32264042 40.20896339 C-22.32969476 36.57273489 -22.32289863 32.93680545 -22.30503679 29.30061639 C-22.29907362 27.36182784 -22.30781992 25.42301129 -22.3170833 23.4842357 C-22.26554673 16.43963515 -21.96925471 11.41761318 -16.97369099 6.04939651 C-16.29306599 5.47834183 -15.61244099 4.90728714 -14.91119099 4.31892776 C-14.23056599 3.73498245 -13.54994099 3.15103714 -12.84869099 2.54939651 C-8.84959396 -0.37736199 -4.73290855 -0.01092016 0 0 Z " fill="#FE5AD0" transform="translate(21.9111909866333,21.868572235107422)"/>
<path d="M0 0 C168.96 0 337.92 0 512 0 C512 66 512 66 506 75 C499.70545175 79.49610589 494.03683553 80.12646702 486.47000122 80.12025452 C485.17438766 80.12162918 483.87877411 80.12300385 482.54389954 80.12442017 C481.12057472 80.12088169 479.69725013 80.11724689 478.27392578 80.11352539 C476.7656708 80.11324313 475.25741567 80.11340202 473.74916077 80.1139679 C469.66492348 80.11425434 465.58071568 80.10838234 461.49648523 80.10139394 C457.22437344 80.09513493 452.95226094 80.09455458 448.68014526 80.09336853 C440.59487324 80.09026273 432.50961477 80.08205946 424.42434871 80.07201904 C413.49548403 80.05874252 402.56661562 80.05335193 391.6377449 80.04751682 C374.42515312 80.03811907 357.21258994 80.01819513 340 80 C340 106.4 340 132.8 340 160 C346.6 160 353.2 160 360 160 C366.37250238 163.82350143 366.37250238 163.82350143 368 167 C368.45389616 169.98783399 368.46415989 172.92008464 368.4375 175.9375 C368.45748047 176.73607422 368.47746094 177.53464844 368.49804688 178.35742188 C368.49468251 182.41820761 368.31904468 184.49621076 366.09765625 188.00390625 C362.27770772 191.63890383 358.802321 191.14831104 353.78276062 191.14717102 C352.92295005 191.15084771 352.06313948 191.1545244 351.17727405 191.1583125 C348.27922819 191.16937736 345.38121815 191.1731979 342.4831543 191.17700195 C340.41217941 191.18326443 338.34120566 191.18991104 336.27023315 191.19691467 C330.63176985 191.2143432 324.99331504 191.22488125 319.35483146 191.2331202 C315.83473102 191.23826588 312.31463325 191.24434177 308.79453468 191.25063133 C297.78851115 191.26968762 286.78249435 191.28391845 275.77645749 191.2922433 C263.05760499 191.30202169 250.33892625 191.32835518 237.62013501 191.36874419 C227.79844025 191.39886681 217.97679541 191.41370847 208.15505534 191.41702431 C202.28457841 191.419379 196.41428701 191.42839385 190.54385948 191.45348549 C185.02236759 191.47670408 179.50118421 191.48102445 173.97965622 191.47072411 C171.95153466 191.47022714 169.92339824 191.47659473 167.8953228 191.49028015 C165.12923895 191.50790334 162.36427382 191.50094028 159.59819031 191.48774719 C158.79312866 191.49871644 157.98806702 191.50968568 157.15860957 191.52098733 C153.39330981 191.47754396 151.2278768 191.14596039 148.02511311 189.0945158 C144.10836792 185.04353976 144.71291464 181.0622812 144.625 175.6875 C144.56892578 174.40456055 144.56892578 174.40456055 144.51171875 173.09570312 C144.44889398 168.58977109 144.51138152 166.63651136 147.3359375 162.95703125 C155.38140757 157.0467959 160.96818642 160 173 160 C173 133.6 173 107.2 173 80 C156.46390625 80.03480469 156.46390625 80.03480469 139.59375 80.0703125 C132.61197823 80.08053092 125.63021188 80.09024158 118.6484375 80.09765625 C107.56541085 80.10952102 96.48241462 80.12346522 85.39941406 80.15087891 C77.32753682 80.17083506 69.25568428 80.18372173 61.18378305 80.18817699 C56.91116179 80.19078059 52.63861116 80.19688506 48.36601257 80.21146011 C44.34087677 80.22507919 40.31584041 80.22921392 36.29068375 80.22621536 C34.81693607 80.22676359 33.34318493 80.23071522 31.86945724 80.23841095 C13.47849619 80.32970144 13.47849619 80.32970144 7.25 75.8125 C6.71890625 75.44769531 6.1878125 75.08289063 5.640625 74.70703125 C-11.93597944 56.41899282 0 13.95820157 0 0 Z " fill="#229AFE" transform="translate(0,299)"/>
<path d="M0 0 C168.96 0 337.92 0 512 0 C512 66 512 66 506 75 C499.34170761 79.75592313 493.15856745 80.15714763 485.1953125 80.09765625 C484.4713327 80.0962413 483.74735291 80.09482635 483.00143433 80.09336853 C480.70924593 80.08781075 478.41715843 80.07526633 476.125 80.0625 C474.56250142 80.05747953 473.00000129 80.05291759 471.4375 80.04882812 C467.62496165 80.03785519 463.81249788 80.0206201 460 80 C460 79.67 460 79.34 460 79 C461.155 78.7525 462.31 78.505 463.5 78.25 C471.10730772 76.28769094 476.33727822 73.70683539 480.80859375 67.0546875 C484.854 60.07801967 484.597773 52.72724137 483 45 C479.91243398 38.05046215 475.34309335 33.69772194 468.23582172 30.91947842 C464.74807511 29.92841401 461.84882297 29.74024131 458.22685242 29.72584534 C457.57062403 29.72060866 456.91439564 29.71537198 456.23828155 29.70997661 C454.05291596 29.69504889 451.867786 29.69427308 449.68237305 29.69360352 C448.10989999 29.68597717 446.53743065 29.67754886 444.96496582 29.66838074 C440.70244881 29.64647619 436.44000352 29.63764234 432.17743659 29.63255429 C429.51157585 29.62890605 426.84573376 29.62266358 424.17988014 29.6155529 C414.87162072 29.59107284 405.56341692 29.57800955 396.25512695 29.57446289 C387.59132275 29.57082833 378.92787294 29.54093505 370.26417702 29.49905831 C362.81513247 29.46432048 355.3662052 29.44891385 347.91708022 29.44821686 C343.47281256 29.44742526 339.02890617 29.43874065 334.58472252 29.41021919 C330.40255733 29.38397829 326.22105143 29.38186651 322.03884125 29.39787483 C320.50905986 29.39968454 318.97924002 29.3930419 317.44954109 29.37705612 C307.03937503 29.27494966 300.37801017 30.69759186 292.1875 37.25 C287.65514373 42.94781931 285.14022047 48.95786516 285.49609375 56.31640625 C286.90039365 63.79511967 290.26931013 70.29910506 296.5625 74.6875 C299.66954598 76.56501977 302.419024 77.42729558 306 78 C306 78.33 306 78.66 306 79 C284.55 79 263.1 79 241 79 C242.6106734 77.92621773 244.23162083 76.86445188 245.90234375 75.88671875 C252.3893903 72.06421723 255.9588062 67.9655836 259 61 C260.05877484 53.47387553 259.87810924 46.36594537 255.6171875 39.90234375 C250.59313227 33.99240439 244.70781647 30.57697331 236.93786621 29.79154968 C234.66898375 29.68837629 232.40789784 29.64441032 230.13671875 29.62890625 C229.30469437 29.61987778 228.47266998 29.6108493 227.61543274 29.60154724 C225.86320557 29.58710995 224.11092529 29.57817433 222.35864258 29.57446289 C219.70494934 29.56257815 217.05359363 29.5133411 214.40039062 29.46289062 C204.34405803 29.36619853 195.7971964 29.50725802 188.0847168 36.81469727 C182.3674098 42.89489603 181.58666422 48.60506134 181.76171875 56.77734375 C182.24830847 63.35827026 183.86352315 67.25388926 188.6875 71.8125 C192.55968393 74.95909844 196.24680977 76.55706725 201 78 C201 78.33 201 78.66 201 79 C180.43375884 79.91802105 159.91000722 80.16390776 139.32734203 80.16725707 C136.82453131 80.1679788 134.32172574 80.17013316 131.81891632 80.17275429 C123.05635744 80.18191325 114.29381351 80.18609926 105.53125 80.18530273 C97.4033209 80.18469724 89.27545714 80.19536477 81.14754462 80.2110464 C74.11336451 80.22412806 67.07920585 80.22948671 60.04501367 80.22884732 C55.86671375 80.2285935 51.68847284 80.23138386 47.51018524 80.24202538 C43.59957605 80.25172266 39.68908241 80.2517745 35.77846909 80.24450874 C34.34985306 80.24346653 32.92122972 80.24580411 31.49262619 80.2518692 C13.46982918 80.32341572 13.46982918 80.32341572 7.25 75.8125 C6.71890625 75.44769531 6.1878125 75.08289063 5.640625 74.70703125 C-11.93597944 56.41899282 0 13.95820157 0 0 Z " fill="#7BB9F6" transform="translate(0,299)"/>
<path d="M0 0 C6.3667295 4.20109474 10.70670056 9.61506117 13 16.9375 C13.39889757 20.05524001 13.38067687 23.12969414 13.34057617 26.26928711 C13.34101425 27.17739136 13.34145233 28.08549561 13.34190369 29.02111816 C13.3398249 32.00258388 13.31653684 34.98347708 13.29296875 37.96484375 C13.28736956 40.03991895 13.28310099 42.11499814 13.28010559 44.19007874 C13.26868229 49.63663796 13.23923667 55.08295502 13.20599365 60.52941895 C13.17523856 66.09314702 13.16158864 71.65691444 13.14648438 77.22070312 C13.11436463 88.12640814 13.06319866 99.03193389 13 109.9375 C-7.85874495 109.96118442 -28.71748759 109.97864922 -49.5762434 109.98931217 C-59.2680374 109.99440152 -68.95982277 110.00134108 -78.65161133 110.01293945 C-102.18120071 110.04024024 -125.7103726 110.03398583 -149.23986053 109.95316315 C-152.33117241 109.94259631 -155.42247924 109.93380219 -158.51380157 109.92696381 C-166.35189952 109.90891246 -174.18919189 109.86794082 -182.02688026 109.77963066 C-184.25765733 109.75761961 -186.48853187 109.74369661 -188.71941185 109.73866463 C-191.70608851 109.72998968 -194.69074223 109.69067816 -197.67700195 109.64233398 C-198.9400777 109.64852281 -198.9400777 109.64852281 -200.22867012 109.65483665 C-207.21459402 109.48161088 -211.83699338 106.75872791 -216.98828125 102.1640625 C-222.22332202 95.83259726 -224.67258288 90.08762332 -224.41015625 81.78125 C-223.36227148 74.5159156 -219.67777155 68.86710572 -214.13671875 64.19140625 C-205.63744173 59.20371352 -197.32204148 59.52798003 -187.76171875 59.59692383 C-186.11523962 59.59777094 -184.46875936 59.59729331 -182.82228088 59.59559631 C-178.37031702 59.59473823 -173.91859736 59.61233368 -169.46669006 59.63331819 C-164.80755869 59.65211616 -160.14842126 59.65383788 -155.48925781 59.65739441 C-146.67443619 59.66670572 -137.85972665 59.69130711 -129.0449543 59.72144288 C-119.00628152 59.75501537 -108.96760329 59.77148006 -98.92888832 59.78652918 C-78.28586138 59.81785749 -57.64294171 59.87120696 -37 59.9375 C-37 54.6575 -37 49.3775 -37 43.9375 C-34.69 42.9475 -32.38 41.9575 -30 40.9375 C-28.07754172 39.79497941 -28.07754172 39.79497941 -26.54296875 38.5625 C-25.98802734 38.13453125 -25.43308594 37.7065625 -24.86132812 37.265625 C-24.30896484 36.82734375 -23.75660156 36.3890625 -23.1875 35.9375 C-22.61580078 35.49921875 -22.04410156 35.0609375 -21.45507812 34.609375 C-18.78367181 32.52498747 -16.89552064 30.78078096 -15 27.9375 C-14.98377206 21.27592863 -17.92383584 17.97035565 -22.125 13.25 C-23.26402487 11.96445627 -24.39223575 10.66922491 -25.5078125 9.36328125 C-26.00941895 8.80036377 -26.51102539 8.23744629 -27.02783203 7.6574707 C-28 5.9375 -28 5.9375 -27.85498047 3.86401367 C-26.58109644 0.99359137 -24.41773916 -0.03927153 -21.640625 -1.29296875 C-14.55934236 -3.35659697 -6.64056983 -3.39331995 0 0 Z " fill="#E800C7" transform="translate(499,189.0625)"/>
<path d="M0 0 C1.05400161 -0.00445668 1.05400161 -0.00445668 2.12929618 -0.0090034 C4.48976373 -0.01769227 6.85018056 -0.01919882 9.21066284 -0.02069092 C10.90091561 -0.02531908 12.59116734 -0.03034374 14.28141785 -0.03573608 C18.87880492 -0.04886515 23.47617737 -0.05530642 28.07358027 -0.05974674 C30.94696277 -0.0626776 33.82034128 -0.06678251 36.69372177 -0.07125092 C45.68681353 -0.08492927 54.67989616 -0.09459339 63.67299759 -0.09845281 C74.04802795 -0.10292982 84.42292631 -0.12045973 94.79791653 -0.1494534 C102.82013471 -0.17109209 110.84231582 -0.18115831 118.86456287 -0.18249393 C123.6541869 -0.1835407 128.44368692 -0.18942087 133.23328018 -0.20731354 C137.74275613 -0.22383128 142.25201536 -0.22593178 146.76151085 -0.21717453 C148.41222274 -0.21640605 150.06294645 -0.22072191 151.71362877 -0.23063278 C162.54641593 -0.29183284 172.27590662 -0.32949885 180.62814331 7.46075439 C186.45146306 13.96472191 187.52102095 20.63940631 187.39767456 29.10919189 C186.69755795 37.09875794 182.29879754 41.36877671 176.44845581 46.47637939 C171.66965864 49.90937703 167.65795872 50.39280662 161.82704163 50.40786743 C161.10154171 50.41239854 160.37604179 50.41692966 159.62855703 50.42159808 C157.20281686 50.43423623 154.77730138 50.4326221 152.35153198 50.43096924 C150.6100994 50.43695488 148.86866948 50.44376051 147.12724304 50.45132446 C142.39986581 50.46898865 137.67256099 50.47368004 132.94515395 50.47495604 C129.99035309 50.47637803 127.03557061 50.48064856 124.08077431 50.48595047 C113.76867123 50.50445259 103.45661986 50.51262091 93.14450073 50.51104736 C83.53838409 50.50984612 73.93249219 50.53094456 64.32643241 50.56253469 C56.07403483 50.58870424 47.82171061 50.59941436 39.56927186 50.59813654 C34.64274686 50.59762708 29.71642157 50.60330148 24.78993797 50.62449265 C20.15480031 50.64388627 15.52005263 50.64399182 10.88490105 50.62945938 C9.18700337 50.62737153 7.48908121 50.63207077 5.79122543 50.6441803 C-11.66102162 50.7605581 -11.66102162 50.7605581 -19.32888794 43.95684814 C-19.96052856 43.21305908 -20.59216919 42.46927002 -21.24295044 41.70294189 C-21.89005981 40.96173096 -22.53716919 40.22052002 -23.20388794 39.45684814 C-27.56710071 33.38317403 -27.461787 27.37959232 -26.86795044 20.14044189 C-25.64798781 14.07138412 -22.49970666 9.21390607 -17.86795044 5.14044189 C-12.01539038 1.48259186 -6.91419656 0.01630642 0 0 Z " fill="#FFC4F6" transform="translate(68.86795043945313,21.85955810546875)"/>
<path d="M0 0 C1.36801758 -0.00773437 1.36801758 -0.00773437 2.76367188 -0.015625 C3.70919922 -0.00015625 4.65472656 0.0153125 5.62890625 0.03125 C6.57056641 0.01578125 7.51222656 0.0003125 8.48242188 -0.015625 C9.39572266 -0.01046875 10.30902344 -0.0053125 11.25 0 C12.07814209 0.00451172 12.90628418 0.00902344 13.75952148 0.01367188 C17.20134663 0.74619565 18.73672912 2.00894633 21.19140625 4.53125 C21.69469628 7.32529159 21.87386292 9.52012769 21.83496094 12.31323242 C21.84383835 13.09249588 21.85271576 13.87175934 21.86186218 14.67463684 C21.88553044 17.24576518 21.8743587 19.81552536 21.86328125 22.38671875 C21.87385792 24.17224107 21.88676815 25.95775097 21.9019165 27.74324036 C21.93614172 32.43978963 21.94149816 37.13592355 21.94000244 41.83258057 C21.94322788 48.46393224 21.98582989 55.09516814 22.02374268 61.72639465 C22.04382099 65.25874789 22.05309319 68.79088 22.05389404 72.32328796 C22.05771273 73.9280091 22.06155655 75.53273017 22.06542969 77.13745117 C22.06332993 77.8756308 22.06123016 78.61381042 22.05906677 79.37435913 C21.77399211 82.73825007 21.77399211 82.73825007 23.19140625 85.53125 C24.88699351 85.63057153 26.58666372 85.66205007 28.28515625 85.6640625 C29.31511719 85.66535156 30.34507812 85.66664063 31.40625 85.66796875 C32.49035156 85.66410156 33.57445312 85.66023438 34.69140625 85.65625 C36.31755859 85.66205078 36.31755859 85.66205078 37.9765625 85.66796875 C39.00652344 85.66667969 40.03648437 85.66539062 41.09765625 85.6640625 C42.04962891 85.66293457 43.00160156 85.66180664 43.98242188 85.66064453 C46.16592763 85.77824456 46.16592763 85.77824456 47.19140625 84.53125 C47.29512896 82.09363978 47.33502462 79.683445 47.33325195 77.24511719 C47.33672638 76.48247055 47.34020081 75.71982391 47.34378052 74.93406677 C47.35115114 73.2720081 47.35648953 71.6099395 47.36007118 69.94786835 C47.36721841 67.31674658 47.38287259 64.6858133 47.40141296 62.05474854 C47.45395829 54.5718447 47.50185007 47.08904129 47.51733398 39.60595703 C47.52741737 35.03344512 47.55675457 30.46140267 47.59865379 25.88907623 C47.6109678 24.1460246 47.61608431 22.40290664 47.61385536 20.65981293 C47.61150158 18.21768682 47.63367424 15.77690529 47.66137695 13.33496094 C47.65147484 12.25621956 47.65147484 12.25621956 47.64137268 11.15568542 C47.73044111 6.36818567 48.75459325 3.86709202 52.19140625 0.53125 C54.50976562 -0.06811523 54.50976562 -0.06811523 57.03515625 -0.02734375 C58.40994141 -0.01670898 58.40994141 -0.01670898 59.8125 -0.00585938 C61.23755859 0.04344727 61.23755859 0.04344727 62.69140625 0.09375 C63.64144531 0.09955078 64.59148437 0.10535156 65.5703125 0.11132812 C73.55047395 0.25162632 73.55047395 0.25162632 77.19140625 2.53125 C78.74769281 5.64382311 78.3653367 8.95249131 78.38427734 12.37060547 C78.39654358 13.58571053 78.39654358 13.58571053 78.40905762 14.82536316 C78.43393987 17.51638045 78.45044297 20.20734452 78.46484375 22.8984375 C78.47016743 23.81939335 78.4754911 24.7403492 78.4809761 25.6892128 C78.50773156 30.57242246 78.52709087 35.45560646 78.54150391 40.33886719 C78.5547949 44.36611896 78.5825539 48.39285824 78.62353516 52.41992188 C78.67311135 57.29173121 78.69765681 62.16307876 78.70473099 67.03512955 C78.71140708 68.88412639 78.72653308 70.73311442 78.7506218 72.5819664 C78.89743667 84.54155137 78.33131569 94.86746924 70.94140625 104.90625 C60.02280156 115.32855447 48.99311839 117.04929214 34.25390625 116.96875 C32.96033203 116.98873047 31.66675781 117.00871094 30.33398438 117.02929688 C17.96965194 117.02303645 9.31584626 114.56404201 0.35546875 105.90234375 C-6.41765223 98.48125271 -9.11102786 91.18614341 -9.09912109 81.11083984 C-9.10583832 80.28733536 -9.11255554 79.46383087 -9.11947632 78.6153717 C-9.13839394 75.90758145 -9.14237653 73.20003961 -9.14453125 70.4921875 C-9.15096063 68.6046234 -9.15768909 66.7170603 -9.16470337 64.82949829 C-9.17665841 60.88044929 -9.18038573 56.93148769 -9.17919922 52.98242188 C-9.17899547 47.9203091 -9.20636342 42.85875419 -9.24074364 37.79677391 C-9.26296191 33.90202247 -9.26703842 30.00740676 -9.26597977 26.11259842 C-9.26834085 24.24585665 -9.27719282 22.37911142 -9.2926445 20.5124321 C-9.31221372 17.90551051 -9.30650402 15.29981184 -9.29443359 12.69287109 C-9.30567261 11.92186569 -9.31691162 11.15086029 -9.32849121 10.35649109 C-9.28695821 6.83129653 -9.08715269 4.89712068 -6.9221344 2.05349731 C-4.41007569 0.24422309 -3.07324725 0.01676589 0 0 Z " fill="#F8FDFB" transform="translate(293.80859375,117.46875)"/>
<path d="M0 0 C4.37123246 3.64976691 7.81721609 8.31827386 11.375 12.75 C11.94500732 13.45576172 12.51501465 14.16152344 13.10229492 14.88867188 C17.12570838 19.88111997 21.10758714 24.90447771 25 30 C28.99141703 26.16940929 32.4511736 22.09024701 35.875 17.75 C36.40311279 17.0904834 36.93122559 16.4309668 37.4753418 15.75146484 C40.37566496 12.11727136 43.12273077 8.41873348 45.8125 4.625 C47.98450558 1.8904606 49.00173665 0.99916507 52.25 -0.5625 C58.35791213 0.35368682 62.32082408 4.15786142 67 8 C67.73476563 8.53625 68.46953125 9.0725 69.2265625 9.625 C72.31380881 11.96266799 73.82397758 13.60968941 75.4375 17.1875 C74.79398828 22.79524495 71.84896955 26.0653952 68.33447266 30.36669922 C66.89588579 32.12742848 65.48393277 33.90748896 64.07421875 35.69140625 C61.54273244 38.88560226 58.98968653 42.06165744 56.42773438 45.23144531 C54.35970195 47.79314621 52.30488929 50.36524497 50.25 52.9375 C49.16666667 54.29166667 48.08333333 55.64583333 47 57 C48.34157021 59.87740935 49.8673975 62.27844676 51.8359375 64.765625 C52.40046631 65.48322998 52.96499512 66.20083496 53.54663086 66.94018555 C54.45167358 68.0835437 54.45167358 68.0835437 55.375 69.25 C56.63456238 70.86553639 57.89366769 72.48142922 59.15234375 74.09765625 C61.61829236 77.25250084 64.11213883 80.38170621 66.62890625 83.49609375 C67.73231984 84.89279562 68.83520955 86.28991157 69.9375 87.6875 C70.46327637 88.32139648 70.98905273 88.95529297 71.53076172 89.60839844 C74.10710129 92.9154465 74.98895467 94.38406055 75.06640625 98.703125 C73.29686144 104.17380566 69.44893461 106.60512067 65 110 C64.22398437 110.61875 63.44796875 111.2375 62.6484375 111.875 C57.13904498 115.96444599 57.13904498 115.96444599 52.62109375 116.10546875 C47.60647251 114.57457575 45.73824527 111.86226328 42.6875 107.75 C42.13425049 107.03650391 41.58100098 106.32300781 41.01098633 105.58789062 C39.32331476 103.40461563 37.66171505 101.20306137 36 99 C34.98148332 97.68050021 33.96076677 96.36269454 32.9375 95.046875 C30.60640269 92.04508873 28.2969267 89.02800269 26 86 C21.82508248 90.00387807 18.18563414 94.30794843 14.5625 98.8125 C14.01529297 99.48603516 13.46808594 100.15957031 12.90429688 100.85351562 C9.57685774 104.96851432 6.3754412 109.14964799 3.27709961 113.44018555 C1.4698427 115.6475196 0.1970225 115.96549157 -2.609375 116.45703125 C-7.66037873 115.77619319 -10.46728858 112.94714419 -14.25 109.6875 C-14.96929687 109.09259766 -15.68859375 108.49769531 -16.4296875 107.88476562 C-23.67063337 101.81674451 -23.67063337 101.81674451 -24.4921875 97.28515625 C-23.7777755 92.51673967 -21.24382403 89.9916698 -18.125 86.4375 C-16.92950033 85.02469635 -15.73550881 83.61061523 -14.54296875 82.1953125 C-13.94532715 81.4930957 -13.34768555 80.79087891 -12.73193359 80.06738281 C-10.20655212 77.05287332 -7.813953 73.94493062 -5.4375 70.8125 C-1.07544841 65.0822501 -1.07544841 65.0822501 1.33984375 62.44921875 C3.20756817 60.16289162 3.20756817 60.16289162 3.078125 57.609375 C1.57912745 53.98136643 -0.74227549 51.21711285 -3.25 48.25 C-4.33637782 46.92981731 -5.42094256 45.60814103 -6.50390625 44.28515625 C-7.07254395 43.59309082 -7.64118164 42.90102539 -8.22705078 42.18798828 C-11.28747491 38.41113328 -14.23809143 34.55127474 -17.1875 30.6875 C-17.75178711 29.95241211 -18.31607422 29.21732422 -18.89746094 28.45996094 C-19.41985352 27.77579102 -19.94224609 27.09162109 -20.48046875 26.38671875 C-20.94348389 25.78045654 -21.40649902 25.17419434 -21.88354492 24.54956055 C-24.2174502 21.31026538 -24.38730626 18.96740645 -24 15 C-22.3828125 12.91015625 -22.3828125 12.91015625 -20.125 11.0625 C-19.30773437 10.39347656 -18.49046875 9.72445312 -17.6484375 9.03515625 C-16.77445312 8.36355469 -15.90046875 7.69195312 -15 7 C-14.12601562 6.31808594 -13.25203125 5.63617188 -12.3515625 4.93359375 C-4.50808607 -0.89601711 -4.50808607 -0.89601711 0 0 Z " fill="#F8FDFB" transform="translate(410,117)"/>
<path d="M0 0 C0.96164063 -0.00515625 1.92328125 -0.0103125 2.9140625 -0.015625 C3.91179688 -0.00015625 4.90953125 0.0153125 5.9375 0.03125 C6.93523438 0.01578125 7.93296875 0.0003125 8.9609375 -0.015625 C9.92257813 -0.01046875 10.88421875 -0.0053125 11.875 0 C13.18791016 0.00676758 13.18791016 0.00676758 14.52734375 0.01367188 C17.84615066 0.72638163 18.87067534 1.84322702 20.9375 4.53125 C21.33541452 7.22939042 21.49216173 9.52455018 21.4675293 12.22143555 C21.48062637 13.37570038 21.48062637 13.37570038 21.49398804 14.55328369 C21.51834788 17.0917498 21.51495487 19.62940071 21.51171875 22.16796875 C21.52416122 23.93106985 21.5384947 25.69415855 21.55464172 27.45722961 C21.59267987 32.09451863 21.60785884 36.73159395 21.61743164 41.36901855 C21.63717414 48.80270709 21.69388007 56.23623259 21.74619484 63.66974831 C21.76159327 66.27176454 21.76874129 68.87369993 21.77433777 71.47575378 C21.78135027 73.06025229 21.7884509 74.6447504 21.7956543 76.22924805 C21.79512558 76.95807693 21.79459686 77.68690582 21.79405212 78.43782043 C21.52316313 81.76866482 21.52316313 81.76866482 22.9375 84.53125 C24.71821246 84.61851223 26.5023314 84.63824041 28.28515625 84.62890625 C29.36474609 84.62568359 30.44433594 84.62246094 31.55664062 84.61914062 C32.69294922 84.61076172 33.82925781 84.60238281 35 84.59375 C36.14017578 84.58923828 37.28035156 84.58472656 38.45507812 84.58007812 C41.28260351 84.56824747 44.1100264 84.5517641 46.9375 84.53125 C46.94114563 83.55263504 46.94479126 82.57402008 46.94854736 81.56575012 C46.98549976 72.34008681 47.04327499 63.11475722 47.12140274 53.88934803 C47.16090034 49.14651423 47.19307759 44.40386673 47.20849609 39.66088867 C47.2236477 35.08301736 47.25806643 30.50565813 47.30580902 25.92801476 C47.3206383 24.18218119 47.3285419 22.43627453 47.32938385 20.69037819 C47.33175067 18.24330777 47.35880533 15.79765584 47.39160156 13.35083008 C47.38405602 12.26973213 47.38405602 12.26973213 47.37635803 11.16679382 C47.47553738 6.37926371 48.48929227 3.86006438 51.9375 0.53125 C54.45532227 -0.08398438 54.45532227 -0.08398438 57.25390625 -0.0625 C58.26517578 -0.05992188 59.27644531 -0.05734375 60.31835938 -0.0546875 C61.36830078 -0.02632813 62.41824219 0.00203125 63.5 0.03125 C64.55380859 0.02867188 65.60761719 0.02609375 66.69335938 0.0234375 C74.28853161 0.12037652 74.28853161 0.12037652 76.56152344 1.55944824 C78.70832083 4.63585157 78.36280505 7.88018851 78.34155273 11.5 C78.34841599 12.31182236 78.35527924 13.12364471 78.36235046 13.96006775 C78.38068507 16.65063877 78.37676825 19.34062972 78.37109375 22.03125 C78.37565561 23.90633331 78.38096119 25.78141494 78.38697815 27.65649414 C78.39592473 31.59414438 78.39347237 35.53159205 78.38354492 39.46923828 C78.37211149 44.49154953 78.39217188 49.51315178 78.42146206 54.53536987 C78.4399101 58.41327295 78.43951355 62.29100931 78.43382454 66.16894531 C78.43367206 68.01872749 78.43965512 69.86852151 78.45211601 71.71826172 C78.53351281 85.79521611 77.66767264 96.72594604 67.453125 107.36328125 C60.60152331 113.26800009 53.20989983 115.67840312 44.3046875 115.76953125 C43.55341583 115.777603 42.80214417 115.78567474 42.02810669 115.79399109 C40.43607884 115.80781661 38.84402155 115.81854562 37.25195312 115.82641602 C35.63630386 115.83789631 34.02069133 115.85828523 32.40527344 115.88793945 C15.26134227 116.20249088 15.26134227 116.20249088 7.9375 111.53125 C7.13957031 111.07363281 6.34164062 110.61601562 5.51953125 110.14453125 C-2.19276 104.47523106 -7.07291543 96.94501858 -9.0625 87.53125 C-9.52110253 81.23346996 -9.50981767 74.94860701 -9.49609375 68.63671875 C-9.50065978 66.79828194 -9.5059666 64.95984684 -9.51197815 63.12141418 C-9.52087838 59.28440372 -9.51851816 55.4476018 -9.50854492 51.6105957 C-9.49700831 46.69313974 -9.51735375 41.77639688 -9.54646206 36.85903454 C-9.56479144 33.0697829 -9.56453901 29.28070366 -9.55882454 25.49141884 C-9.5586712 23.67771714 -9.56472633 21.86400385 -9.57711601 20.05034447 C-9.59197775 17.52032613 -9.58138866 14.99164604 -9.56420898 12.46166992 C-9.57387695 11.71407913 -9.58354492 10.96648834 -9.59350586 10.19624329 C-9.54411913 6.72673076 -9.31513744 4.86214551 -7.18177795 2.06794739 C-4.59938661 0.19544453 -3.16912834 0.01633571 0 0 Z " fill="#F8FDFB" transform="translate(36.0625,117.46875)"/>
<path d="M0 0 C1.0643074 -0.00137466 2.12861481 -0.00274933 3.22517395 -0.00416565 C4.39258118 -0.00057037 5.5599884 0.0030249 6.76277161 0.00672913 C8.60685356 0.00651009 8.60685356 0.00651009 10.4881897 0.00628662 C13.8598293 0.00686436 17.23140785 0.0118834 20.60303664 0.01886058 C24.1264387 0.02510726 27.64984155 0.02569896 31.17324829 0.02688599 C37.84552448 0.02999542 44.5177843 0.03820359 51.19005328 0.04823548 C58.78610665 0.05940864 66.3821608 0.0649101 73.97822034 0.06993091 C89.60408772 0.08038652 105.22993255 0.09872719 120.85578918 0.12025452 C120.85578918 16.29025452 120.85578918 32.46025452 120.85578918 49.12025452 C104.32207314 49.25588225 87.78883444 49.36632926 71.25471592 49.43112755 C63.57702226 49.46201899 55.89969968 49.50410825 48.22224426 49.57289124 C41.52776152 49.63283891 34.83354761 49.67143792 28.1388039 49.68478549 C24.59634315 49.69258364 21.05465125 49.71080956 17.51243782 49.75463486 C13.55065515 49.80325011 9.58961326 49.80418451 5.6275177 49.80140686 C4.46298065 49.82297852 3.2984436 49.84455017 2.09861755 49.86677551 C-5.59091088 49.80855624 -10.31325362 48.18498159 -16.14421082 43.12025452 C-18.30046082 40.92494202 -18.30046082 40.92494202 -19.64421082 38.99525452 C-20.10827332 38.35330139 -20.57233582 37.71134827 -21.05046082 37.04994202 C-24.40051106 31.13949622 -23.86470094 23.66117469 -23.14421082 17.12025452 C-20.45102675 9.41075814 -15.27858076 4.80294833 -8.14421082 1.12025452 C-5.13227771 0.11627682 -3.14686613 -0.00313121 0 0 Z " fill="#0066F9" transform="translate(219.1442108154297,409.87974548339844)"/>
<path d="M0 0 C0.84433078 -0.00297112 1.68866157 -0.00594224 2.55857813 -0.0090034 C5.39824375 -0.01770063 8.23786727 -0.01919951 11.07754517 -0.02069092 C13.10925894 -0.02531832 15.14097183 -0.03034287 17.17268372 -0.03573608 C22.6995247 -0.04886848 28.22635353 -0.05530653 33.75320768 -0.05974674 C37.20413216 -0.06267575 40.6550533 -0.0667802 44.1059761 -0.07125092 C54.897356 -0.08492725 65.68872829 -0.09459358 76.48011625 -0.09845281 C88.94819573 -0.10293586 101.41616572 -0.12049469 113.8842119 -0.1494534 C123.51484636 -0.17104755 133.14544996 -0.18115585 142.77610838 -0.18249393 C148.53139872 -0.18354346 154.28658614 -0.18948295 160.04185104 -0.20731354 C165.4541571 -0.22375531 170.86628243 -0.22596867 176.27860451 -0.21717453 C178.26640747 -0.2164021 180.25422 -0.22077387 182.24199867 -0.23063278 C184.95313469 -0.24329214 187.6636248 -0.23750833 190.37475586 -0.22705078 C191.55797946 -0.23913539 191.55797946 -0.23913539 192.76510656 -0.25146413 C198.35350772 -0.20095904 201.51988498 1.04679477 205.59951782 4.76934814 C207.4875211 8.45429345 207.28791193 11.99769631 207.25186157 16.07794189 C207.27184204 16.87651611 207.29182251 17.67509033 207.31240845 18.49786377 C207.30904408 22.55864951 207.13340626 24.63665265 204.91201782 28.14434814 C201.09206929 31.77934572 197.61668257 31.28875294 192.59712219 31.28761292 C191.73731162 31.2912896 190.87750106 31.29496629 189.99163562 31.29875439 C187.09358976 31.30981925 184.19557972 31.3136398 181.29751587 31.31744385 C179.22654099 31.32370633 177.15556724 31.33035293 175.08459473 31.33735657 C169.44613142 31.3547851 163.80767661 31.36532314 158.16919303 31.3735621 C154.64909259 31.37870778 151.12899482 31.38478367 147.60889626 31.39107323 C136.60287272 31.41012951 125.59685593 31.42436035 114.59081906 31.4326852 C101.87196656 31.44246359 89.15328783 31.46879707 76.43449658 31.50918609 C66.61280182 31.5393087 56.79115699 31.55415036 46.96941692 31.55746621 C41.09893998 31.55982089 35.22864858 31.56883575 29.35822105 31.59392738 C23.83672916 31.61714597 18.31554578 31.62146635 12.79401779 31.611166 C10.76589624 31.61066903 8.73775981 31.61703663 6.70968437 31.63072205 C3.94360052 31.64834524 1.17863539 31.64138217 -1.58744812 31.62818909 C-2.79504059 31.64464296 -2.79504059 31.64464296 -4.02702886 31.66142923 C-7.79232862 31.61798585 -9.95776163 31.28640228 -13.16052532 29.2349577 C-17.07727051 25.18398165 -16.47272379 21.2027231 -16.56063843 15.82794189 C-16.61671265 14.54500244 -16.61671265 14.54500244 -16.67391968 13.23614502 C-16.73674445 8.73021298 -16.67425691 6.77695326 -13.84970093 3.09747314 C-9.3572622 -0.20269079 -5.35542131 -0.00584963 0 0 Z " fill="#7BBAF7" transform="translate(161.18563842773438,458.85955810546875)"/>
<path d="M0 0 C6.3667295 4.20109474 10.70670056 9.61506117 13 16.9375 C13.39889757 20.05524001 13.38067687 23.12969414 13.34057617 26.26928711 C13.34123329 27.63144348 13.34123329 27.63144348 13.34190369 29.02111816 C13.3398249 32.00258388 13.31653684 34.98347708 13.29296875 37.96484375 C13.28736956 40.03991895 13.28310099 42.11499814 13.28010559 44.19007874 C13.26868229 49.63663796 13.23923667 55.08295502 13.20599365 60.52941895 C13.16982585 67.07232917 13.15611965 73.61532061 13.13863373 80.15830231 C13.10959794 90.08486966 13.05209291 100.01090628 13 109.9375 C-11.42 109.9375 -35.84 109.9375 -61 109.9375 C-58 107.9375 -58 107.9375 -55.94921875 106.96484375 C-49.59753893 103.90418974 -46.26201537 100.15862932 -43 93.9375 C-40.56373702 86.62871106 -41.54970532 79.10577967 -44.66796875 72.1640625 C-48.01053344 66.57678428 -53.13428837 63.51269047 -59 60.9375 C-59 60.6075 -59 60.2775 -59 59.9375 C-51.74 59.9375 -44.48 59.9375 -37 59.9375 C-37 54.6575 -37 49.3775 -37 43.9375 C-34.69 42.9475 -32.38 41.9575 -30 40.9375 C-28.07754172 39.79497941 -28.07754172 39.79497941 -26.54296875 38.5625 C-25.98802734 38.13453125 -25.43308594 37.7065625 -24.86132812 37.265625 C-24.30896484 36.82734375 -23.75660156 36.3890625 -23.1875 35.9375 C-22.61580078 35.49921875 -22.04410156 35.0609375 -21.45507812 34.609375 C-18.78367181 32.52498747 -16.89552064 30.78078096 -15 27.9375 C-14.98377206 21.27592863 -17.92383584 17.97035565 -22.125 13.25 C-23.26402487 11.96445627 -24.39223575 10.66922491 -25.5078125 9.36328125 C-26.00941895 8.80036377 -26.51102539 8.23744629 -27.02783203 7.6574707 C-28 5.9375 -28 5.9375 -27.85498047 3.86401367 C-26.58109644 0.99359137 -24.41773916 -0.03927153 -21.640625 -1.29296875 C-14.55934236 -3.35659697 -6.64056983 -3.39331995 0 0 Z " fill="#F81ED0" transform="translate(499,189.0625)"/>
<path d="M0 0 C1.66279243 -0.02398109 1.66279243 -0.02398109 3.35917664 -0.04844666 C4.54880508 -0.05380936 5.73843353 -0.05917206 6.96411133 -0.06469727 C8.19849442 -0.07372574 9.4328775 -0.08275421 10.70466614 -0.09205627 C13.31626971 -0.10655608 15.92790958 -0.11544483 18.53955078 -0.11914062 C22.51421929 -0.12556115 26.48780823 -0.18018 30.4621582 -0.23071289 C33.00446837 -0.24018084 35.54678803 -0.24741409 38.08911133 -0.25219727 C39.26861862 -0.27172958 40.44812592 -0.2912619 41.66337585 -0.31138611 C50.03831284 -0.26611253 56.93407246 1.26630063 63.26530457 7.04737854 C68.04536007 12.14961431 70.48431061 17.61494839 70.85864258 24.61889648 C70.62600106 31.68538254 68.19844102 37.21468044 63.42114258 42.41577148 C58.11540916 47.27936045 53.71454589 49.53738771 46.41015625 49.61279297 C44.64758736 49.63677406 44.64758736 49.63677406 42.84941101 49.66123962 C40.95712517 49.66928368 40.95712517 49.66928368 39.02661133 49.67749023 C37.72089676 49.68651871 36.41518219 49.69554718 35.06990051 49.70484924 C32.30861953 49.72130599 29.5474593 49.72903309 26.78613281 49.73193359 C23.26550277 49.73731015 19.74602407 49.77497152 16.2257185 49.82067776 C12.84685662 49.85776153 9.46816955 49.85897006 6.08911133 49.86499023 C4.83366013 49.88452255 3.57820892 49.90405487 2.28471375 49.92417908 C-6.37696795 49.87973565 -11.22622213 48.24445429 -17.62963867 42.53295898 C-22.86246985 36.20416612 -25.32856196 30.45278087 -25.04370117 22.14624023 C-24.02240422 14.93766854 -20.7549138 9.84222501 -15.14135742 5.30639648 C-10.26895477 1.73787624 -6.06522213 0.06643726 0 0 Z " fill="#F91ECF" transform="translate(180.641357421875,248.693603515625)"/>
<path d="M0 0 C6.28599899 1.15794718 14.28669978 2.83017042 18.4375 8 C18.29563834 15.50217221 15.99432071 22.20068362 13.6237793 29.26513672 C13.23016205 30.46132126 12.8365448 31.6575058 12.43099976 32.88993835 C11.35877662 36.14650718 10.27522689 39.39919535 9.18873954 42.65102911 C8.28085564 45.37145708 7.37835507 48.09365863 6.47574168 50.81583893 C4.34703131 57.23515343 2.20882167 63.65124879 0.06469727 70.06542969 C-2.14558716 76.67811685 -4.33922812 83.29616115 -6.52492648 89.91701114 C-8.40570523 95.61216922 -10.2969015 101.303794 -12.19646519 106.99271405 C-13.32940887 110.38610806 -14.45831179 113.78071251 -15.5771122 117.17879868 C-16.82309067 120.9614135 -18.09074911 124.73655722 -19.3605957 128.51123047 C-19.72802383 129.63644608 -20.09545197 130.76166168 -20.47401428 131.92097473 C-20.997565 133.46006248 -20.997565 133.46006248 -21.5316925 135.03024292 C-21.82905461 135.92283247 -22.12641672 136.81542202 -22.4327898 137.73505974 C-23.77002138 140.41605673 -24.96356646 141.53260639 -27.5625 143 C-34.59547346 142.87874184 -41.39939281 140.63028559 -47.35546875 136.8671875 C-49.35207937 133.77857949 -48.94682398 130.52803136 -48.5625 127 C-47.56599595 122.87406864 -46.22143647 118.8832872 -44.86230469 114.86425781 C-44.46883347 113.66982559 -44.07536224 112.47539337 -43.66996765 111.24476624 C-42.59619266 107.98715273 -41.50742818 104.73473996 -40.41513348 101.48329639 C-39.27135483 98.07229709 -38.13934867 94.65739043 -37.00543213 91.24310303 C-35.10062099 85.51414383 -33.18575233 79.78861987 -31.26513672 74.06494141 C-29.04667594 67.45314109 -26.84560612 60.83574087 -24.65342212 54.21518636 C-22.76752668 48.52117418 -20.87227871 42.83033876 -18.96920514 37.14204478 C-17.83397933 33.74882091 -16.70199799 30.35460815 -15.57845306 26.95749664 C-14.32612285 23.1730648 -13.05421009 19.39538072 -11.78027344 15.61816406 C-11.41127426 14.49497269 -11.04227509 13.37178131 -10.66209412 12.21455383 C-10.31161514 11.18567551 -9.96113617 10.15679718 -9.60003662 9.09674072 C-9.30137569 8.20377415 -9.00271477 7.31080757 -8.69500351 6.3907814 C-6.62091931 2.01226788 -4.93596575 0 0 0 Z " fill="#F8FDFB" transform="translate(240.5625,104)"/>
<path d="M0 0 C1.51438911 -0.01142029 1.51438911 -0.01142029 3.05937195 -0.02307129 C5.18823789 -0.0338399 7.31715652 -0.03673863 9.44604492 -0.03222656 C12.67913348 -0.03125603 15.90983267 -0.07287971 19.14257812 -0.1171875 C21.22004718 -0.12239673 23.29752441 -0.12508266 25.375 -0.125 C26.32949539 -0.14139526 27.28399078 -0.15779053 28.26741028 -0.17468262 C36.55893107 -0.09060036 42.87748041 2.56981398 49.26171875 7.84375 C54.53882141 14.36252388 56.8377014 20.36972359 56.7265625 28.7421875 C55.83152471 35.92306543 51.96224953 41.62541798 46.5234375 46.21484375 C39.57102579 50.29477823 33.3545778 50.93587233 25.45703125 50.9375 C24.42665741 50.94511353 23.39628357 50.95272705 22.33468628 50.96057129 C20.16471772 50.97133007 17.99469756 50.97424267 15.82470703 50.96972656 C12.52808138 50.96875482 9.23379005 51.01041558 5.9375 51.0546875 C3.81901522 51.05989592 1.70052243 51.06258267 -0.41796875 51.0625 C-1.39120087 51.07889526 -2.36443298 51.09529053 -3.36715698 51.11218262 C-10.35331831 51.04261089 -15.80926505 49.44596448 -21.61328125 45.46875 C-28.05213009 38.69942193 -30.06404253 32.46144582 -30.04711914 23.13891602 C-29.84203792 16.17381321 -27.65288766 12.61665593 -22.96875 7.765625 C-15.94457997 1.23298832 -9.31750223 0.00195373 0 0 Z " fill="#FF96EA" transform="translate(324.61328125,21.53125)"/>
<path d="M0 0 C9.1017751 -0.0697343 18.20345718 -0.12292961 27.30544186 -0.15543652 C31.53258182 -0.17104394 35.75953803 -0.19219136 39.98657227 -0.22631836 C44.07146048 -0.25908863 48.15617273 -0.27688998 52.24118233 -0.28463173 C53.79398935 -0.29014371 55.34678754 -0.30090677 56.89951897 -0.31719017 C67.72732522 -0.42614968 77.2119297 -0.4064484 85.49609375 7.3203125 C91.3194135 13.82428002 92.38897139 20.49896441 92.265625 28.96875 C91.56550839 36.95831604 87.16674798 41.22833481 81.31640625 46.3359375 C76.53967436 49.76745147 72.56056307 50.24718675 66.73120117 50.22705078 C66.01846039 50.22734283 65.3057196 50.22763489 64.57138062 50.22793579 C62.22845044 50.22654857 59.88584299 50.21101636 57.54296875 50.1953125 C55.91343866 50.1915802 54.28390631 50.18873425 52.65437317 50.18673706 C48.37506871 50.17911767 44.095901 50.1594838 39.81665039 50.1373291 C35.44614512 50.11683411 31.07561765 50.10772754 26.70507812 50.09765625 C18.13665615 50.07623625 9.56834511 50.04212085 1 50 C1.92135742 49.54512207 1.92135742 49.54512207 2.86132812 49.08105469 C11.29679008 44.817102 16.79476773 40.10393704 20 31 C21.168871 22.99015766 19.60486687 16.62821747 15 10 C10.74740226 5.10744823 6.10823356 2.92891586 0 1 C0 0.67 0 0.34 0 0 Z " fill="#FF96EA" transform="translate(164,22)"/>
<path d="M0 0 C1.25159409 -0.00430527 1.25159409 -0.00430527 2.5284729 -0.00869751 C4.2849394 -0.01072906 6.04142899 -0.00526315 7.79785156 0.00732422 C10.46211308 0.02335058 13.12484844 0.00746595 15.7890625 -0.01171875 C17.50521163 -0.00973536 19.22135983 -0.00588972 20.9375 0 C21.72216644 -0.00607269 22.50683289 -0.01214539 23.3152771 -0.0184021 C31.98672953 0.08984552 39.08259194 2.41873429 45.37109375 8.46875 C50.99846944 14.74397255 51.81559999 20.61301909 51.546875 28.98828125 C50.57285565 36.44721892 46.77845633 41.36026585 41.140625 46.109375 C35.06651259 49.94933112 30.07455402 50.85768108 23.01953125 50.83203125 C22.16531082 50.8372731 21.31109039 50.84251495 20.4309845 50.84791565 C18.63165366 50.85430968 16.83228087 50.85303295 15.03295898 50.84448242 C12.30700626 50.83599338 9.58316704 50.86473529 6.85742188 50.89648438 C-4.07543677 50.94147015 -13.25464436 50.70130839 -21.8359375 43.1484375 C-27.65816814 36.63962306 -28.48641916 30.11112226 -28.23828125 21.515625 C-27.41710829 13.98348683 -23.78060751 9.79306343 -18.19140625 4.94140625 C-12.15432482 0.87897496 -7.11848477 -0.05480862 0 0 Z " fill="#48ACFE" transform="translate(208.8984375,327.6015625)"/>
<path d="M0 0 C0.96164063 -0.00515625 1.92328125 -0.0103125 2.9140625 -0.015625 C3.91179687 -0.00015625 4.90953125 0.0153125 5.9375 0.03125 C6.93523437 0.01578125 7.93296875 0.0003125 8.9609375 -0.015625 C9.92257813 -0.01046875 10.88421875 -0.0053125 11.875 0 C13.18791016 0.00676758 13.18791016 0.00676758 14.52734375 0.01367188 C17.93650019 0.74578408 18.87533462 1.69054763 20.9375 4.53125 C21.55095017 7.86271326 21.49393083 11.16508326 21.47094727 14.54467773 C21.47956284 15.56135529 21.48817841 16.57803284 21.49705505 17.6255188 C21.51977226 20.98888552 21.51296506 24.3514229 21.50390625 27.71484375 C21.50913945 30.05127715 21.51541481 32.38770842 21.52268982 34.72413635 C21.53310484 39.62258846 21.52851678 44.52075027 21.51391602 49.41918945 C21.49673144 55.69877936 21.5202147 61.97745404 21.55540562 68.2569418 C21.57735934 73.08252535 21.57594287 77.90788927 21.5676403 82.73350716 C21.56681959 85.04877793 21.57370574 87.36406464 21.58841133 89.67928886 C21.60581789 92.91624168 21.59134529 96.15154164 21.56860352 99.38842773 C21.58029572 100.34599472 21.59198792 101.30356171 21.60403442 102.29014587 C21.5382398 106.88953858 21.43715348 108.88565395 18.5433197 112.6247406 C15.80020559 114.63169942 14.59317132 115.17113667 11.25 115.1953125 C10.38632813 115.20175781 9.52265625 115.20820313 8.6328125 115.21484375 C7.74335938 115.19550781 6.85390625 115.17617187 5.9375 115.15625 C4.60332031 115.18525391 4.60332031 115.18525391 3.2421875 115.21484375 C2.37851563 115.20839844 1.51484375 115.20195312 0.625 115.1953125 C-0.15488281 115.18967285 -0.93476563 115.1840332 -1.73828125 115.17822266 C-5.38550328 114.16297703 -6.7493439 112.52005024 -9.0625 109.53125 C-9.79966478 106.15236351 -9.7356964 102.83574796 -9.69360352 99.38842773 C-9.70075882 98.36999786 -9.70791412 97.35156799 -9.71528625 96.30227661 C-9.73218106 92.93934133 -9.71276631 89.57773746 -9.69140625 86.21484375 C-9.6922348 83.87744537 -9.69469368 81.54004705 -9.69871521 79.20265198 C-9.70157368 74.30590257 -9.68686529 69.40961044 -9.65942383 64.51293945 C-9.62532278 58.23223867 -9.63136542 51.95235466 -9.6500864 45.67161465 C-9.66064735 40.84606604 -9.651727 36.02070796 -9.63670158 31.19517708 C-9.63151397 28.87909574 -9.63200856 26.56299456 -9.63824654 24.24691582 C-9.64368833 21.0124 -9.6233562 17.77905967 -9.59594727 14.54467773 C-9.60247314 13.58508652 -9.60899902 12.6254953 -9.61572266 11.63682556 C-9.52232456 5.16467384 -9.52232456 5.16467384 -7.17979431 1.9377594 C-4.60229979 0.225541 -3.08139603 0.01588348 0 0 Z " fill="#F8FDFB" transform="translate(142.0625,117.46875)"/>
<path d="M0 0 C1.22096375 0.00015106 2.44192749 0.00030212 3.69989014 0.00045776 C5.67037323 0.01594162 5.67037323 0.01594162 7.68066406 0.03173828 C9.04258008 0.03547037 10.40449879 0.03831642 11.76641846 0.04031372 C15.34376492 0.04793484 18.92094792 0.06757009 22.49822998 0.08972168 C26.15146677 0.110213 29.80473007 0.11932245 33.45800781 0.12939453 C40.62084259 0.15081756 47.78354289 0.18493496 54.94628906 0.22705078 C51.94628906 2.22705078 51.94628906 2.22705078 49.67675781 3.31298828 C41.99201909 7.20847795 38.61199169 12.08529237 35.94628906 20.22705078 C34.35502223 27.4204488 36.58073416 33.18414769 40.04785156 39.51611328 C44.0985863 45.3004958 49.22802224 48.02413649 56.00878906 49.60205078 C57.30816406 49.80830078 58.60753906 50.01455078 59.94628906 50.22705078 C59.94628906 50.55705078 59.94628906 50.88705078 59.94628906 51.22705078 C44.54345875 51.3374349 29.14744702 51.30480096 13.74871826 50.90866089 C12.26462192 50.87115307 10.78044469 50.83671077 9.29620361 50.80545044 C7.20133511 50.76004084 5.10715491 50.70231765 3.01269531 50.64111328 C1.81588135 50.60969238 0.61906738 50.57827148 -0.61401367 50.54589844 C-8.07334529 49.85444503 -13.88091798 47.64019574 -19.05371094 42.22705078 C-23.06259478 36.3201179 -26.15564965 30.07598415 -25.62792969 22.80517578 C-23.96772112 15.35117815 -20.83700205 8.94485964 -14.42871094 4.60205078 C-12.99265806 3.77065175 -11.53464154 2.97559388 -10.05371094 2.22705078 C-9.4742572 1.87933624 -8.89480347 1.5316217 -8.29779053 1.17337036 C-5.41202356 -0.04354627 -3.13036014 -0.01293537 0 0 Z " fill="#48ABFE" transform="translate(310.0537109375,327.77294921875)"/>
<path d="M0 0 C1.12093552 0.00007553 2.24187103 0.00015106 3.39677429 0.00022888 C4.60622208 0.00539017 5.81566986 0.01055145 7.06176758 0.01586914 C8.30050125 0.01728409 9.53923492 0.01869904 10.81550598 0.02015686 C14.1051142 0.02480937 17.39467343 0.03379149 20.68426514 0.04486084 C24.04251506 0.0550991 27.40077216 0.05965965 30.7590332 0.06469727 C37.34564095 0.07573394 43.93221588 0.09247773 50.51879883 0.11352539 C48.92158087 1.17833736 47.31400847 2.23177254 45.65161133 3.19165039 C38.51047625 7.35962806 34.08645961 12.00512291 31.51879883 20.11352539 C30.355565 28.65336397 32.87282913 34.63573051 37.14379883 41.86352539 C40.73949417 45.26997361 45.03040909 47.10060251 49.51879883 49.11352539 C49.51879883 49.44352539 49.51879883 49.77352539 49.51879883 50.11352539 C42.22520261 50.20656241 34.93173616 50.27745982 27.63766479 50.32077408 C24.25000925 50.3415721 20.86276227 50.36974426 17.4753418 50.4152832 C13.57305237 50.46397232 9.67133731 50.48653468 5.76879883 50.50415039 C4.56328369 50.52479553 3.35776855 50.54544067 2.11572266 50.56671143 C-6.14511183 50.56889961 -11.5959529 49.56091235 -17.94213867 43.92993164 C-18.5737793 43.18614258 -19.20541992 42.44235352 -19.85620117 41.67602539 C-20.50331055 40.93481445 -21.15041992 40.19360352 -21.81713867 39.42993164 C-26.18035144 33.35625753 -26.07503773 27.35267581 -25.48120117 20.11352539 C-24.26123854 14.04446761 -21.1129574 9.18698957 -16.48120117 5.11352539 C-11.17896293 1.79962649 -6.28050145 -0.01411349 0 0 Z " fill="#FF96EA" transform="translate(67.481201171875,21.886474609375)"/>
<path d="M0 0 C1.09848267 0.00424484 2.19696533 0.00848969 3.32873535 0.01286316 C6.8131636 0.02956214 10.29699861 0.06719879 13.78125 0.10546875 C16.15363744 0.1205269 18.52603401 0.13421332 20.8984375 0.14648438 C26.69290836 0.17943687 32.48703678 0.2295484 38.28125 0.29296875 C37.35880493 0.75110962 37.35880493 0.75110962 36.41772461 1.21850586 C27.41695138 5.7451203 22.49661876 10.64686247 19.28125 20.29296875 C18.66205697 27.22793066 19.97426264 33.12911176 23.28125 39.29296875 C25.69872786 42.02253904 28.3276524 44.17007048 31.28125 46.29296875 C32.61575992 47.29139805 33.94924985 48.29119364 35.28125 49.29296875 C28.30716525 49.42019306 21.33338195 49.50749778 14.35839844 49.56762695 C11.98784196 49.5927045 9.6173623 49.62677507 7.24707031 49.67016602 C3.83118695 49.73111272 0.41632964 49.75924725 -3 49.78125 C-4.57859802 49.81995964 -4.57859802 49.81995964 -6.18908691 49.85945129 C-14.17159319 49.86246462 -18.80936142 47.77992831 -24.70703125 42.51953125 C-29.94207202 36.18806601 -32.39133288 30.44309207 -32.12890625 22.13671875 C-31.08102148 14.87138435 -27.39652155 9.22257447 -21.85546875 4.546875 C-14.59238708 0.2846278 -8.24496843 -0.12130755 0 0 Z " fill="#F81ECF" transform="translate(306.71875,248.70703125)"/>
<path d="M0 0 C0.920728 0.00007553 1.84145599 0.00015106 2.79008484 0.00022888 C4.27614983 0.00797081 4.27614983 0.00797081 5.79223633 0.01586914 C6.80900955 0.01728409 7.82578278 0.01869904 8.87336731 0.02015686 C12.12369721 0.02575832 15.37395846 0.03831107 18.62426758 0.05102539 C20.82674054 0.0560402 23.02921459 0.06060314 25.23168945 0.06469727 C30.63340562 0.07572822 36.0350817 0.09246777 41.43676758 0.11352539 C39.43676758 2.11352539 39.43676758 2.11352539 36.18676758 3.80102539 C31.10294905 6.65602995 27.47943032 10.52472234 25.29614258 15.94555664 C23.40620984 22.91253596 23.13573973 30.49342798 26.43676758 37.05102539 C28.89510979 40.8829399 31.90952749 43.40021512 35.66723633 45.92211914 C37.43676758 47.11352539 37.43676758 47.11352539 39.43676758 49.11352539 C33.05077025 49.26647164 26.66525024 49.37107127 20.27783203 49.44311523 C18.10805613 49.47316798 15.9384005 49.51402276 13.76904297 49.56616211 C10.63845046 49.63948483 7.50947251 49.67309755 4.37817383 49.69946289 C2.93856041 49.74591446 2.93856041 49.74591446 1.46986389 49.79330444 C-5.72369632 49.79684689 -10.07631596 47.71877511 -15.56323242 43.11352539 C-17.71948242 40.91821289 -17.71948242 40.91821289 -19.06323242 38.98852539 C-19.52729492 38.34657227 -19.99135742 37.70461914 -20.46948242 37.04321289 C-23.81953267 31.13276709 -23.28372255 23.65444556 -22.56323242 17.11352539 C-19.87004836 9.40402902 -14.69760236 4.79621921 -7.56323242 1.11352539 C-4.70836127 0.16190167 -2.95868925 -0.008106 0 0 Z " fill="#037CFE" transform="translate(218.563232421875,409.886474609375)"/>
<path d="M0 0 C5.81660061 -0.09944869 11.63269792 -0.1717413 17.44995117 -0.21972656 C19.4256249 -0.23974646 21.40124009 -0.26697092 23.37670898 -0.30175781 C26.2291515 -0.35070207 29.08080549 -0.37306525 31.93359375 -0.390625 C32.80584091 -0.41127014 33.67808807 -0.43191528 34.57676697 -0.45318604 C42.01295319 -0.45586001 47.52440479 1.78825759 53.75 5.75 C59.81552827 11.81552827 61.80004089 17.19614756 62.12890625 25.81640625 C61.84605915 32.8018726 59.65387552 38.30101877 54.87109375 43.4296875 C46.8044352 50.19961806 37.9982057 51.16116168 27.8828125 51.09765625 C27.02565643 51.0962413 26.16850037 51.09482635 25.28536987 51.09336853 C22.5652101 51.08780022 19.84513462 51.07525364 17.125 51.0625 C15.27343869 51.0574809 13.42187609 51.05291871 11.5703125 51.04882812 C7.04684285 51.03784117 2.52343568 51.02059852 -2 51 C0.77701322 49.59639499 3.56812402 48.32844712 6.4375 47.125 C13.61932643 43.89906485 17.10313126 40.27057252 20 33 C21.97339806 26.39569449 21.84126417 20.06180162 19 13.75 C15.87062619 8.14357255 11.81153142 4.33760728 5.70703125 2.1953125 C3.82522278 1.70903987 1.91335451 1.34167045 0 1 C0 0.67 0 0.34 0 0 Z " fill="#48ABFE" transform="translate(423,328)"/>
<path d="M0 0 C12.87 0 25.74 0 39 0 C39 16.17 39 32.34 39 49 C26.46 49 13.92 49 1 49 C2.63311367 47.91125755 4.26665105 46.8231452 5.90234375 45.73828125 C11.86720762 41.55944188 15.53370897 37.34503192 17 30 C17.70949488 22.6142746 17.23056586 16.25746649 13 10 C9.2931554 5.95265193 5.37861544 2.51273559 0 1 C0 0.67 0 0.34 0 0 Z " fill="#027BFE" transform="translate(301,410)"/>
</svg>
