<?xml version="1.0" encoding="UTF-8"?>
<svg version="1.1" xmlns="http://www.w3.org/2000/svg" width="225" height="225">
<path d="M0 0 C74.25 0 148.5 0 225 0 C225 74.25 225 148.5 225 225 C150.75 225 76.5 225 0 225 C0 150.75 0 76.5 0 0 Z " fill="#7F54B3" transform="translate(0,0)"/>
<path d="M0 0 C1.12005936 -0.0071553 2.24011871 -0.01431061 3.39411926 -0.02168274 C4.62376404 -0.02437164 5.85340881 -0.02706055 7.12031555 -0.02983093 C8.41488174 -0.03640213 9.70944794 -0.04297333 11.04324341 -0.04974365 C15.3388597 -0.07076968 19.63447628 -0.08114611 23.93013 -0.09111023 C25.41056143 -0.09515863 26.89099267 -0.09927557 28.37142372 -0.10346031 C35.32861223 -0.12251045 42.28579016 -0.13674066 49.24299973 -0.14507228 C57.26473618 -0.15483807 65.2861962 -0.18114086 73.30783528 -0.22157317 C79.51349196 -0.2517748 85.71906959 -0.26654506 91.92479831 -0.26985329 C95.62849466 -0.2721996 99.33189565 -0.28110452 103.03551292 -0.30631447 C107.17202904 -0.33401593 111.30793121 -0.32975174 115.4445343 -0.32279968 C116.66405792 -0.33560974 117.88358154 -0.3484198 119.14006042 -0.36161804 C126.10797827 -0.31895738 130.69791504 0.35958716 136.60591125 4.14717102 C140.50033524 8.34116608 141.72504316 10.83745916 141.79878235 16.47969055 C141.81484528 17.59490082 141.8309082 18.71011108 141.84745789 19.8591156 C141.89191631 24.97659979 141.93343669 30.09399454 141.95600891 35.21162415 C141.96930842 37.90826137 141.99708326 40.60413467 142.03804016 43.30049133 C142.09291885 47.18971998 142.11470405 51.07791933 142.12934875 54.96748352 C142.15201813 56.16672455 142.1746875 57.36596558 142.19804382 58.60154724 C142.18013157 65.72942102 141.51269875 70.76245777 136.60591125 76.14717102 C132.0395941 80.48781938 125.88406333 79.52429251 119.96138 79.44013977 C118.83645645 79.43589493 117.7115329 79.43165009 116.55252075 79.42727661 C112.96590564 79.41050792 109.37985604 79.3728579 105.79341125 79.33467102 C103.35917459 79.31962189 100.9249291 79.30593389 98.49067688 79.2936554 C92.52889597 79.26061027 86.56744402 79.2104283 80.60591125 79.14717102 C81.05063782 80.1345929 81.49536438 81.12201477 81.9535675 82.13935852 C82.52559256 83.43344799 83.09718481 84.72772883 83.66841125 86.02217102 C83.96296204 86.67314758 84.25751282 87.32412415 84.56098938 87.99482727 C85.30252638 89.68727643 85.96030127 91.41585677 86.60591125 93.14717102 C86.27591125 93.80717102 85.94591125 94.46717102 85.60591125 95.14717102 C81.83401351 93.02405621 78.06357854 90.89835698 74.29341125 88.77217102 C73.22155579 88.16888977 72.14970032 87.56560852 71.04536438 86.94404602 C69.50332336 86.07392883 69.50332336 86.07392883 67.93013 85.18623352 C66.98226624 84.65207825 66.03440247 84.11792297 65.05781555 83.56758118 C63.20147053 82.49218385 61.39094446 81.33719316 59.60591125 80.14717102 C56.63473537 79.84462811 56.63473537 79.84462811 53.2101593 79.89179993 C52.56586975 79.88817947 51.9215802 79.88455902 51.25776672 79.88082886 C49.85985415 79.87394054 48.46191472 79.87142837 47.06398582 79.87277603 C44.84818765 79.873742 42.63287366 79.8607904 40.41714478 79.84379578 C34.11788204 79.79755068 27.81866797 79.77292835 21.51924133 79.76631165 C17.66412048 79.76128613 13.80950355 79.73698204 9.9545536 79.70098495 C8.48864078 79.69120871 7.02265843 79.68884316 5.55672264 79.69415665 C3.50055322 79.70125826 1.44587542 79.68388444 -0.6101532 79.66133118 C-2.36196648 79.65705612 -2.36196648 79.65705612 -4.14916992 79.6526947 C-9.41374336 78.83253041 -12.47345685 76.3034317 -15.73588562 72.20600891 C-18.44951199 66.9045854 -17.96482963 61.01875985 -17.92533875 55.20576477 C-17.92916565 53.96472488 -17.93299255 52.723685 -17.93693542 51.44503784 C-17.94034357 48.16080814 -17.92432397 44.87734413 -17.90190125 41.59321594 C-17.89408874 39.58466971 -17.90188319 37.57682155 -17.91557312 35.5683136 C-17.94030756 31.69713572 -17.93728536 27.82698595 -17.92533875 23.95576477 C-17.93343567 22.76188644 -17.94153259 21.56800812 -17.94987488 20.33795166 C-17.87825405 13.98660867 -17.73894473 9.93538984 -13.39408875 5.14717102 C-8.9627847 1.14818932 -5.90149642 0.02586644 0 0 Z " fill="#FCFBFD" transform="translate(50.39408874511719,68.85282897949219)"/>
<path d="M0 0 C2.5625 0.3125 2.5625 0.3125 4.4375 1.4375 C5.5625 3.3125 5.5625 3.3125 5.4375 5.875 C4.74789552 8.58416047 3.9764851 11.21062834 3.140625 13.875 C1.56416445 19.1169936 0.41448437 24.36684535 -0.5625 29.75 C-0.73571777 30.69141846 -0.90893555 31.63283691 -1.08740234 32.6027832 C-2.35000773 39.86611247 -2.96505241 47.04172591 -3.10986328 54.40991211 C-3.20277619 58.22729339 -3.26686476 60.05654714 -5.4375 63.3125 C-7.81640625 63.73046875 -7.81640625 63.73046875 -10.4375 63.3125 C-19.22932812 56.75674377 -23.20822527 45.3775759 -26.4375 35.3125 C-28.54142818 37.99184533 -30.22038317 40.63833455 -31.7421875 43.68359375 C-32.16113281 44.50537109 -32.58007812 45.32714844 -33.01171875 46.17382812 C-33.87575061 47.88502635 -34.73516614 49.59856367 -35.58984375 51.31445312 C-38.03539993 56.08964462 -40.27625777 59.87525769 -44.4375 63.3125 C-46.5625 63.4375 -46.5625 63.4375 -48.4375 62.3125 C-53.34958379 56.02503274 -54.8460343 47.20122789 -56.26171875 39.515625 C-56.48840996 38.32063385 -56.48840996 38.32063385 -56.71968079 37.10150146 C-57.03432607 35.43493517 -57.34591913 33.76778989 -57.65454102 32.10009766 C-58.12668895 29.55339002 -58.61049036 27.009091 -59.09570312 24.46484375 C-59.40173156 22.83606697 -59.70709372 21.20716484 -60.01171875 19.578125 C-60.15542404 18.82283508 -60.29912933 18.06754517 -60.44718933 17.28936768 C-62.22707564 7.58459409 -62.22707564 7.58459409 -60.3125 4.5 C-57.57762639 2.76791338 -55.60009871 2.90876399 -52.4375 3.3125 C-50.14424159 6.75238761 -49.71714352 9.22694607 -48.96484375 13.28125 C-48.83686905 13.95796753 -48.70889435 14.63468506 -48.57704163 15.33190918 C-48.16986459 17.49094794 -47.77202748 19.65157393 -47.375 21.8125 C-46.97274681 23.97307811 -46.568544 26.1332696 -46.1622467 28.29309082 C-45.79444523 30.25263792 -45.43212265 32.21321102 -45.07006836 34.17382812 C-44.50212141 37.32291172 -44.50212141 37.32291172 -43.4375 40.3125 C-43.06463867 39.57612305 -42.69177734 38.83974609 -42.30761719 38.08105469 C-40.60890429 34.73740565 -38.89835578 31.399951 -37.1875 28.0625 C-36.60097656 26.90363281 -36.01445313 25.74476562 -35.41015625 24.55078125 C-34.83652344 23.43574219 -34.26289062 22.32070312 -33.671875 21.171875 C-32.88635254 19.63225098 -32.88635254 19.63225098 -32.08496094 18.06152344 C-30.44514214 15.32525199 -28.8756973 13.36155858 -26.4375 11.3125 C-23.875 11.125 -23.875 11.125 -21.4375 12.3125 C-18.54593458 17.31713246 -17.47124772 22.84365399 -16.18359375 28.4453125 C-15.46967104 31.18886889 -14.54895167 33.70798235 -13.4375 36.3125 C-13.32792969 35.44109375 -13.21835938 34.5696875 -13.10546875 33.671875 C-8.77289426 1.12473003 -8.77289426 1.12473003 0 0 Z " fill="#8055B3" transform="translate(101.4375,77.6875)"/>
<path d="M0 0 C4.73043639 2.62802022 7.49362775 5.63743171 9.484375 10.69140625 C12.30835987 20.78591357 10.31435097 29.83761608 5.375 38.875 C2.58616717 43.34066269 -0.61246202 46.10586895 -5.625 47.875 C-11.00603542 48.65142194 -15.02913975 47.93890683 -19.625 44.875 C-25.78026567 38.43994953 -27.03129664 33.44757374 -26.99072266 24.68359375 C-26.7658052 16.19863415 -24.00035989 9.45417317 -18.19140625 3.28125 C-12.56502269 -1.76986741 -7.04222674 -2.18551864 0 0 Z " fill="#8156B4" transform="translate(132.625,86.125)"/>
<path d="M0 0 C4.23993664 2.36168434 7.29906434 5.02794308 9.21484375 9.53515625 C11.4675984 19.0108055 10.96559615 29.7464046 5.83984375 38.1640625 C2.98515516 42.25601321 0.3386995 45.41463463 -4.16015625 47.6640625 C-10.70380358 48.75467039 -14.85034694 48.54304616 -20.36328125 44.79296875 C-24.74358397 40.82212911 -26.77757456 34.94573537 -27.36328125 29.15625 C-27.58115572 19.31558626 -24.83337959 11.44241441 -18.16015625 4.1640625 C-12.84765708 -0.6542507 -6.92993798 -2.68174815 0 0 Z " fill="#8156B4" transform="translate(173.16015625,85.8359375)"/>
<path d="M0 0 C2.72814404 1.65124508 3.2209759 2.52668028 4.375 5.4375 C5.36660674 12.21732281 4.27178258 17.79433326 0.375 23.4375 C-2.17623411 26.35896597 -2.17623411 26.35896597 -5.125 26.875 C-7.625 26.4375 -7.625 26.4375 -9.375 24.625 C-11.75747471 20.45566926 -12.07689947 17.18244444 -11.625 12.4375 C-6.38742983 -1.36873496 -6.38742983 -1.36873496 0 0 Z " fill="#FAF9FC" transform="translate(127.625,95.5625)"/>
<path d="M0 0 C3.0310902 5.17811243 3.94975072 9.14209787 2.49609375 15.046875 C0.96302084 19.70741664 -0.95993524 23.01804744 -5 26 C-7.625 26.125 -7.625 26.125 -10 25 C-13.20890354 21.45914092 -13.51273139 17.94068019 -13.359375 13.34765625 C-12.14566807 5.41898378 -8.33188841 -0.55545923 0 0 Z " fill="#FBF9FC" transform="translate(170,96)"/>
</svg>
